<?xml version="1.0" encoding="utf-8" standalone="no"?>
<!DOCTYPE svg PUBLIC "-//W3C//DTD SVG 1.1//EN"
  "http://www.w3.org/Graphics/SVG/1.1/DTD/svg11.dtd">
<!-- Created with matplotlib (https://matplotlib.org/) -->
<svg height="345.6pt" version="1.1" viewBox="0 0 460.8 345.6" width="460.8pt" xmlns="http://www.w3.org/2000/svg" xmlns:xlink="http://www.w3.org/1999/xlink">
 <defs>
  <style type="text/css">
*{stroke-linecap:butt;stroke-linejoin:round;}
  </style>
 </defs>
 <g id="figure_1">
  <g id="patch_1">
   <path d="M 0 345.6 
L 460.8 345.6 
L 460.8 0 
L 0 0 
z
" style="fill:#ffffff;"/>
  </g>
  <g id="axes_1">
   <g id="patch_2">
    <path d="M 57.6 307.584 
L 414.72 307.584 
L 414.72 41.472 
L 57.6 41.472 
z
" style="fill:#ffffff;"/>
   </g>
   <g id="patch_3">
    <path clip-path="url(#p16ae725a04)" d="M 73.832727 307.584 
L 75.100909 307.584 
L 75.100909 307.564723 
L 73.832727 307.564723 
z
" style="fill:#1f77b4;"/>
   </g>
   <g id="patch_4">
    <path clip-path="url(#p16ae725a04)" d="M 75.100909 307.584 
L 76.369091 307.584 
L 76.369091 307.490368 
L 75.100909 307.490368 
z
" style="fill:#1f77b4;"/>
   </g>
   <g id="patch_5">
    <path clip-path="url(#p16ae725a04)" d="M 76.369091 307.584 
L 77.637273 307.584 
L 77.637273 307.416013 
L 76.369091 307.416013 
z
" style="fill:#1f77b4;"/>
   </g>
   <g id="patch_6">
    <path clip-path="url(#p16ae725a04)" d="M 77.637273 307.584 
L 78.905455 307.584 
L 78.905455 307.567477 
L 77.637273 307.567477 
z
" style="fill:#1f77b4;"/>
   </g>
   <g id="patch_7">
    <path clip-path="url(#p16ae725a04)" d="M 78.905455 307.584 
L 80.173636 307.584 
L 80.173636 307.333397 
L 78.905455 307.333397 
z
" style="fill:#1f77b4;"/>
   </g>
   <g id="patch_8">
    <path clip-path="url(#p16ae725a04)" d="M 80.173636 307.584 
L 81.441818 307.584 
L 81.441818 307.523415 
L 80.173636 307.523415 
z
" style="fill:#1f77b4;"/>
   </g>
   <g id="patch_9">
    <path clip-path="url(#p16ae725a04)" d="M 81.441818 307.584 
L 82.71 307.584 
L 82.71 307.584 
L 81.441818 307.584 
z
" style="fill:#1f77b4;"/>
   </g>
   <g id="patch_10">
    <path clip-path="url(#p16ae725a04)" d="M 82.71 307.584 
L 83.978182 307.584 
L 83.978182 307.281073 
L 82.71 307.281073 
z
" style="fill:#1f77b4;"/>
   </g>
   <g id="patch_11">
    <path clip-path="url(#p16ae725a04)" d="M 83.978182 307.584 
L 85.246364 307.584 
L 85.246364 307.432536 
L 83.978182 307.432536 
z
" style="fill:#1f77b4;"/>
   </g>
   <g id="patch_12">
    <path clip-path="url(#p16ae725a04)" d="M 85.246364 307.584 
L 86.514545 307.584 
L 86.514545 307.545446 
L 85.246364 307.545446 
z
" style="fill:#1f77b4;"/>
   </g>
   <g id="patch_13">
    <path clip-path="url(#p16ae725a04)" d="M 86.514545 307.584 
L 87.782727 307.584 
L 87.782727 306.771604 
L 86.514545 306.771604 
z
" style="fill:#1f77b4;"/>
   </g>
   <g id="patch_14">
    <path clip-path="url(#p16ae725a04)" d="M 87.782727 307.584 
L 89.050909 307.584 
L 89.050909 307.584 
L 87.782727 307.584 
z
" style="fill:#1f77b4;"/>
   </g>
   <g id="patch_15">
    <path clip-path="url(#p16ae725a04)" d="M 89.050909 307.584 
L 90.319091 307.584 
L 90.319091 307.482106 
L 89.050909 307.482106 
z
" style="fill:#1f77b4;"/>
   </g>
   <g id="patch_16">
    <path clip-path="url(#p16ae725a04)" d="M 90.319091 307.584 
L 91.587273 307.584 
L 91.587273 307.195702 
L 90.319091 307.195702 
z
" style="fill:#1f77b4;"/>
   </g>
   <g id="patch_17">
    <path clip-path="url(#p16ae725a04)" d="M 91.587273 307.584 
L 92.855455 307.584 
L 92.855455 306.870744 
L 91.587273 306.870744 
z
" style="fill:#1f77b4;"/>
   </g>
   <g id="patch_18">
    <path clip-path="url(#p16ae725a04)" d="M 92.855455 307.584 
L 94.123636 307.584 
L 94.123636 307.471091 
L 92.855455 307.471091 
z
" style="fill:#1f77b4;"/>
   </g>
   <g id="patch_19">
    <path clip-path="url(#p16ae725a04)" d="M 94.123636 307.584 
L 95.391818 307.584 
L 95.391818 307.063516 
L 94.123636 307.063516 
z
" style="fill:#1f77b4;"/>
   </g>
   <g id="patch_20">
    <path clip-path="url(#p16ae725a04)" d="M 95.391818 307.584 
L 96.66 307.584 
L 96.66 307.396736 
L 95.391818 307.396736 
z
" style="fill:#1f77b4;"/>
   </g>
   <g id="patch_21">
    <path clip-path="url(#p16ae725a04)" d="M 96.66 307.584 
L 97.928182 307.584 
L 97.928182 307.25078 
L 96.66 307.25078 
z
" style="fill:#1f77b4;"/>
   </g>
   <g id="patch_22">
    <path clip-path="url(#p16ae725a04)" d="M 97.928182 307.584 
L 99.196364 307.584 
L 99.196364 307.297596 
L 97.928182 307.297596 
z
" style="fill:#1f77b4;"/>
   </g>
   <g id="patch_23">
    <path clip-path="url(#p16ae725a04)" d="M 99.196364 307.584 
L 100.464545 307.584 
L 100.464545 307.581246 
L 99.196364 307.581246 
z
" style="fill:#1f77b4;"/>
   </g>
   <g id="patch_24">
    <path clip-path="url(#p16ae725a04)" d="M 100.464545 307.584 
L 101.732727 307.584 
L 101.732727 307.526168 
L 100.464545 307.526168 
z
" style="fill:#1f77b4;"/>
   </g>
   <g id="patch_25">
    <path clip-path="url(#p16ae725a04)" d="M 101.732727 307.584 
L 103.000909 307.584 
L 103.000909 306.925822 
L 101.732727 306.925822 
z
" style="fill:#1f77b4;"/>
   </g>
   <g id="patch_26">
    <path clip-path="url(#p16ae725a04)" d="M 103.000909 307.584 
L 104.269091 307.584 
L 104.269091 306.096902 
L 103.000909 306.096902 
z
" style="fill:#1f77b4;"/>
   </g>
   <g id="patch_27">
    <path clip-path="url(#p16ae725a04)" d="M 104.269091 307.584 
L 105.537273 307.584 
L 105.537273 307.107578 
L 104.269091 307.107578 
z
" style="fill:#1f77b4;"/>
   </g>
   <g id="patch_28">
    <path clip-path="url(#p16ae725a04)" d="M 105.537273 307.584 
L 106.805455 307.584 
L 106.805455 307.220487 
L 105.537273 307.220487 
z
" style="fill:#1f77b4;"/>
   </g>
   <g id="patch_29">
    <path clip-path="url(#p16ae725a04)" d="M 106.805455 307.584 
L 108.073636 307.584 
L 108.073636 307.231503 
L 106.805455 307.231503 
z
" style="fill:#1f77b4;"/>
   </g>
   <g id="patch_30">
    <path clip-path="url(#p16ae725a04)" d="M 108.073636 307.584 
L 109.341818 307.584 
L 109.341818 306.870744 
L 108.073636 306.870744 
z
" style="fill:#1f77b4;"/>
   </g>
   <g id="patch_31">
    <path clip-path="url(#p16ae725a04)" d="M 109.341818 307.584 
L 110.61 307.584 
L 110.61 306.23735 
L 109.341818 306.23735 
z
" style="fill:#1f77b4;"/>
   </g>
   <g id="patch_32">
    <path clip-path="url(#p16ae725a04)" d="M 110.61 307.584 
L 111.878182 307.584 
L 111.878182 307.584 
L 110.61 307.584 
z
" style="fill:#1f77b4;"/>
   </g>
   <g id="patch_33">
    <path clip-path="url(#p16ae725a04)" d="M 111.878182 307.584 
L 113.146364 307.584 
L 113.146364 307.584 
L 111.878182 307.584 
z
" style="fill:#1f77b4;"/>
   </g>
   <g id="patch_34">
    <path clip-path="url(#p16ae725a04)" d="M 113.146364 307.584 
L 114.414545 307.584 
L 114.414545 307.330643 
L 113.146364 307.330643 
z
" style="fill:#1f77b4;"/>
   </g>
   <g id="patch_35">
    <path clip-path="url(#p16ae725a04)" d="M 114.414545 307.584 
L 115.682727 307.584 
L 115.682727 307.512399 
L 114.414545 307.512399 
z
" style="fill:#1f77b4;"/>
   </g>
   <g id="patch_36">
    <path clip-path="url(#p16ae725a04)" d="M 115.682727 307.584 
L 116.950909 307.584 
L 116.950909 307.10207 
L 115.682727 307.10207 
z
" style="fill:#1f77b4;"/>
   </g>
   <g id="patch_37">
    <path clip-path="url(#p16ae725a04)" d="M 116.950909 307.584 
L 118.219091 307.584 
L 118.219091 307.126855 
L 116.950909 307.126855 
z
" style="fill:#1f77b4;"/>
   </g>
   <g id="patch_38">
    <path clip-path="url(#p16ae725a04)" d="M 118.219091 307.584 
L 119.487273 307.584 
L 119.487273 306.410845 
L 118.219091 306.410845 
z
" style="fill:#1f77b4;"/>
   </g>
   <g id="patch_39">
    <path clip-path="url(#p16ae725a04)" d="M 119.487273 307.584 
L 120.755455 307.584 
L 120.755455 306.264889 
L 119.487273 306.264889 
z
" style="fill:#1f77b4;"/>
   </g>
   <g id="patch_40">
    <path clip-path="url(#p16ae725a04)" d="M 120.755455 307.584 
L 122.023636 307.584 
L 122.023636 307.43529 
L 120.755455 307.43529 
z
" style="fill:#1f77b4;"/>
   </g>
   <g id="patch_41">
    <path clip-path="url(#p16ae725a04)" d="M 122.023636 307.584 
L 123.291818 307.584 
L 123.291818 306.198796 
L 122.023636 306.198796 
z
" style="fill:#1f77b4;"/>
   </g>
   <g id="patch_42">
    <path clip-path="url(#p16ae725a04)" d="M 123.291818 307.584 
L 124.56 307.584 
L 124.56 306.713772 
L 123.291818 306.713772 
z
" style="fill:#1f77b4;"/>
   </g>
   <g id="patch_43">
    <path clip-path="url(#p16ae725a04)" d="M 124.56 307.584 
L 125.828182 307.584 
L 125.828182 307.561969 
L 124.56 307.561969 
z
" style="fill:#1f77b4;"/>
   </g>
   <g id="patch_44">
    <path clip-path="url(#p16ae725a04)" d="M 125.828182 307.584 
L 127.096364 307.584 
L 127.096364 306.716526 
L 125.828182 306.716526 
z
" style="fill:#1f77b4;"/>
   </g>
   <g id="patch_45">
    <path clip-path="url(#p16ae725a04)" d="M 127.096364 307.584 
L 128.364545 307.584 
L 128.364545 307.584 
L 127.096364 307.584 
z
" style="fill:#1f77b4;"/>
   </g>
   <g id="patch_46">
    <path clip-path="url(#p16ae725a04)" d="M 128.364545 307.584 
L 129.632727 307.584 
L 129.632727 306.463169 
L 128.364545 306.463169 
z
" style="fill:#1f77b4;"/>
   </g>
   <g id="patch_47">
    <path clip-path="url(#p16ae725a04)" d="M 129.632727 307.584 
L 130.900909 307.584 
L 130.900909 305.661789 
L 129.632727 305.661789 
z
" style="fill:#1f77b4;"/>
   </g>
   <g id="patch_48">
    <path clip-path="url(#p16ae725a04)" d="M 130.900909 307.584 
L 132.169091 307.584 
L 132.169091 306.901037 
L 130.900909 306.901037 
z
" style="fill:#1f77b4;"/>
   </g>
   <g id="patch_49">
    <path clip-path="url(#p16ae725a04)" d="M 132.169091 307.584 
L 133.437273 307.584 
L 133.437273 307.570231 
L 132.169091 307.570231 
z
" style="fill:#1f77b4;"/>
   </g>
   <g id="patch_50">
    <path clip-path="url(#p16ae725a04)" d="M 133.437273 307.584 
L 134.705455 307.584 
L 134.705455 307.0525 
L 133.437273 307.0525 
z
" style="fill:#1f77b4;"/>
   </g>
   <g id="patch_51">
    <path clip-path="url(#p16ae725a04)" d="M 134.705455 307.584 
L 135.973636 307.584 
L 135.973636 306.00327 
L 134.705455 306.00327 
z
" style="fill:#1f77b4;"/>
   </g>
   <g id="patch_52">
    <path clip-path="url(#p16ae725a04)" d="M 135.973636 307.584 
L 137.241818 307.584 
L 137.241818 306.424615 
L 135.973636 306.424615 
z
" style="fill:#1f77b4;"/>
   </g>
   <g id="patch_53">
    <path clip-path="url(#p16ae725a04)" d="M 137.241818 307.584 
L 138.51 307.584 
L 138.51 307.082793 
L 137.241818 307.082793 
z
" style="fill:#1f77b4;"/>
   </g>
   <g id="patch_54">
    <path clip-path="url(#p16ae725a04)" d="M 138.51 307.584 
L 139.778182 307.584 
L 139.778182 306.980899 
L 138.51 306.980899 
z
" style="fill:#1f77b4;"/>
   </g>
   <g id="patch_55">
    <path clip-path="url(#p16ae725a04)" d="M 139.778182 307.584 
L 141.046364 307.584 
L 141.046364 306.190534 
L 139.778182 306.190534 
z
" style="fill:#1f77b4;"/>
   </g>
   <g id="patch_56">
    <path clip-path="url(#p16ae725a04)" d="M 141.046364 307.584 
L 142.314545 307.584 
L 142.314545 307.539938 
L 141.046364 307.539938 
z
" style="fill:#1f77b4;"/>
   </g>
   <g id="patch_57">
    <path clip-path="url(#p16ae725a04)" d="M 142.314545 307.584 
L 143.582727 307.584 
L 143.582727 307.140625 
L 142.314545 307.140625 
z
" style="fill:#1f77b4;"/>
   </g>
   <g id="patch_58">
    <path clip-path="url(#p16ae725a04)" d="M 143.582727 307.584 
L 144.850909 307.584 
L 144.850909 306.319967 
L 143.582727 306.319967 
z
" style="fill:#1f77b4;"/>
   </g>
   <g id="patch_59">
    <path clip-path="url(#p16ae725a04)" d="M 144.850909 307.584 
L 146.119091 307.584 
L 146.119091 306.551293 
L 144.850909 306.551293 
z
" style="fill:#1f77b4;"/>
   </g>
   <g id="patch_60">
    <path clip-path="url(#p16ae725a04)" d="M 146.119091 307.584 
L 147.387273 307.584 
L 147.387273 307.234257 
L 146.119091 307.234257 
z
" style="fill:#1f77b4;"/>
   </g>
   <g id="patch_61">
    <path clip-path="url(#p16ae725a04)" d="M 147.387273 307.584 
L 148.655455 307.584 
L 148.655455 307.545446 
L 147.387273 307.545446 
z
" style="fill:#1f77b4;"/>
   </g>
   <g id="patch_62">
    <path clip-path="url(#p16ae725a04)" d="M 148.655455 307.584 
L 149.923636 307.584 
L 149.923636 307.228749 
L 148.655455 307.228749 
z
" style="fill:#1f77b4;"/>
   </g>
   <g id="patch_63">
    <path clip-path="url(#p16ae725a04)" d="M 149.923636 307.584 
L 151.191818 307.584 
L 151.191818 306.118933 
L 149.923636 306.118933 
z
" style="fill:#1f77b4;"/>
   </g>
   <g id="patch_64">
    <path clip-path="url(#p16ae725a04)" d="M 151.191818 307.584 
L 152.46 307.584 
L 152.46 305.879345 
L 151.191818 305.879345 
z
" style="fill:#1f77b4;"/>
   </g>
   <g id="patch_65">
    <path clip-path="url(#p16ae725a04)" d="M 152.46 307.584 
L 153.728182 307.584 
L 153.728182 306.00327 
L 152.46 306.00327 
z
" style="fill:#1f77b4;"/>
   </g>
   <g id="patch_66">
    <path clip-path="url(#p16ae725a04)" d="M 153.728182 307.584 
L 154.996364 307.584 
L 154.996364 307.137871 
L 153.728182 307.137871 
z
" style="fill:#1f77b4;"/>
   </g>
   <g id="patch_67">
    <path clip-path="url(#p16ae725a04)" d="M 154.996364 307.584 
L 156.264545 307.584 
L 156.264545 306.666956 
L 154.996364 306.666956 
z
" style="fill:#1f77b4;"/>
   </g>
   <g id="patch_68">
    <path clip-path="url(#p16ae725a04)" d="M 156.264545 307.584 
L 157.532727 307.584 
L 157.532727 304.601543 
L 156.264545 304.601543 
z
" style="fill:#1f77b4;"/>
   </g>
   <g id="patch_69">
    <path clip-path="url(#p16ae725a04)" d="M 157.532727 307.584 
L 158.800909 307.584 
L 158.800909 307.559215 
L 157.532727 307.559215 
z
" style="fill:#1f77b4;"/>
   </g>
   <g id="patch_70">
    <path clip-path="url(#p16ae725a04)" d="M 158.800909 307.584 
L 160.069091 307.584 
L 160.069091 305.01738 
L 158.800909 305.01738 
z
" style="fill:#1f77b4;"/>
   </g>
   <g id="patch_71">
    <path clip-path="url(#p16ae725a04)" d="M 160.069091 307.584 
L 161.337273 307.584 
L 161.337273 306.625648 
L 160.069091 306.625648 
z
" style="fill:#1f77b4;"/>
   </g>
   <g id="patch_72">
    <path clip-path="url(#p16ae725a04)" d="M 161.337273 307.584 
L 162.605455 307.584 
L 162.605455 306.303444 
L 161.337273 306.303444 
z
" style="fill:#1f77b4;"/>
   </g>
   <g id="patch_73">
    <path clip-path="url(#p16ae725a04)" d="M 162.605455 307.584 
L 163.873636 307.584 
L 163.873636 306.322721 
L 162.605455 306.322721 
z
" style="fill:#1f77b4;"/>
   </g>
   <g id="patch_74">
    <path clip-path="url(#p16ae725a04)" d="M 163.873636 307.584 
L 165.141818 307.584 
L 165.141818 306.259382 
L 163.873636 306.259382 
z
" style="fill:#1f77b4;"/>
   </g>
   <g id="patch_75">
    <path clip-path="url(#p16ae725a04)" d="M 165.141818 307.584 
L 166.41 307.584 
L 166.41 307.038731 
L 165.141818 307.038731 
z
" style="fill:#1f77b4;"/>
   </g>
   <g id="patch_76">
    <path clip-path="url(#p16ae725a04)" d="M 166.41 307.584 
L 167.678182 307.584 
L 167.678182 307.327889 
L 166.41 307.327889 
z
" style="fill:#1f77b4;"/>
   </g>
   <g id="patch_77">
    <path clip-path="url(#p16ae725a04)" d="M 167.678182 307.584 
L 168.946364 307.584 
L 168.946364 306.421861 
L 167.678182 306.421861 
z
" style="fill:#1f77b4;"/>
   </g>
   <g id="patch_78">
    <path clip-path="url(#p16ae725a04)" d="M 168.946364 307.584 
L 170.214545 307.584 
L 170.214545 307.198456 
L 168.946364 307.198456 
z
" style="fill:#1f77b4;"/>
   </g>
   <g id="patch_79">
    <path clip-path="url(#p16ae725a04)" d="M 170.214545 307.584 
L 171.482727 307.584 
L 171.482727 305.714112 
L 170.214545 305.714112 
z
" style="fill:#1f77b4;"/>
   </g>
   <g id="patch_80">
    <path clip-path="url(#p16ae725a04)" d="M 171.482727 307.584 
L 172.750909 307.584 
L 172.750909 307.179179 
L 171.482727 307.179179 
z
" style="fill:#1f77b4;"/>
   </g>
   <g id="patch_81">
    <path clip-path="url(#p16ae725a04)" d="M 172.750909 307.584 
L 174.019091 307.584 
L 174.019091 307.289334 
L 172.750909 307.289334 
z
" style="fill:#1f77b4;"/>
   </g>
   <g id="patch_82">
    <path clip-path="url(#p16ae725a04)" d="M 174.019091 307.584 
L 175.287273 307.584 
L 175.287273 306.912052 
L 174.019091 306.912052 
z
" style="fill:#1f77b4;"/>
   </g>
   <g id="patch_83">
    <path clip-path="url(#p16ae725a04)" d="M 175.287273 307.584 
L 176.555455 307.584 
L 176.555455 305.827022 
L 175.287273 305.827022 
z
" style="fill:#1f77b4;"/>
   </g>
   <g id="patch_84">
    <path clip-path="url(#p16ae725a04)" d="M 176.555455 307.584 
L 177.823636 307.584 
L 177.823636 306.903791 
L 176.555455 306.903791 
z
" style="fill:#1f77b4;"/>
   </g>
   <g id="patch_85">
    <path clip-path="url(#p16ae725a04)" d="M 177.823636 307.584 
L 179.091818 307.584 
L 179.091818 305.926161 
L 177.823636 305.926161 
z
" style="fill:#1f77b4;"/>
   </g>
   <g id="patch_86">
    <path clip-path="url(#p16ae725a04)" d="M 179.091818 307.584 
L 180.36 307.584 
L 180.36 305.705851 
L 179.091818 305.705851 
z
" style="fill:#1f77b4;"/>
   </g>
   <g id="patch_87">
    <path clip-path="url(#p16ae725a04)" d="M 180.36 307.584 
L 181.628182 307.584 
L 181.628182 307.10207 
L 180.36 307.10207 
z
" style="fill:#1f77b4;"/>
   </g>
   <g id="patch_88">
    <path clip-path="url(#p16ae725a04)" d="M 181.628182 307.584 
L 182.896364 307.584 
L 182.896364 305.835283 
L 181.628182 305.835283 
z
" style="fill:#1f77b4;"/>
   </g>
   <g id="patch_89">
    <path clip-path="url(#p16ae725a04)" d="M 182.896364 307.584 
L 184.164545 307.584 
L 184.164545 306.942345 
L 182.896364 306.942345 
z
" style="fill:#1f77b4;"/>
   </g>
   <g id="patch_90">
    <path clip-path="url(#p16ae725a04)" d="M 184.164545 307.584 
L 185.432727 307.584 
L 185.432727 307.242518 
L 184.164545 307.242518 
z
" style="fill:#1f77b4;"/>
   </g>
   <g id="patch_91">
    <path clip-path="url(#p16ae725a04)" d="M 185.432727 307.584 
L 186.700909 307.584 
L 186.700909 304.034243 
L 185.432727 304.034243 
z
" style="fill:#1f77b4;"/>
   </g>
   <g id="patch_92">
    <path clip-path="url(#p16ae725a04)" d="M 186.700909 307.584 
L 187.969091 307.584 
L 187.969091 306.73305 
L 186.700909 306.73305 
z
" style="fill:#1f77b4;"/>
   </g>
   <g id="patch_93">
    <path clip-path="url(#p16ae725a04)" d="M 187.969091 307.584 
L 189.237273 307.584 
L 189.237273 306.460415 
L 187.969091 306.460415 
z
" style="fill:#1f77b4;"/>
   </g>
   <g id="patch_94">
    <path clip-path="url(#p16ae725a04)" d="M 189.237273 307.584 
L 190.505455 307.584 
L 190.505455 306.697249 
L 189.237273 306.697249 
z
" style="fill:#1f77b4;"/>
   </g>
   <g id="patch_95">
    <path clip-path="url(#p16ae725a04)" d="M 190.505455 307.584 
L 191.773636 307.584 
L 191.773636 306.881759 
L 190.505455 306.881759 
z
" style="fill:#1f77b4;"/>
   </g>
   <g id="patch_96">
    <path clip-path="url(#p16ae725a04)" d="M 191.773636 307.584 
L 193.041818 307.584 
L 193.041818 306.617387 
L 191.773636 306.617387 
z
" style="fill:#1f77b4;"/>
   </g>
   <g id="patch_97">
    <path clip-path="url(#p16ae725a04)" d="M 193.041818 307.584 
L 194.31 307.584 
L 194.31 305.149566 
L 193.041818 305.149566 
z
" style="fill:#1f77b4;"/>
   </g>
   <g id="patch_98">
    <path clip-path="url(#p16ae725a04)" d="M 194.31 307.584 
L 195.578182 307.584 
L 195.578182 306.405337 
L 194.31 306.405337 
z
" style="fill:#1f77b4;"/>
   </g>
   <g id="patch_99">
    <path clip-path="url(#p16ae725a04)" d="M 195.578182 307.584 
L 196.846364 307.584 
L 196.846364 304.656621 
L 195.578182 304.656621 
z
" style="fill:#1f77b4;"/>
   </g>
   <g id="patch_100">
    <path clip-path="url(#p16ae725a04)" d="M 196.846364 307.584 
L 198.114545 307.584 
L 198.114545 306.994669 
L 196.846364 306.994669 
z
" style="fill:#1f77b4;"/>
   </g>
   <g id="patch_101">
    <path clip-path="url(#p16ae725a04)" d="M 198.114545 307.584 
L 199.382727 307.584 
L 199.382727 306.942345 
L 198.114545 306.942345 
z
" style="fill:#1f77b4;"/>
   </g>
   <g id="patch_102">
    <path clip-path="url(#p16ae725a04)" d="M 199.382727 307.584 
L 200.650909 307.584 
L 200.650909 306.989161 
L 199.382727 306.989161 
z
" style="fill:#1f77b4;"/>
   </g>
   <g id="patch_103">
    <path clip-path="url(#p16ae725a04)" d="M 200.650909 307.584 
L 201.919091 307.584 
L 201.919091 306.008778 
L 200.650909 306.008778 
z
" style="fill:#1f77b4;"/>
   </g>
   <g id="patch_104">
    <path clip-path="url(#p16ae725a04)" d="M 201.919091 307.584 
L 203.187273 307.584 
L 203.187273 306.691741 
L 201.919091 306.691741 
z
" style="fill:#1f77b4;"/>
   </g>
   <g id="patch_105">
    <path clip-path="url(#p16ae725a04)" d="M 203.187273 307.584 
L 204.455455 307.584 
L 204.455455 306.358521 
L 203.187273 306.358521 
z
" style="fill:#1f77b4;"/>
   </g>
   <g id="patch_106">
    <path clip-path="url(#p16ae725a04)" d="M 204.455455 307.584 
L 205.723636 307.584 
L 205.723636 306.110672 
L 204.455455 306.110672 
z
" style="fill:#1f77b4;"/>
   </g>
   <g id="patch_107">
    <path clip-path="url(#p16ae725a04)" d="M 205.723636 307.584 
L 206.991818 307.584 
L 206.991818 306.105164 
L 205.723636 306.105164 
z
" style="fill:#1f77b4;"/>
   </g>
   <g id="patch_108">
    <path clip-path="url(#p16ae725a04)" d="M 206.991818 307.584 
L 208.26 307.584 
L 208.26 306.369537 
L 206.991818 306.369537 
z
" style="fill:#1f77b4;"/>
   </g>
   <g id="patch_109">
    <path clip-path="url(#p16ae725a04)" d="M 208.26 307.584 
L 209.528182 307.584 
L 209.528182 306.86799 
L 208.26 306.86799 
z
" style="fill:#1f77b4;"/>
   </g>
   <g id="patch_110">
    <path clip-path="url(#p16ae725a04)" d="M 209.528182 307.584 
L 210.796364 307.584 
L 210.796364 299.37467 
L 209.528182 299.37467 
z
" style="fill:#1f77b4;"/>
   </g>
   <g id="patch_111">
    <path clip-path="url(#p16ae725a04)" d="M 210.796364 307.584 
L 212.064545 307.584 
L 212.064545 306.790881 
L 210.796364 306.790881 
z
" style="fill:#1f77b4;"/>
   </g>
   <g id="patch_112">
    <path clip-path="url(#p16ae725a04)" d="M 212.064545 307.584 
L 213.332727 307.584 
L 213.332727 304.193968 
L 212.064545 304.193968 
z
" style="fill:#1f77b4;"/>
   </g>
   <g id="patch_113">
    <path clip-path="url(#p16ae725a04)" d="M 213.332727 307.584 
L 214.600909 307.584 
L 214.600909 306.675218 
L 213.332727 306.675218 
z
" style="fill:#1f77b4;"/>
   </g>
   <g id="patch_114">
    <path clip-path="url(#p16ae725a04)" d="M 214.600909 307.584 
L 215.869091 307.584 
L 215.869091 305.606711 
L 214.600909 305.606711 
z
" style="fill:#1f77b4;"/>
   </g>
   <g id="patch_115">
    <path clip-path="url(#p16ae725a04)" d="M 215.869091 307.584 
L 217.137273 307.584 
L 217.137273 306.471431 
L 215.869091 306.471431 
z
" style="fill:#1f77b4;"/>
   </g>
   <g id="patch_116">
    <path clip-path="url(#p16ae725a04)" d="M 217.137273 307.584 
L 218.405455 307.584 
L 218.405455 306.83219 
L 217.137273 306.83219 
z
" style="fill:#1f77b4;"/>
   </g>
   <g id="patch_117">
    <path clip-path="url(#p16ae725a04)" d="M 218.405455 307.584 
L 219.673636 307.584 
L 219.673636 304.686913 
L 218.405455 304.686913 
z
" style="fill:#1f77b4;"/>
   </g>
   <g id="patch_118">
    <path clip-path="url(#p16ae725a04)" d="M 219.673636 307.584 
L 220.941818 307.584 
L 220.941818 304.706191 
L 219.673636 304.706191 
z
" style="fill:#1f77b4;"/>
   </g>
   <g id="patch_119">
    <path clip-path="url(#p16ae725a04)" d="M 220.941818 307.584 
L 222.21 307.584 
L 222.21 305.71962 
L 220.941818 305.71962 
z
" style="fill:#1f77b4;"/>
   </g>
   <g id="patch_120">
    <path clip-path="url(#p16ae725a04)" d="M 222.21 307.584 
L 223.478182 307.584 
L 223.478182 306.452153 
L 222.21 306.452153 
z
" style="fill:#1f77b4;"/>
   </g>
   <g id="patch_121">
    <path clip-path="url(#p16ae725a04)" d="M 223.478182 307.584 
L 224.746364 307.584 
L 224.746364 305.513079 
L 223.478182 305.513079 
z
" style="fill:#1f77b4;"/>
   </g>
   <g id="patch_122">
    <path clip-path="url(#p16ae725a04)" d="M 224.746364 307.584 
L 226.014545 307.584 
L 226.014545 305.939931 
L 224.746364 305.939931 
z
" style="fill:#1f77b4;"/>
   </g>
   <g id="patch_123">
    <path clip-path="url(#p16ae725a04)" d="M 226.014545 307.584 
L 227.282727 307.584 
L 227.282727 306.980899 
L 226.014545 306.980899 
z
" style="fill:#1f77b4;"/>
   </g>
   <g id="patch_124">
    <path clip-path="url(#p16ae725a04)" d="M 227.282727 307.584 
L 228.550909 307.584 
L 228.550909 306.617387 
L 227.282727 306.617387 
z
" style="fill:#1f77b4;"/>
   </g>
   <g id="patch_125">
    <path clip-path="url(#p16ae725a04)" d="M 228.550909 307.584 
L 229.819091 307.584 
L 229.819091 306.262135 
L 228.550909 306.262135 
z
" style="fill:#1f77b4;"/>
   </g>
   <g id="patch_126">
    <path clip-path="url(#p16ae725a04)" d="M 229.819091 307.584 
L 231.087273 307.584 
L 231.087273 307.242518 
L 229.819091 307.242518 
z
" style="fill:#1f77b4;"/>
   </g>
   <g id="patch_127">
    <path clip-path="url(#p16ae725a04)" d="M 231.087273 307.584 
L 232.355455 307.584 
L 232.355455 305.681066 
L 231.087273 305.681066 
z
" style="fill:#1f77b4;"/>
   </g>
   <g id="patch_128">
    <path clip-path="url(#p16ae725a04)" d="M 232.355455 307.584 
L 233.623636 307.584 
L 233.623636 307.275565 
L 232.355455 307.275565 
z
" style="fill:#1f77b4;"/>
   </g>
   <g id="patch_129">
    <path clip-path="url(#p16ae725a04)" d="M 233.623636 307.584 
L 234.891818 307.584 
L 234.891818 306.080379 
L 233.623636 306.080379 
z
" style="fill:#1f77b4;"/>
   </g>
   <g id="patch_130">
    <path clip-path="url(#p16ae725a04)" d="M 234.891818 307.584 
L 236.16 307.584 
L 236.16 306.171257 
L 234.891818 306.171257 
z
" style="fill:#1f77b4;"/>
   </g>
   <g id="patch_131">
    <path clip-path="url(#p16ae725a04)" d="M 236.16 307.584 
L 237.428182 307.584 
L 237.428182 306.402584 
L 236.16 306.402584 
z
" style="fill:#1f77b4;"/>
   </g>
   <g id="patch_132">
    <path clip-path="url(#p16ae725a04)" d="M 237.428182 307.584 
L 238.696364 307.584 
L 238.696364 305.207398 
L 237.428182 305.207398 
z
" style="fill:#1f77b4;"/>
   </g>
   <g id="patch_133">
    <path clip-path="url(#p16ae725a04)" d="M 238.696364 307.584 
L 239.964545 307.584 
L 239.964545 305.915146 
L 238.696364 305.915146 
z
" style="fill:#1f77b4;"/>
   </g>
   <g id="patch_134">
    <path clip-path="url(#p16ae725a04)" d="M 239.964545 307.584 
L 241.232727 307.584 
L 241.232727 305.9537 
L 239.964545 305.9537 
z
" style="fill:#1f77b4;"/>
   </g>
   <g id="patch_135">
    <path clip-path="url(#p16ae725a04)" d="M 241.232727 307.584 
L 242.500909 307.584 
L 242.500909 305.862822 
L 241.232727 305.862822 
z
" style="fill:#1f77b4;"/>
   </g>
   <g id="patch_136">
    <path clip-path="url(#p16ae725a04)" d="M 242.500909 307.584 
L 243.769091 307.584 
L 243.769091 305.389154 
L 242.500909 305.389154 
z
" style="fill:#1f77b4;"/>
   </g>
   <g id="patch_137">
    <path clip-path="url(#p16ae725a04)" d="M 243.769091 307.584 
L 245.037273 307.584 
L 245.037273 303.948872 
L 243.769091 303.948872 
z
" style="fill:#1f77b4;"/>
   </g>
   <g id="patch_138">
    <path clip-path="url(#p16ae725a04)" d="M 245.037273 307.584 
L 246.305455 307.584 
L 246.305455 305.893115 
L 245.037273 305.893115 
z
" style="fill:#1f77b4;"/>
   </g>
   <g id="patch_139">
    <path clip-path="url(#p16ae725a04)" d="M 246.305455 307.584 
L 247.573636 307.584 
L 247.573636 304.540958 
L 246.305455 304.540958 
z
" style="fill:#1f77b4;"/>
   </g>
   <g id="patch_140">
    <path clip-path="url(#p16ae725a04)" d="M 247.573636 307.584 
L 248.841818 307.584 
L 248.841818 306.058348 
L 247.573636 306.058348 
z
" style="fill:#1f77b4;"/>
   </g>
   <g id="patch_141">
    <path clip-path="url(#p16ae725a04)" d="M 248.841818 307.584 
L 250.11 307.584 
L 250.11 305.491048 
L 248.841818 305.491048 
z
" style="fill:#1f77b4;"/>
   </g>
   <g id="patch_142">
    <path clip-path="url(#p16ae725a04)" d="M 250.11 307.584 
L 251.378182 307.584 
L 251.378182 307.391228 
L 250.11 307.391228 
z
" style="fill:#1f77b4;"/>
   </g>
   <g id="patch_143">
    <path clip-path="url(#p16ae725a04)" d="M 251.378182 307.584 
L 252.646364 307.584 
L 252.646364 306.978145 
L 251.378182 306.978145 
z
" style="fill:#1f77b4;"/>
   </g>
   <g id="patch_144">
    <path clip-path="url(#p16ae725a04)" d="M 252.646364 307.584 
L 253.914545 307.584 
L 253.914545 306.851467 
L 252.646364 306.851467 
z
" style="fill:#1f77b4;"/>
   </g>
   <g id="patch_145">
    <path clip-path="url(#p16ae725a04)" d="M 253.914545 307.584 
L 255.182727 307.584 
L 255.182727 305.469017 
L 253.914545 305.469017 
z
" style="fill:#1f77b4;"/>
   </g>
   <g id="patch_146">
    <path clip-path="url(#p16ae725a04)" d="M 255.182727 307.584 
L 256.450909 307.584 
L 256.450909 305.796729 
L 255.182727 305.796729 
z
" style="fill:#1f77b4;"/>
   </g>
   <g id="patch_147">
    <path clip-path="url(#p16ae725a04)" d="M 256.450909 307.584 
L 257.719091 307.584 
L 257.719091 306.969884 
L 256.450909 306.969884 
z
" style="fill:#1f77b4;"/>
   </g>
   <g id="patch_148">
    <path clip-path="url(#p16ae725a04)" d="M 257.719091 307.584 
L 258.987273 307.584 
L 258.987273 305.63425 
L 257.719091 305.63425 
z
" style="fill:#1f77b4;"/>
   </g>
   <g id="patch_149">
    <path clip-path="url(#p16ae725a04)" d="M 258.987273 307.584 
L 260.255455 307.584 
L 260.255455 306.35026 
L 258.987273 306.35026 
z
" style="fill:#1f77b4;"/>
   </g>
   <g id="patch_150">
    <path clip-path="url(#p16ae725a04)" d="M 260.255455 307.584 
L 261.523636 307.584 
L 261.523636 305.529602 
L 260.255455 305.529602 
z
" style="fill:#1f77b4;"/>
   </g>
   <g id="patch_151">
    <path clip-path="url(#p16ae725a04)" d="M 261.523636 307.584 
L 262.791818 307.584 
L 262.791818 305.422201 
L 261.523636 305.422201 
z
" style="fill:#1f77b4;"/>
   </g>
   <g id="patch_152">
    <path clip-path="url(#p16ae725a04)" d="M 262.791818 307.584 
L 264.06 307.584 
L 264.06 306.537524 
L 262.791818 306.537524 
z
" style="fill:#1f77b4;"/>
   </g>
   <g id="patch_153">
    <path clip-path="url(#p16ae725a04)" d="M 264.06 307.584 
L 265.328182 307.584 
L 265.328182 307.198456 
L 264.06 307.198456 
z
" style="fill:#1f77b4;"/>
   </g>
   <g id="patch_154">
    <path clip-path="url(#p16ae725a04)" d="M 265.328182 307.584 
L 266.596364 307.584 
L 266.596364 306.898283 
L 265.328182 306.898283 
z
" style="fill:#1f77b4;"/>
   </g>
   <g id="patch_155">
    <path clip-path="url(#p16ae725a04)" d="M 266.596364 307.584 
L 267.864545 307.584 
L 267.864545 306.595355 
L 266.596364 306.595355 
z
" style="fill:#1f77b4;"/>
   </g>
   <g id="patch_156">
    <path clip-path="url(#p16ae725a04)" d="M 267.864545 307.584 
L 269.132727 307.584 
L 269.132727 307.416013 
L 267.864545 307.416013 
z
" style="fill:#1f77b4;"/>
   </g>
   <g id="patch_157">
    <path clip-path="url(#p16ae725a04)" d="M 269.132727 307.584 
L 270.400909 307.584 
L 270.400909 306.267643 
L 269.132727 306.267643 
z
" style="fill:#1f77b4;"/>
   </g>
   <g id="patch_158">
    <path clip-path="url(#p16ae725a04)" d="M 270.400909 307.584 
L 271.669091 307.584 
L 271.669091 306.677972 
L 270.400909 306.677972 
z
" style="fill:#1f77b4;"/>
   </g>
   <g id="patch_159">
    <path clip-path="url(#p16ae725a04)" d="M 271.669091 307.584 
L 272.937273 307.584 
L 272.937273 306.041825 
L 271.669091 306.041825 
z
" style="fill:#1f77b4;"/>
   </g>
   <g id="patch_160">
    <path clip-path="url(#p16ae725a04)" d="M 272.937273 307.584 
L 274.205455 307.584 
L 274.205455 304.898963 
L 272.937273 304.898963 
z
" style="fill:#1f77b4;"/>
   </g>
   <g id="patch_161">
    <path clip-path="url(#p16ae725a04)" d="M 274.205455 307.584 
L 275.473636 307.584 
L 275.473636 301.161941 
L 274.205455 301.161941 
z
" style="fill:#1f77b4;"/>
   </g>
   <g id="patch_162">
    <path clip-path="url(#p16ae725a04)" d="M 275.473636 307.584 
L 276.741818 307.584 
L 276.741818 306.573324 
L 275.473636 306.573324 
z
" style="fill:#1f77b4;"/>
   </g>
   <g id="patch_163">
    <path clip-path="url(#p16ae725a04)" d="M 276.741818 307.584 
L 278.01 307.584 
L 278.01 307.396736 
L 276.741818 307.396736 
z
" style="fill:#1f77b4;"/>
   </g>
   <g id="patch_164">
    <path clip-path="url(#p16ae725a04)" d="M 278.01 307.584 
L 279.278182 307.584 
L 279.278182 305.736143 
L 278.01 305.736143 
z
" style="fill:#1f77b4;"/>
   </g>
   <g id="patch_165">
    <path clip-path="url(#p16ae725a04)" d="M 279.278182 307.584 
L 280.546364 307.584 
L 280.546364 306.771604 
L 279.278182 306.771604 
z
" style="fill:#1f77b4;"/>
   </g>
   <g id="patch_166">
    <path clip-path="url(#p16ae725a04)" d="M 280.546364 307.584 
L 281.814545 307.584 
L 281.814545 306.047332 
L 280.546364 306.047332 
z
" style="fill:#1f77b4;"/>
   </g>
   <g id="patch_167">
    <path clip-path="url(#p16ae725a04)" d="M 281.814545 307.584 
L 283.082727 307.584 
L 283.082727 305.716866 
L 281.814545 305.716866 
z
" style="fill:#1f77b4;"/>
   </g>
   <g id="patch_168">
    <path clip-path="url(#p16ae725a04)" d="M 283.082727 307.584 
L 284.350909 307.584 
L 284.350909 304.425294 
L 283.082727 304.425294 
z
" style="fill:#1f77b4;"/>
   </g>
   <g id="patch_169">
    <path clip-path="url(#p16ae725a04)" d="M 284.350909 307.584 
L 285.619091 307.584 
L 285.619091 306.708265 
L 284.350909 306.708265 
z
" style="fill:#1f77b4;"/>
   </g>
   <g id="patch_170">
    <path clip-path="url(#p16ae725a04)" d="M 285.619091 307.584 
L 286.887273 307.584 
L 286.887273 306.738557 
L 285.619091 306.738557 
z
" style="fill:#1f77b4;"/>
   </g>
   <g id="patch_171">
    <path clip-path="url(#p16ae725a04)" d="M 286.887273 307.584 
L 288.155455 307.584 
L 288.155455 305.044918 
L 286.887273 305.044918 
z
" style="fill:#1f77b4;"/>
   </g>
   <g id="patch_172">
    <path clip-path="url(#p16ae725a04)" d="M 288.155455 307.584 
L 289.423636 307.584 
L 289.423636 306.256628 
L 288.155455 306.256628 
z
" style="fill:#1f77b4;"/>
   </g>
   <g id="patch_173">
    <path clip-path="url(#p16ae725a04)" d="M 289.423636 307.584 
L 290.691818 307.584 
L 290.691818 307.270057 
L 289.423636 307.270057 
z
" style="fill:#1f77b4;"/>
   </g>
   <g id="patch_174">
    <path clip-path="url(#p16ae725a04)" d="M 290.691818 307.584 
L 291.96 307.584 
L 291.96 299.245237 
L 290.691818 299.245237 
z
" style="fill:#1f77b4;"/>
   </g>
   <g id="patch_175">
    <path clip-path="url(#p16ae725a04)" d="M 291.96 307.584 
L 293.228182 307.584 
L 293.228182 306.110672 
L 291.96 306.110672 
z
" style="fill:#1f77b4;"/>
   </g>
   <g id="patch_176">
    <path clip-path="url(#p16ae725a04)" d="M 293.228182 307.584 
L 294.496364 307.584 
L 294.496364 303.345772 
L 293.228182 303.345772 
z
" style="fill:#1f77b4;"/>
   </g>
   <g id="patch_177">
    <path clip-path="url(#p16ae725a04)" d="M 294.496364 307.584 
L 295.764545 307.584 
L 295.764545 305.63425 
L 294.496364 305.63425 
z
" style="fill:#1f77b4;"/>
   </g>
   <g id="patch_178">
    <path clip-path="url(#p16ae725a04)" d="M 295.764545 307.584 
L 297.032727 307.584 
L 297.032727 305.199136 
L 295.764545 305.199136 
z
" style="fill:#1f77b4;"/>
   </g>
   <g id="patch_179">
    <path clip-path="url(#p16ae725a04)" d="M 297.032727 307.584 
L 298.300909 307.584 
L 298.300909 305.981239 
L 297.032727 305.981239 
z
" style="fill:#1f77b4;"/>
   </g>
   <g id="patch_180">
    <path clip-path="url(#p16ae725a04)" d="M 298.300909 307.584 
L 299.569091 307.584 
L 299.569091 302.748179 
L 298.300909 302.748179 
z
" style="fill:#1f77b4;"/>
   </g>
   <g id="patch_181">
    <path clip-path="url(#p16ae725a04)" d="M 299.569091 307.584 
L 300.837273 307.584 
L 300.837273 305.166089 
L 299.569091 305.166089 
z
" style="fill:#1f77b4;"/>
   </g>
   <g id="patch_182">
    <path clip-path="url(#p16ae725a04)" d="M 300.837273 307.584 
L 302.105455 307.584 
L 302.105455 306.746819 
L 300.837273 306.746819 
z
" style="fill:#1f77b4;"/>
   </g>
   <g id="patch_183">
    <path clip-path="url(#p16ae725a04)" d="M 302.105455 307.584 
L 303.373636 307.584 
L 303.373636 306.83219 
L 302.105455 306.83219 
z
" style="fill:#1f77b4;"/>
   </g>
   <g id="patch_184">
    <path clip-path="url(#p16ae725a04)" d="M 303.373636 307.584 
L 304.641818 307.584 
L 304.641818 306.752327 
L 303.373636 306.752327 
z
" style="fill:#1f77b4;"/>
   </g>
   <g id="patch_185">
    <path clip-path="url(#p16ae725a04)" d="M 304.641818 307.584 
L 305.91 307.584 
L 305.91 304.857654 
L 304.641818 304.857654 
z
" style="fill:#1f77b4;"/>
   </g>
   <g id="patch_186">
    <path clip-path="url(#p16ae725a04)" d="M 305.91 307.584 
L 307.178182 307.584 
L 307.178182 305.446986 
L 305.91 305.446986 
z
" style="fill:#1f77b4;"/>
   </g>
   <g id="patch_187">
    <path clip-path="url(#p16ae725a04)" d="M 307.178182 307.584 
L 308.446364 307.584 
L 308.446364 305.9537 
L 307.178182 305.9537 
z
" style="fill:#1f77b4;"/>
   </g>
   <g id="patch_188">
    <path clip-path="url(#p16ae725a04)" d="M 308.446364 307.584 
L 309.714545 307.584 
L 309.714545 306.019794 
L 308.446364 306.019794 
z
" style="fill:#1f77b4;"/>
   </g>
   <g id="patch_189">
    <path clip-path="url(#p16ae725a04)" d="M 309.714545 307.584 
L 310.982727 307.584 
L 310.982727 302.112031 
L 309.714545 302.112031 
z
" style="fill:#1f77b4;"/>
   </g>
   <g id="patch_190">
    <path clip-path="url(#p16ae725a04)" d="M 310.982727 307.584 
L 312.250909 307.584 
L 312.250909 305.788467 
L 310.982727 305.788467 
z
" style="fill:#1f77b4;"/>
   </g>
   <g id="patch_191">
    <path clip-path="url(#p16ae725a04)" d="M 312.250909 307.584 
L 313.519091 307.584 
L 313.519091 303.665222 
L 312.250909 303.665222 
z
" style="fill:#1f77b4;"/>
   </g>
   <g id="patch_192">
    <path clip-path="url(#p16ae725a04)" d="M 313.519091 307.584 
L 314.787273 307.584 
L 314.787273 306.314459 
L 313.519091 306.314459 
z
" style="fill:#1f77b4;"/>
   </g>
   <g id="patch_193">
    <path clip-path="url(#p16ae725a04)" d="M 314.787273 307.584 
L 316.055455 307.584 
L 316.055455 304.849393 
L 314.787273 304.849393 
z
" style="fill:#1f77b4;"/>
   </g>
   <g id="patch_194">
    <path clip-path="url(#p16ae725a04)" d="M 316.055455 307.584 
L 317.323636 307.584 
L 317.323636 306.127195 
L 316.055455 306.127195 
z
" style="fill:#1f77b4;"/>
   </g>
   <g id="patch_195">
    <path clip-path="url(#p16ae725a04)" d="M 317.323636 307.584 
L 318.591818 307.584 
L 318.591818 306.366783 
L 317.323636 306.366783 
z
" style="fill:#1f77b4;"/>
   </g>
   <g id="patch_196">
    <path clip-path="url(#p16ae725a04)" d="M 318.591818 307.584 
L 319.86 307.584 
L 319.86 306.636664 
L 318.591818 306.636664 
z
" style="fill:#1f77b4;"/>
   </g>
   <g id="patch_197">
    <path clip-path="url(#p16ae725a04)" d="M 319.86 307.584 
L 321.128182 307.584 
L 321.128182 305.312045 
L 319.86 305.312045 
z
" style="fill:#1f77b4;"/>
   </g>
   <g id="patch_198">
    <path clip-path="url(#p16ae725a04)" d="M 321.128182 307.584 
L 322.396364 307.584 
L 322.396364 306.105164 
L 321.128182 306.105164 
z
" style="fill:#1f77b4;"/>
   </g>
   <g id="patch_199">
    <path clip-path="url(#p16ae725a04)" d="M 322.396364 307.584 
L 323.664545 307.584 
L 323.664545 302.012891 
L 322.396364 302.012891 
z
" style="fill:#1f77b4;"/>
   </g>
   <g id="patch_200">
    <path clip-path="url(#p16ae725a04)" d="M 323.664545 307.584 
L 324.932727 307.584 
L 324.932727 304.978825 
L 323.664545 304.978825 
z
" style="fill:#1f77b4;"/>
   </g>
   <g id="patch_201">
    <path clip-path="url(#p16ae725a04)" d="M 324.932727 307.584 
L 326.200909 307.584 
L 326.200909 306.63391 
L 324.932727 306.63391 
z
" style="fill:#1f77b4;"/>
   </g>
   <g id="patch_202">
    <path clip-path="url(#p16ae725a04)" d="M 326.200909 307.584 
L 327.469091 307.584 
L 327.469091 304.761268 
L 326.200909 304.761268 
z
" style="fill:#1f77b4;"/>
   </g>
   <g id="patch_203">
    <path clip-path="url(#p16ae725a04)" d="M 327.469091 307.584 
L 328.737273 307.584 
L 328.737273 305.741651 
L 327.469091 305.741651 
z
" style="fill:#1f77b4;"/>
   </g>
   <g id="patch_204">
    <path clip-path="url(#p16ae725a04)" d="M 328.737273 307.584 
L 330.005455 307.584 
L 330.005455 305.906884 
L 328.737273 305.906884 
z
" style="fill:#1f77b4;"/>
   </g>
   <g id="patch_205">
    <path clip-path="url(#p16ae725a04)" d="M 330.005455 307.584 
L 331.273636 307.584 
L 331.273636 304.458341 
L 330.005455 304.458341 
z
" style="fill:#1f77b4;"/>
   </g>
   <g id="patch_206">
    <path clip-path="url(#p16ae725a04)" d="M 331.273636 307.584 
L 332.541818 307.584 
L 332.541818 303.367803 
L 331.273636 303.367803 
z
" style="fill:#1f77b4;"/>
   </g>
   <g id="patch_207">
    <path clip-path="url(#p16ae725a04)" d="M 332.541818 307.584 
L 333.81 307.584 
L 333.81 303.398095 
L 332.541818 303.398095 
z
" style="fill:#1f77b4;"/>
   </g>
   <g id="patch_208">
    <path clip-path="url(#p16ae725a04)" d="M 333.81 307.584 
L 335.078182 307.584 
L 335.078182 305.144058 
L 333.81 305.144058 
z
" style="fill:#1f77b4;"/>
   </g>
   <g id="patch_209">
    <path clip-path="url(#p16ae725a04)" d="M 335.078182 307.584 
L 336.346364 307.584 
L 336.346364 305.860068 
L 335.078182 305.860068 
z
" style="fill:#1f77b4;"/>
   </g>
   <g id="patch_210">
    <path clip-path="url(#p16ae725a04)" d="M 336.346364 307.584 
L 337.614545 307.584 
L 337.614545 305.948193 
L 336.346364 305.948193 
z
" style="fill:#1f77b4;"/>
   </g>
   <g id="patch_211">
    <path clip-path="url(#p16ae725a04)" d="M 337.614545 307.584 
L 338.882727 307.584 
L 338.882727 306.00327 
L 337.614545 306.00327 
z
" style="fill:#1f77b4;"/>
   </g>
   <g id="patch_212">
    <path clip-path="url(#p16ae725a04)" d="M 338.882727 307.584 
L 340.150909 307.584 
L 340.150909 305.832529 
L 338.882727 305.832529 
z
" style="fill:#1f77b4;"/>
   </g>
   <g id="patch_213">
    <path clip-path="url(#p16ae725a04)" d="M 340.150909 307.584 
L 341.419091 307.584 
L 341.419091 304.191214 
L 340.150909 304.191214 
z
" style="fill:#1f77b4;"/>
   </g>
   <g id="patch_214">
    <path clip-path="url(#p16ae725a04)" d="M 341.419091 307.584 
L 342.687273 307.584 
L 342.687273 304.565742 
L 341.419091 304.565742 
z
" style="fill:#1f77b4;"/>
   </g>
   <g id="patch_215">
    <path clip-path="url(#p16ae725a04)" d="M 342.687273 307.584 
L 343.955455 307.584 
L 343.955455 305.196382 
L 342.687273 305.196382 
z
" style="fill:#1f77b4;"/>
   </g>
   <g id="patch_216">
    <path clip-path="url(#p16ae725a04)" d="M 343.955455 307.584 
L 345.223636 307.584 
L 345.223636 304.502403 
L 343.955455 304.502403 
z
" style="fill:#1f77b4;"/>
   </g>
   <g id="patch_217">
    <path clip-path="url(#p16ae725a04)" d="M 345.223636 307.584 
L 346.491818 307.584 
L 346.491818 303.794655 
L 345.223636 303.794655 
z
" style="fill:#1f77b4;"/>
   </g>
   <g id="patch_218">
    <path clip-path="url(#p16ae725a04)" d="M 346.491818 307.584 
L 347.76 307.584 
L 347.76 304.224261 
L 346.491818 304.224261 
z
" style="fill:#1f77b4;"/>
   </g>
   <g id="patch_219">
    <path clip-path="url(#p16ae725a04)" d="M 347.76 307.584 
L 349.028182 307.584 
L 349.028182 305.411185 
L 347.76 305.411185 
z
" style="fill:#1f77b4;"/>
   </g>
   <g id="patch_220">
    <path clip-path="url(#p16ae725a04)" d="M 349.028182 307.584 
L 350.296364 307.584 
L 350.296364 302.285526 
L 349.028182 302.285526 
z
" style="fill:#1f77b4;"/>
   </g>
   <g id="patch_221">
    <path clip-path="url(#p16ae725a04)" d="M 350.296364 307.584 
L 351.564545 307.584 
L 351.564545 304.934763 
L 350.296364 304.934763 
z
" style="fill:#1f77b4;"/>
   </g>
   <g id="patch_222">
    <path clip-path="url(#p16ae725a04)" d="M 351.564545 307.584 
L 352.832727 307.584 
L 352.832727 304.841131 
L 351.564545 304.841131 
z
" style="fill:#1f77b4;"/>
   </g>
   <g id="patch_223">
    <path clip-path="url(#p16ae725a04)" d="M 352.832727 307.584 
L 354.100909 307.584 
L 354.100909 306.537524 
L 352.832727 306.537524 
z
" style="fill:#1f77b4;"/>
   </g>
   <g id="patch_224">
    <path clip-path="url(#p16ae725a04)" d="M 354.100909 307.584 
L 355.369091 307.584 
L 355.369091 304.799823 
L 354.100909 304.799823 
z
" style="fill:#1f77b4;"/>
   </g>
   <g id="patch_225">
    <path clip-path="url(#p16ae725a04)" d="M 355.369091 307.584 
L 356.637273 307.584 
L 356.637273 304.601543 
L 355.369091 304.601543 
z
" style="fill:#1f77b4;"/>
   </g>
   <g id="patch_226">
    <path clip-path="url(#p16ae725a04)" d="M 356.637273 307.584 
L 357.905455 307.584 
L 357.905455 304.204984 
L 356.637273 304.204984 
z
" style="fill:#1f77b4;"/>
   </g>
   <g id="patch_227">
    <path clip-path="url(#p16ae725a04)" d="M 357.905455 307.584 
L 359.173636 307.584 
L 359.173636 302.076231 
L 357.905455 302.076231 
z
" style="fill:#1f77b4;"/>
   </g>
   <g id="patch_228">
    <path clip-path="url(#p16ae725a04)" d="M 359.173636 307.584 
L 360.441818 307.584 
L 360.441818 306.278659 
L 359.173636 306.278659 
z
" style="fill:#1f77b4;"/>
   </g>
   <g id="patch_229">
    <path clip-path="url(#p16ae725a04)" d="M 360.441818 307.584 
L 361.71 307.584 
L 361.71 305.48554 
L 360.441818 305.48554 
z
" style="fill:#1f77b4;"/>
   </g>
   <g id="patch_230">
    <path clip-path="url(#p16ae725a04)" d="M 361.71 307.584 
L 362.978182 307.584 
L 362.978182 306.28692 
L 361.71 306.28692 
z
" style="fill:#1f77b4;"/>
   </g>
   <g id="patch_231">
    <path clip-path="url(#p16ae725a04)" d="M 362.978182 307.584 
L 364.246364 307.584 
L 364.246364 305.259721 
L 362.978182 305.259721 
z
" style="fill:#1f77b4;"/>
   </g>
   <g id="patch_232">
    <path clip-path="url(#p16ae725a04)" d="M 364.246364 307.584 
L 365.514545 307.584 
L 365.514545 305.223921 
L 364.246364 305.223921 
z
" style="fill:#1f77b4;"/>
   </g>
   <g id="patch_233">
    <path clip-path="url(#p16ae725a04)" d="M 365.514545 307.584 
L 366.782727 307.584 
L 366.782727 306.014286 
L 365.514545 306.014286 
z
" style="fill:#1f77b4;"/>
   </g>
   <g id="patch_234">
    <path clip-path="url(#p16ae725a04)" d="M 366.782727 307.584 
L 368.050909 307.584 
L 368.050909 305.23769 
L 366.782727 305.23769 
z
" style="fill:#1f77b4;"/>
   </g>
   <g id="patch_235">
    <path clip-path="url(#p16ae725a04)" d="M 368.050909 307.584 
L 369.319091 307.584 
L 369.319091 302.717886 
L 368.050909 302.717886 
z
" style="fill:#1f77b4;"/>
   </g>
   <g id="patch_236">
    <path clip-path="url(#p16ae725a04)" d="M 369.319091 307.584 
L 370.587273 307.584 
L 370.587273 304.923747 
L 369.319091 304.923747 
z
" style="fill:#1f77b4;"/>
   </g>
   <g id="patch_237">
    <path clip-path="url(#p16ae725a04)" d="M 370.587273 307.584 
L 371.855455 307.584 
L 371.855455 307.069024 
L 370.587273 307.069024 
z
" style="fill:#1f77b4;"/>
   </g>
   <g id="patch_238">
    <path clip-path="url(#p16ae725a04)" d="M 371.855455 307.584 
L 373.123636 307.584 
L 373.123636 254.095299 
L 371.855455 254.095299 
z
" style="fill:#1f77b4;"/>
   </g>
   <g id="patch_239">
    <path clip-path="url(#p16ae725a04)" d="M 373.123636 307.584 
L 374.391818 307.584 
L 374.391818 304.739237 
L 373.123636 304.739237 
z
" style="fill:#1f77b4;"/>
   </g>
   <g id="patch_240">
    <path clip-path="url(#p16ae725a04)" d="M 374.391818 307.584 
L 375.66 307.584 
L 375.66 303.687253 
L 374.391818 303.687253 
z
" style="fill:#1f77b4;"/>
   </g>
   <g id="patch_241">
    <path clip-path="url(#p16ae725a04)" d="M 375.66 307.584 
L 376.928182 307.584 
L 376.928182 305.73339 
L 375.66 305.73339 
z
" style="fill:#1f77b4;"/>
   </g>
   <g id="patch_242">
    <path clip-path="url(#p16ae725a04)" d="M 376.928182 307.584 
L 378.196364 307.584 
L 378.196364 306.355767 
L 376.928182 306.355767 
z
" style="fill:#1f77b4;"/>
   </g>
   <g id="patch_243">
    <path clip-path="url(#p16ae725a04)" d="M 378.196364 307.584 
L 379.464545 307.584 
L 379.464545 304.80533 
L 378.196364 304.80533 
z
" style="fill:#1f77b4;"/>
   </g>
   <g id="patch_244">
    <path clip-path="url(#p16ae725a04)" d="M 379.464545 307.584 
L 380.732727 307.584 
L 380.732727 302.505837 
L 379.464545 302.505837 
z
" style="fill:#1f77b4;"/>
   </g>
   <g id="patch_245">
    <path clip-path="url(#p16ae725a04)" d="M 380.732727 307.584 
L 382.000909 307.584 
L 382.000909 305.565403 
L 380.732727 305.565403 
z
" style="fill:#1f77b4;"/>
   </g>
   <g id="patch_246">
    <path clip-path="url(#p16ae725a04)" d="M 382.000909 307.584 
L 383.269091 307.584 
L 383.269091 305.127535 
L 382.000909 305.127535 
z
" style="fill:#1f77b4;"/>
   </g>
   <g id="patch_247">
    <path clip-path="url(#p16ae725a04)" d="M 383.269091 307.584 
L 384.537273 307.584 
L 384.537273 305.383646 
L 383.269091 305.383646 
z
" style="fill:#1f77b4;"/>
   </g>
   <g id="patch_248">
    <path clip-path="url(#p16ae725a04)" d="M 384.537273 307.584 
L 385.805455 307.584 
L 385.805455 305.777452 
L 384.537273 305.777452 
z
" style="fill:#1f77b4;"/>
   </g>
   <g id="patch_249">
    <path clip-path="url(#p16ae725a04)" d="M 385.805455 307.584 
L 387.073636 307.584 
L 387.073636 304.538204 
L 385.805455 304.538204 
z
" style="fill:#1f77b4;"/>
   </g>
   <g id="patch_250">
    <path clip-path="url(#p16ae725a04)" d="M 387.073636 307.584 
L 388.341818 307.584 
L 388.341818 304.370217 
L 387.073636 304.370217 
z
" style="fill:#1f77b4;"/>
   </g>
   <g id="patch_251">
    <path clip-path="url(#p16ae725a04)" d="M 388.341818 307.584 
L 389.61 307.584 
L 389.61 305.471771 
L 388.341818 305.471771 
z
" style="fill:#1f77b4;"/>
   </g>
   <g id="patch_252">
    <path clip-path="url(#p16ae725a04)" d="M 389.61 307.584 
L 390.878182 307.584 
L 390.878182 305.375385 
L 389.61 305.375385 
z
" style="fill:#1f77b4;"/>
   </g>
   <g id="patch_253">
    <path clip-path="url(#p16ae725a04)" d="M 390.878182 307.584 
L 392.146364 307.584 
L 392.146364 305.061442 
L 390.878182 305.061442 
z
" style="fill:#1f77b4;"/>
   </g>
   <g id="patch_254">
    <path clip-path="url(#p16ae725a04)" d="M 392.146364 307.584 
L 393.414545 307.584 
L 393.414545 303.47245 
L 392.146364 303.47245 
z
" style="fill:#1f77b4;"/>
   </g>
   <g id="patch_255">
    <path clip-path="url(#p16ae725a04)" d="M 393.414545 307.584 
L 394.682727 307.584 
L 394.682727 305.422201 
L 393.414545 305.422201 
z
" style="fill:#1f77b4;"/>
   </g>
   <g id="patch_256">
    <path clip-path="url(#p16ae725a04)" d="M 394.682727 307.584 
L 395.950909 307.584 
L 395.950909 300.751612 
L 394.682727 300.751612 
z
" style="fill:#1f77b4;"/>
   </g>
   <g id="patch_257">
    <path clip-path="url(#p16ae725a04)" d="M 395.950909 307.584 
L 397.219091 307.584 
L 397.219091 303.392588 
L 395.950909 303.392588 
z
" style="fill:#1f77b4;"/>
   </g>
   <g id="patch_258">
    <path clip-path="url(#p16ae725a04)" d="M 397.219091 307.584 
L 398.487273 307.584 
L 398.487273 54.144 
L 397.219091 54.144 
z
" style="fill:#1f77b4;"/>
   </g>
   <g id="matplotlib.axis_1">
    <g id="xtick_1">
     <g id="line2d_1">
      <defs>
       <path d="M 0 0 
L 0 3.5 
" id="m48c747a8c2" style="stroke:#000000;stroke-width:0.8;"/>
      </defs>
      <g>
       <use style="stroke:#000000;stroke-width:0.8;" x="73.832727" xlink:href="#m48c747a8c2" y="307.584"/>
      </g>
     </g>
     <g id="text_1">
      <!-- 0 -->
      <defs>
       <path d="M 31.78125 66.40625 
Q 24.171875 66.40625 20.328125 58.90625 
Q 16.5 51.421875 16.5 36.375 
Q 16.5 21.390625 20.328125 13.890625 
Q 24.171875 6.390625 31.78125 6.390625 
Q 39.453125 6.390625 43.28125 13.890625 
Q 47.125 21.390625 47.125 36.375 
Q 47.125 51.421875 43.28125 58.90625 
Q 39.453125 66.40625 31.78125 66.40625 
z
M 31.78125 74.21875 
Q 44.046875 74.21875 50.515625 64.515625 
Q 56.984375 54.828125 56.984375 36.375 
Q 56.984375 17.96875 50.515625 8.265625 
Q 44.046875 -1.421875 31.78125 -1.421875 
Q 19.53125 -1.421875 13.0625 8.265625 
Q 6.59375 17.96875 6.59375 36.375 
Q 6.59375 54.828125 13.0625 64.515625 
Q 19.53125 74.21875 31.78125 74.21875 
z
" id="DejaVuSans-48"/>
      </defs>
      <g transform="translate(70.651477 322.182437)scale(0.1 -0.1)">
       <use xlink:href="#DejaVuSans-48"/>
      </g>
     </g>
    </g>
    <g id="xtick_2">
     <g id="line2d_2">
      <g>
       <use style="stroke:#000000;stroke-width:0.8;" x="137.490481" xlink:href="#m48c747a8c2" y="307.584"/>
      </g>
     </g>
     <g id="text_2">
      <!-- 50 -->
      <defs>
       <path d="M 10.796875 72.90625 
L 49.515625 72.90625 
L 49.515625 64.59375 
L 19.828125 64.59375 
L 19.828125 46.734375 
Q 21.96875 47.46875 24.109375 47.828125 
Q 26.265625 48.1875 28.421875 48.1875 
Q 40.625 48.1875 47.75 41.5 
Q 54.890625 34.8125 54.890625 23.390625 
Q 54.890625 11.625 47.5625 5.09375 
Q 40.234375 -1.421875 26.90625 -1.421875 
Q 22.3125 -1.421875 17.546875 -0.640625 
Q 12.796875 0.140625 7.71875 1.703125 
L 7.71875 11.625 
Q 12.109375 9.234375 16.796875 8.0625 
Q 21.484375 6.890625 26.703125 6.890625 
Q 35.15625 6.890625 40.078125 11.328125 
Q 45.015625 15.765625 45.015625 23.390625 
Q 45.015625 31 40.078125 35.4375 
Q 35.15625 39.890625 26.703125 39.890625 
Q 22.75 39.890625 18.8125 39.015625 
Q 14.890625 38.140625 10.796875 36.28125 
z
" id="DejaVuSans-53"/>
      </defs>
      <g transform="translate(131.127981 322.182437)scale(0.1 -0.1)">
       <use xlink:href="#DejaVuSans-53"/>
       <use x="63.623047" xlink:href="#DejaVuSans-48"/>
      </g>
     </g>
    </g>
    <g id="xtick_3">
     <g id="line2d_3">
      <g>
       <use style="stroke:#000000;stroke-width:0.8;" x="201.148235" xlink:href="#m48c747a8c2" y="307.584"/>
      </g>
     </g>
     <g id="text_3">
      <!-- 100 -->
      <defs>
       <path d="M 12.40625 8.296875 
L 28.515625 8.296875 
L 28.515625 63.921875 
L 10.984375 60.40625 
L 10.984375 69.390625 
L 28.421875 72.90625 
L 38.28125 72.90625 
L 38.28125 8.296875 
L 54.390625 8.296875 
L 54.390625 0 
L 12.40625 0 
z
" id="DejaVuSans-49"/>
      </defs>
      <g transform="translate(191.604485 322.182437)scale(0.1 -0.1)">
       <use xlink:href="#DejaVuSans-49"/>
       <use x="63.623047" xlink:href="#DejaVuSans-48"/>
       <use x="127.246094" xlink:href="#DejaVuSans-48"/>
      </g>
     </g>
    </g>
    <g id="xtick_4">
     <g id="line2d_4">
      <g>
       <use style="stroke:#000000;stroke-width:0.8;" x="264.805989" xlink:href="#m48c747a8c2" y="307.584"/>
      </g>
     </g>
     <g id="text_4">
      <!-- 150 -->
      <g transform="translate(255.262239 322.182437)scale(0.1 -0.1)">
       <use xlink:href="#DejaVuSans-49"/>
       <use x="63.623047" xlink:href="#DejaVuSans-53"/>
       <use x="127.246094" xlink:href="#DejaVuSans-48"/>
      </g>
     </g>
    </g>
    <g id="xtick_5">
     <g id="line2d_5">
      <g>
       <use style="stroke:#000000;stroke-width:0.8;" x="328.463743" xlink:href="#m48c747a8c2" y="307.584"/>
      </g>
     </g>
     <g id="text_5">
      <!-- 200 -->
      <defs>
       <path d="M 19.1875 8.296875 
L 53.609375 8.296875 
L 53.609375 0 
L 7.328125 0 
L 7.328125 8.296875 
Q 12.9375 14.109375 22.625 23.890625 
Q 32.328125 33.6875 34.8125 36.53125 
Q 39.546875 41.84375 41.421875 45.53125 
Q 43.3125 49.21875 43.3125 52.78125 
Q 43.3125 58.59375 39.234375 62.25 
Q 35.15625 65.921875 28.609375 65.921875 
Q 23.96875 65.921875 18.8125 64.3125 
Q 13.671875 62.703125 7.8125 59.421875 
L 7.8125 69.390625 
Q 13.765625 71.78125 18.9375 73 
Q 24.125 74.21875 28.421875 74.21875 
Q 39.75 74.21875 46.484375 68.546875 
Q 53.21875 62.890625 53.21875 53.421875 
Q 53.21875 48.921875 51.53125 44.890625 
Q 49.859375 40.875 45.40625 35.40625 
Q 44.1875 33.984375 37.640625 27.21875 
Q 31.109375 20.453125 19.1875 8.296875 
z
" id="DejaVuSans-50"/>
      </defs>
      <g transform="translate(318.919993 322.182437)scale(0.1 -0.1)">
       <use xlink:href="#DejaVuSans-50"/>
       <use x="63.623047" xlink:href="#DejaVuSans-48"/>
       <use x="127.246094" xlink:href="#DejaVuSans-48"/>
      </g>
     </g>
    </g>
    <g id="xtick_6">
     <g id="line2d_6">
      <g>
       <use style="stroke:#000000;stroke-width:0.8;" x="392.121497" xlink:href="#m48c747a8c2" y="307.584"/>
      </g>
     </g>
     <g id="text_6">
      <!-- 250 -->
      <g transform="translate(382.577747 322.182437)scale(0.1 -0.1)">
       <use xlink:href="#DejaVuSans-50"/>
       <use x="63.623047" xlink:href="#DejaVuSans-53"/>
       <use x="127.246094" xlink:href="#DejaVuSans-48"/>
      </g>
     </g>
    </g>
   </g>
   <g id="matplotlib.axis_2">
    <g id="ytick_1">
     <g id="line2d_7">
      <defs>
       <path d="M 0 0 
L -3.5 0 
" id="m51a1a1f031" style="stroke:#000000;stroke-width:0.8;"/>
      </defs>
      <g>
       <use style="stroke:#000000;stroke-width:0.8;" x="57.6" xlink:href="#m51a1a1f031" y="307.584"/>
      </g>
     </g>
     <g id="text_7">
      <!-- 0 -->
      <g transform="translate(44.2375 311.383219)scale(0.1 -0.1)">
       <use xlink:href="#DejaVuSans-48"/>
      </g>
     </g>
    </g>
    <g id="ytick_2">
     <g id="line2d_8">
      <g>
       <use style="stroke:#000000;stroke-width:0.8;" x="57.6" xlink:href="#m51a1a1f031" y="252.506308"/>
      </g>
     </g>
     <g id="text_8">
      <!-- 20000 -->
      <g transform="translate(18.7875 256.305527)scale(0.1 -0.1)">
       <use xlink:href="#DejaVuSans-50"/>
       <use x="63.623047" xlink:href="#DejaVuSans-48"/>
       <use x="127.246094" xlink:href="#DejaVuSans-48"/>
       <use x="190.869141" xlink:href="#DejaVuSans-48"/>
       <use x="254.492188" xlink:href="#DejaVuSans-48"/>
      </g>
     </g>
    </g>
    <g id="ytick_3">
     <g id="line2d_9">
      <g>
       <use style="stroke:#000000;stroke-width:0.8;" x="57.6" xlink:href="#m51a1a1f031" y="197.428616"/>
      </g>
     </g>
     <g id="text_9">
      <!-- 40000 -->
      <defs>
       <path d="M 37.796875 64.3125 
L 12.890625 25.390625 
L 37.796875 25.390625 
z
M 35.203125 72.90625 
L 47.609375 72.90625 
L 47.609375 25.390625 
L 58.015625 25.390625 
L 58.015625 17.1875 
L 47.609375 17.1875 
L 47.609375 0 
L 37.796875 0 
L 37.796875 17.1875 
L 4.890625 17.1875 
L 4.890625 26.703125 
z
" id="DejaVuSans-52"/>
      </defs>
      <g transform="translate(18.7875 201.227835)scale(0.1 -0.1)">
       <use xlink:href="#DejaVuSans-52"/>
       <use x="63.623047" xlink:href="#DejaVuSans-48"/>
       <use x="127.246094" xlink:href="#DejaVuSans-48"/>
       <use x="190.869141" xlink:href="#DejaVuSans-48"/>
       <use x="254.492188" xlink:href="#DejaVuSans-48"/>
      </g>
     </g>
    </g>
    <g id="ytick_4">
     <g id="line2d_10">
      <g>
       <use style="stroke:#000000;stroke-width:0.8;" x="57.6" xlink:href="#m51a1a1f031" y="142.350924"/>
      </g>
     </g>
     <g id="text_10">
      <!-- 60000 -->
      <defs>
       <path d="M 33.015625 40.375 
Q 26.375 40.375 22.484375 35.828125 
Q 18.609375 31.296875 18.609375 23.390625 
Q 18.609375 15.53125 22.484375 10.953125 
Q 26.375 6.390625 33.015625 6.390625 
Q 39.65625 6.390625 43.53125 10.953125 
Q 47.40625 15.53125 47.40625 23.390625 
Q 47.40625 31.296875 43.53125 35.828125 
Q 39.65625 40.375 33.015625 40.375 
z
M 52.59375 71.296875 
L 52.59375 62.3125 
Q 48.875 64.0625 45.09375 64.984375 
Q 41.3125 65.921875 37.59375 65.921875 
Q 27.828125 65.921875 22.671875 59.328125 
Q 17.53125 52.734375 16.796875 39.40625 
Q 19.671875 43.65625 24.015625 45.921875 
Q 28.375 48.1875 33.59375 48.1875 
Q 44.578125 48.1875 50.953125 41.515625 
Q 57.328125 34.859375 57.328125 23.390625 
Q 57.328125 12.15625 50.6875 5.359375 
Q 44.046875 -1.421875 33.015625 -1.421875 
Q 20.359375 -1.421875 13.671875 8.265625 
Q 6.984375 17.96875 6.984375 36.375 
Q 6.984375 53.65625 15.1875 63.9375 
Q 23.390625 74.21875 37.203125 74.21875 
Q 40.921875 74.21875 44.703125 73.484375 
Q 48.484375 72.75 52.59375 71.296875 
z
" id="DejaVuSans-54"/>
      </defs>
      <g transform="translate(18.7875 146.150143)scale(0.1 -0.1)">
       <use xlink:href="#DejaVuSans-54"/>
       <use x="63.623047" xlink:href="#DejaVuSans-48"/>
       <use x="127.246094" xlink:href="#DejaVuSans-48"/>
       <use x="190.869141" xlink:href="#DejaVuSans-48"/>
       <use x="254.492188" xlink:href="#DejaVuSans-48"/>
      </g>
     </g>
    </g>
    <g id="ytick_5">
     <g id="line2d_11">
      <g>
       <use style="stroke:#000000;stroke-width:0.8;" x="57.6" xlink:href="#m51a1a1f031" y="87.273232"/>
      </g>
     </g>
     <g id="text_11">
      <!-- 80000 -->
      <defs>
       <path d="M 31.78125 34.625 
Q 24.75 34.625 20.71875 30.859375 
Q 16.703125 27.09375 16.703125 20.515625 
Q 16.703125 13.921875 20.71875 10.15625 
Q 24.75 6.390625 31.78125 6.390625 
Q 38.8125 6.390625 42.859375 10.171875 
Q 46.921875 13.96875 46.921875 20.515625 
Q 46.921875 27.09375 42.890625 30.859375 
Q 38.875 34.625 31.78125 34.625 
z
M 21.921875 38.8125 
Q 15.578125 40.375 12.03125 44.71875 
Q 8.5 49.078125 8.5 55.328125 
Q 8.5 64.0625 14.71875 69.140625 
Q 20.953125 74.21875 31.78125 74.21875 
Q 42.671875 74.21875 48.875 69.140625 
Q 55.078125 64.0625 55.078125 55.328125 
Q 55.078125 49.078125 51.53125 44.71875 
Q 48 40.375 41.703125 38.8125 
Q 48.828125 37.15625 52.796875 32.3125 
Q 56.78125 27.484375 56.78125 20.515625 
Q 56.78125 9.90625 50.3125 4.234375 
Q 43.84375 -1.421875 31.78125 -1.421875 
Q 19.734375 -1.421875 13.25 4.234375 
Q 6.78125 9.90625 6.78125 20.515625 
Q 6.78125 27.484375 10.78125 32.3125 
Q 14.796875 37.15625 21.921875 38.8125 
z
M 18.3125 54.390625 
Q 18.3125 48.734375 21.84375 45.5625 
Q 25.390625 42.390625 31.78125 42.390625 
Q 38.140625 42.390625 41.71875 45.5625 
Q 45.3125 48.734375 45.3125 54.390625 
Q 45.3125 60.0625 41.71875 63.234375 
Q 38.140625 66.40625 31.78125 66.40625 
Q 25.390625 66.40625 21.84375 63.234375 
Q 18.3125 60.0625 18.3125 54.390625 
z
" id="DejaVuSans-56"/>
      </defs>
      <g transform="translate(18.7875 91.072451)scale(0.1 -0.1)">
       <use xlink:href="#DejaVuSans-56"/>
       <use x="63.623047" xlink:href="#DejaVuSans-48"/>
       <use x="127.246094" xlink:href="#DejaVuSans-48"/>
       <use x="190.869141" xlink:href="#DejaVuSans-48"/>
       <use x="254.492188" xlink:href="#DejaVuSans-48"/>
      </g>
     </g>
    </g>
   </g>
   <g id="patch_259">
    <path d="M 57.6 307.584 
L 57.6 41.472 
" style="fill:none;stroke:#000000;stroke-linecap:square;stroke-linejoin:miter;stroke-width:0.8;"/>
   </g>
   <g id="patch_260">
    <path d="M 414.72 307.584 
L 414.72 41.472 
" style="fill:none;stroke:#000000;stroke-linecap:square;stroke-linejoin:miter;stroke-width:0.8;"/>
   </g>
   <g id="patch_261">
    <path d="M 57.6 307.584 
L 414.72 307.584 
" style="fill:none;stroke:#000000;stroke-linecap:square;stroke-linejoin:miter;stroke-width:0.8;"/>
   </g>
   <g id="patch_262">
    <path d="M 57.6 41.472 
L 414.72 41.472 
" style="fill:none;stroke:#000000;stroke-linecap:square;stroke-linejoin:miter;stroke-width:0.8;"/>
   </g>
  </g>
 </g>
 <defs>
  <clipPath id="p16ae725a04">
   <rect height="266.112" width="357.12" x="57.6" y="41.472"/>
  </clipPath>
 </defs>
</svg>
