<?xml version="1.0" encoding="utf-8" standalone="no"?>
<!DOCTYPE svg PUBLIC "-//W3C//DTD SVG 1.1//EN"
  "http://www.w3.org/Graphics/SVG/1.1/DTD/svg11.dtd">
<!-- Created with matplotlib (https://matplotlib.org/) -->
<svg height="345.6pt" version="1.1" viewBox="0 0 460.8 345.6" width="460.8pt" xmlns="http://www.w3.org/2000/svg" xmlns:xlink="http://www.w3.org/1999/xlink">
 <defs>
  <style type="text/css">
*{stroke-linecap:butt;stroke-linejoin:round;}
  </style>
 </defs>
 <g id="figure_1">
  <g id="patch_1">
   <path d="M 0 345.6 
L 460.8 345.6 
L 460.8 0 
L 0 0 
z
" style="fill:#ffffff;"/>
  </g>
  <g id="axes_1">
   <g id="patch_2">
    <path d="M 57.6 307.584 
L 414.72 307.584 
L 414.72 41.472 
L 57.6 41.472 
z
" style="fill:#ffffff;"/>
   </g>
   <g id="patch_3">
    <path clip-path="url(#pc8fc1fb160)" d="M 73.832727 307.584 
L 75.100909 307.584 
L 75.100909 307.052471 
L 73.832727 307.052471 
z
" style="fill:#1f77b4;"/>
   </g>
   <g id="patch_4">
    <path clip-path="url(#pc8fc1fb160)" d="M 75.100909 307.584 
L 76.369091 307.584 
L 76.369091 306.889469 
L 75.100909 306.889469 
z
" style="fill:#1f77b4;"/>
   </g>
   <g id="patch_5">
    <path clip-path="url(#pc8fc1fb160)" d="M 76.369091 307.584 
L 77.637273 307.584 
L 77.637273 306.683945 
L 76.369091 306.683945 
z
" style="fill:#1f77b4;"/>
   </g>
   <g id="patch_6">
    <path clip-path="url(#pc8fc1fb160)" d="M 77.637273 307.584 
L 78.905455 307.584 
L 78.905455 307.311149 
L 77.637273 307.311149 
z
" style="fill:#1f77b4;"/>
   </g>
   <g id="patch_7">
    <path clip-path="url(#pc8fc1fb160)" d="M 78.905455 307.584 
L 80.173636 307.584 
L 80.173636 306.644966 
L 78.905455 306.644966 
z
" style="fill:#1f77b4;"/>
   </g>
   <g id="patch_8">
    <path clip-path="url(#pc8fc1fb160)" d="M 80.173636 307.584 
L 81.441818 307.584 
L 81.441818 305.248817 
L 80.173636 305.248817 
z
" style="fill:#1f77b4;"/>
   </g>
   <g id="patch_9">
    <path clip-path="url(#pc8fc1fb160)" d="M 81.441818 307.584 
L 82.71 307.584 
L 82.71 307.296974 
L 81.441818 307.296974 
z
" style="fill:#1f77b4;"/>
   </g>
   <g id="patch_10">
    <path clip-path="url(#pc8fc1fb160)" d="M 82.71 307.584 
L 83.978182 307.584 
L 83.978182 304.199934 
L 82.71 304.199934 
z
" style="fill:#1f77b4;"/>
   </g>
   <g id="patch_11">
    <path clip-path="url(#pc8fc1fb160)" d="M 83.978182 307.584 
L 85.246364 307.584 
L 85.246364 307.584 
L 83.978182 307.584 
z
" style="fill:#1f77b4;"/>
   </g>
   <g id="patch_12">
    <path clip-path="url(#pc8fc1fb160)" d="M 85.246364 307.584 
L 86.514545 307.584 
L 86.514545 306.559921 
L 85.246364 306.559921 
z
" style="fill:#1f77b4;"/>
   </g>
   <g id="patch_13">
    <path clip-path="url(#pc8fc1fb160)" d="M 86.514545 307.584 
L 87.782727 307.584 
L 87.782727 303.292791 
L 86.514545 303.292791 
z
" style="fill:#1f77b4;"/>
   </g>
   <g id="patch_14">
    <path clip-path="url(#pc8fc1fb160)" d="M 87.782727 307.584 
L 89.050909 307.584 
L 89.050909 307.584 
L 87.782727 307.584 
z
" style="fill:#1f77b4;"/>
   </g>
   <g id="patch_15">
    <path clip-path="url(#pc8fc1fb160)" d="M 89.050909 307.584 
L 90.319091 307.584 
L 90.319091 307.584 
L 89.050909 307.584 
z
" style="fill:#1f77b4;"/>
   </g>
   <g id="patch_16">
    <path clip-path="url(#pc8fc1fb160)" d="M 90.319091 307.584 
L 91.587273 307.584 
L 91.587273 307.584 
L 90.319091 307.584 
z
" style="fill:#1f77b4;"/>
   </g>
   <g id="patch_17">
    <path clip-path="url(#pc8fc1fb160)" d="M 91.587273 307.584 
L 92.855455 307.584 
L 92.855455 306.722923 
L 91.587273 306.722923 
z
" style="fill:#1f77b4;"/>
   </g>
   <g id="patch_18">
    <path clip-path="url(#pc8fc1fb160)" d="M 92.855455 307.584 
L 94.123636 307.584 
L 94.123636 307.584 
L 92.855455 307.584 
z
" style="fill:#1f77b4;"/>
   </g>
   <g id="patch_19">
    <path clip-path="url(#pc8fc1fb160)" d="M 94.123636 307.584 
L 95.391818 307.584 
L 95.391818 306.003588 
L 94.123636 306.003588 
z
" style="fill:#1f77b4;"/>
   </g>
   <g id="patch_20">
    <path clip-path="url(#pc8fc1fb160)" d="M 95.391818 307.584 
L 96.66 307.584 
L 96.66 304.742093 
L 95.391818 304.742093 
z
" style="fill:#1f77b4;"/>
   </g>
   <g id="patch_21">
    <path clip-path="url(#pc8fc1fb160)" d="M 96.66 307.584 
L 97.928182 307.584 
L 97.928182 307.584 
L 96.66 307.584 
z
" style="fill:#1f77b4;"/>
   </g>
   <g id="patch_22">
    <path clip-path="url(#pc8fc1fb160)" d="M 97.928182 307.584 
L 99.196364 307.584 
L 99.196364 307.584 
L 97.928182 307.584 
z
" style="fill:#1f77b4;"/>
   </g>
   <g id="patch_23">
    <path clip-path="url(#pc8fc1fb160)" d="M 99.196364 307.584 
L 100.464545 307.584 
L 100.464545 302.9597 
L 99.196364 302.9597 
z
" style="fill:#1f77b4;"/>
   </g>
   <g id="patch_24">
    <path clip-path="url(#pc8fc1fb160)" d="M 100.464545 307.584 
L 101.732727 307.584 
L 101.732727 305.992957 
L 100.464545 305.992957 
z
" style="fill:#1f77b4;"/>
   </g>
   <g id="patch_25">
    <path clip-path="url(#pc8fc1fb160)" d="M 101.732727 307.584 
L 103.000909 307.584 
L 103.000909 307.584 
L 101.732727 307.584 
z
" style="fill:#1f77b4;"/>
   </g>
   <g id="patch_26">
    <path clip-path="url(#pc8fc1fb160)" d="M 103.000909 307.584 
L 104.269091 307.584 
L 104.269091 303.129789 
L 103.000909 303.129789 
z
" style="fill:#1f77b4;"/>
   </g>
   <g id="patch_27">
    <path clip-path="url(#pc8fc1fb160)" d="M 104.269091 307.584 
L 105.537273 307.584 
L 105.537273 303.718014 
L 104.269091 303.718014 
z
" style="fill:#1f77b4;"/>
   </g>
   <g id="patch_28">
    <path clip-path="url(#pc8fc1fb160)" d="M 105.537273 307.584 
L 106.805455 307.584 
L 106.805455 307.584 
L 105.537273 307.584 
z
" style="fill:#1f77b4;"/>
   </g>
   <g id="patch_29">
    <path clip-path="url(#pc8fc1fb160)" d="M 106.805455 307.584 
L 108.073636 307.584 
L 108.073636 305.284252 
L 106.805455 305.284252 
z
" style="fill:#1f77b4;"/>
   </g>
   <g id="patch_30">
    <path clip-path="url(#pc8fc1fb160)" d="M 108.073636 307.584 
L 109.341818 307.584 
L 109.341818 302.83922 
L 108.073636 302.83922 
z
" style="fill:#1f77b4;"/>
   </g>
   <g id="patch_31">
    <path clip-path="url(#pc8fc1fb160)" d="M 109.341818 307.584 
L 110.61 307.584 
L 110.61 303.980235 
L 109.341818 303.980235 
z
" style="fill:#1f77b4;"/>
   </g>
   <g id="patch_32">
    <path clip-path="url(#pc8fc1fb160)" d="M 110.61 307.584 
L 111.878182 307.584 
L 111.878182 307.584 
L 110.61 307.584 
z
" style="fill:#1f77b4;"/>
   </g>
   <g id="patch_33">
    <path clip-path="url(#pc8fc1fb160)" d="M 111.878182 307.584 
L 113.146364 307.584 
L 113.146364 307.584 
L 111.878182 307.584 
z
" style="fill:#1f77b4;"/>
   </g>
   <g id="patch_34">
    <path clip-path="url(#pc8fc1fb160)" d="M 113.146364 307.584 
L 114.414545 307.584 
L 114.414545 307.584 
L 113.146364 307.584 
z
" style="fill:#1f77b4;"/>
   </g>
   <g id="patch_35">
    <path clip-path="url(#pc8fc1fb160)" d="M 114.414545 307.584 
L 115.682727 307.584 
L 115.682727 307.584 
L 114.414545 307.584 
z
" style="fill:#1f77b4;"/>
   </g>
   <g id="patch_36">
    <path clip-path="url(#pc8fc1fb160)" d="M 115.682727 307.584 
L 116.950909 307.584 
L 116.950909 306.535117 
L 115.682727 306.535117 
z
" style="fill:#1f77b4;"/>
   </g>
   <g id="patch_37">
    <path clip-path="url(#pc8fc1fb160)" d="M 116.950909 307.584 
L 118.219091 307.584 
L 118.219091 305.80515 
L 116.950909 305.80515 
z
" style="fill:#1f77b4;"/>
   </g>
   <g id="patch_38">
    <path clip-path="url(#pc8fc1fb160)" d="M 118.219091 307.584 
L 119.487273 307.584 
L 119.487273 303.547925 
L 118.219091 303.547925 
z
" style="fill:#1f77b4;"/>
   </g>
   <g id="patch_39">
    <path clip-path="url(#pc8fc1fb160)" d="M 119.487273 307.584 
L 120.755455 307.584 
L 120.755455 305.089358 
L 119.487273 305.089358 
z
" style="fill:#1f77b4;"/>
   </g>
   <g id="patch_40">
    <path clip-path="url(#pc8fc1fb160)" d="M 120.755455 307.584 
L 122.023636 307.584 
L 122.023636 307.584 
L 120.755455 307.584 
z
" style="fill:#1f77b4;"/>
   </g>
   <g id="patch_41">
    <path clip-path="url(#pc8fc1fb160)" d="M 122.023636 307.584 
L 123.291818 307.584 
L 123.291818 307.584 
L 122.023636 307.584 
z
" style="fill:#1f77b4;"/>
   </g>
   <g id="patch_42">
    <path clip-path="url(#pc8fc1fb160)" d="M 123.291818 307.584 
L 124.56 307.584 
L 124.56 306.875295 
L 123.291818 306.875295 
z
" style="fill:#1f77b4;"/>
   </g>
   <g id="patch_43">
    <path clip-path="url(#pc8fc1fb160)" d="M 124.56 307.584 
L 125.828182 307.584 
L 125.828182 307.584 
L 124.56 307.584 
z
" style="fill:#1f77b4;"/>
   </g>
   <g id="patch_44">
    <path clip-path="url(#pc8fc1fb160)" d="M 125.828182 307.584 
L 127.096364 307.584 
L 127.096364 305.868934 
L 125.828182 305.868934 
z
" style="fill:#1f77b4;"/>
   </g>
   <g id="patch_45">
    <path clip-path="url(#pc8fc1fb160)" d="M 127.096364 307.584 
L 128.364545 307.584 
L 128.364545 306.793794 
L 127.096364 306.793794 
z
" style="fill:#1f77b4;"/>
   </g>
   <g id="patch_46">
    <path clip-path="url(#pc8fc1fb160)" d="M 128.364545 307.584 
L 129.632727 307.584 
L 129.632727 305.982327 
L 128.364545 305.982327 
z
" style="fill:#1f77b4;"/>
   </g>
   <g id="patch_47">
    <path clip-path="url(#pc8fc1fb160)" d="M 129.632727 307.584 
L 130.900909 307.584 
L 130.900909 302.91009 
L 129.632727 302.91009 
z
" style="fill:#1f77b4;"/>
   </g>
   <g id="patch_48">
    <path clip-path="url(#pc8fc1fb160)" d="M 130.900909 307.584 
L 132.169091 307.584 
L 132.169091 301.691118 
L 130.900909 301.691118 
z
" style="fill:#1f77b4;"/>
   </g>
   <g id="patch_49">
    <path clip-path="url(#pc8fc1fb160)" d="M 132.169091 307.584 
L 133.437273 307.584 
L 133.437273 306.804424 
L 132.169091 306.804424 
z
" style="fill:#1f77b4;"/>
   </g>
   <g id="patch_50">
    <path clip-path="url(#pc8fc1fb160)" d="M 133.437273 307.584 
L 134.705455 307.584 
L 134.705455 302.385649 
L 133.437273 302.385649 
z
" style="fill:#1f77b4;"/>
   </g>
   <g id="patch_51">
    <path clip-path="url(#pc8fc1fb160)" d="M 134.705455 307.584 
L 135.973636 307.584 
L 135.973636 307.584 
L 134.705455 307.584 
z
" style="fill:#1f77b4;"/>
   </g>
   <g id="patch_52">
    <path clip-path="url(#pc8fc1fb160)" d="M 135.973636 307.584 
L 137.241818 307.584 
L 137.241818 306.761902 
L 135.973636 306.761902 
z
" style="fill:#1f77b4;"/>
   </g>
   <g id="patch_53">
    <path clip-path="url(#pc8fc1fb160)" d="M 137.241818 307.584 
L 138.51 307.584 
L 138.51 304.090084 
L 137.241818 304.090084 
z
" style="fill:#1f77b4;"/>
   </g>
   <g id="patch_54">
    <path clip-path="url(#pc8fc1fb160)" d="M 138.51 307.584 
L 139.778182 307.584 
L 139.778182 307.584 
L 138.51 307.584 
z
" style="fill:#1f77b4;"/>
   </g>
   <g id="patch_55">
    <path clip-path="url(#pc8fc1fb160)" d="M 139.778182 307.584 
L 141.046364 307.584 
L 141.046364 307.584 
L 139.778182 307.584 
z
" style="fill:#1f77b4;"/>
   </g>
   <g id="patch_56">
    <path clip-path="url(#pc8fc1fb160)" d="M 141.046364 307.584 
L 142.314545 307.584 
L 142.314545 306.740641 
L 141.046364 306.740641 
z
" style="fill:#1f77b4;"/>
   </g>
   <g id="patch_57">
    <path clip-path="url(#pc8fc1fb160)" d="M 142.314545 307.584 
L 143.582727 307.584 
L 143.582727 307.584 
L 142.314545 307.584 
z
" style="fill:#1f77b4;"/>
   </g>
   <g id="patch_58">
    <path clip-path="url(#pc8fc1fb160)" d="M 143.582727 307.584 
L 144.850909 307.584 
L 144.850909 300.209924 
L 143.582727 300.209924 
z
" style="fill:#1f77b4;"/>
   </g>
   <g id="patch_59">
    <path clip-path="url(#pc8fc1fb160)" d="M 144.850909 307.584 
L 146.119091 307.584 
L 146.119091 302.832133 
L 144.850909 302.832133 
z
" style="fill:#1f77b4;"/>
   </g>
   <g id="patch_60">
    <path clip-path="url(#pc8fc1fb160)" d="M 146.119091 307.584 
L 147.387273 307.584 
L 147.387273 307.584 
L 146.119091 307.584 
z
" style="fill:#1f77b4;"/>
   </g>
   <g id="patch_61">
    <path clip-path="url(#pc8fc1fb160)" d="M 147.387273 307.584 
L 148.655455 307.584 
L 148.655455 304.589721 
L 147.387273 304.589721 
z
" style="fill:#1f77b4;"/>
   </g>
   <g id="patch_62">
    <path clip-path="url(#pc8fc1fb160)" d="M 148.655455 307.584 
L 149.923636 307.584 
L 149.923636 306.683945 
L 148.655455 306.683945 
z
" style="fill:#1f77b4;"/>
   </g>
   <g id="patch_63">
    <path clip-path="url(#pc8fc1fb160)" d="M 149.923636 307.584 
L 151.191818 307.584 
L 151.191818 307.584 
L 149.923636 307.584 
z
" style="fill:#1f77b4;"/>
   </g>
   <g id="patch_64">
    <path clip-path="url(#pc8fc1fb160)" d="M 151.191818 307.584 
L 152.46 307.584 
L 152.46 303.636513 
L 151.191818 303.636513 
z
" style="fill:#1f77b4;"/>
   </g>
   <g id="patch_65">
    <path clip-path="url(#pc8fc1fb160)" d="M 152.46 307.584 
L 153.728182 307.584 
L 153.728182 306.797337 
L 152.46 306.797337 
z
" style="fill:#1f77b4;"/>
   </g>
   <g id="patch_66">
    <path clip-path="url(#pc8fc1fb160)" d="M 153.728182 307.584 
L 154.996364 307.584 
L 154.996364 306.545747 
L 153.728182 306.545747 
z
" style="fill:#1f77b4;"/>
   </g>
   <g id="patch_67">
    <path clip-path="url(#pc8fc1fb160)" d="M 154.996364 307.584 
L 156.264545 307.584 
L 156.264545 307.584 
L 154.996364 307.584 
z
" style="fill:#1f77b4;"/>
   </g>
   <g id="patch_68">
    <path clip-path="url(#pc8fc1fb160)" d="M 156.264545 307.584 
L 157.532727 307.584 
L 157.532727 305.489777 
L 156.264545 305.489777 
z
" style="fill:#1f77b4;"/>
   </g>
   <g id="patch_69">
    <path clip-path="url(#pc8fc1fb160)" d="M 157.532727 307.584 
L 158.800909 307.584 
L 158.800909 306.868208 
L 157.532727 306.868208 
z
" style="fill:#1f77b4;"/>
   </g>
   <g id="patch_70">
    <path clip-path="url(#pc8fc1fb160)" d="M 158.800909 307.584 
L 160.069091 307.584 
L 160.069091 307.584 
L 158.800909 307.584 
z
" style="fill:#1f77b4;"/>
   </g>
   <g id="patch_71">
    <path clip-path="url(#pc8fc1fb160)" d="M 160.069091 307.584 
L 161.337273 307.584 
L 161.337273 306.97097 
L 160.069091 306.97097 
z
" style="fill:#1f77b4;"/>
   </g>
   <g id="patch_72">
    <path clip-path="url(#pc8fc1fb160)" d="M 161.337273 307.584 
L 162.605455 307.584 
L 162.605455 306.545747 
L 161.337273 306.545747 
z
" style="fill:#1f77b4;"/>
   </g>
   <g id="patch_73">
    <path clip-path="url(#pc8fc1fb160)" d="M 162.605455 307.584 
L 163.873636 307.584 
L 163.873636 307.584 
L 162.605455 307.584 
z
" style="fill:#1f77b4;"/>
   </g>
   <g id="patch_74">
    <path clip-path="url(#pc8fc1fb160)" d="M 163.873636 307.584 
L 165.141818 307.584 
L 165.141818 300.107162 
L 163.873636 300.107162 
z
" style="fill:#1f77b4;"/>
   </g>
   <g id="patch_75">
    <path clip-path="url(#pc8fc1fb160)" d="M 165.141818 307.584 
L 166.41 307.584 
L 166.41 306.974514 
L 165.141818 306.974514 
z
" style="fill:#1f77b4;"/>
   </g>
   <g id="patch_76">
    <path clip-path="url(#pc8fc1fb160)" d="M 166.41 307.584 
L 167.678182 307.584 
L 167.678182 301.414723 
L 166.41 301.414723 
z
" style="fill:#1f77b4;"/>
   </g>
   <g id="patch_77">
    <path clip-path="url(#pc8fc1fb160)" d="M 167.678182 307.584 
L 168.946364 307.584 
L 168.946364 306.917817 
L 167.678182 306.917817 
z
" style="fill:#1f77b4;"/>
   </g>
   <g id="patch_78">
    <path clip-path="url(#pc8fc1fb160)" d="M 168.946364 307.584 
L 170.214545 307.584 
L 170.214545 307.034754 
L 168.946364 307.034754 
z
" style="fill:#1f77b4;"/>
   </g>
   <g id="patch_79">
    <path clip-path="url(#pc8fc1fb160)" d="M 170.214545 307.584 
L 171.482727 307.584 
L 171.482727 302.601804 
L 170.214545 302.601804 
z
" style="fill:#1f77b4;"/>
   </g>
   <g id="patch_80">
    <path clip-path="url(#pc8fc1fb160)" d="M 171.482727 307.584 
L 172.750909 307.584 
L 172.750909 306.999318 
L 171.482727 306.999318 
z
" style="fill:#1f77b4;"/>
   </g>
   <g id="patch_81">
    <path clip-path="url(#pc8fc1fb160)" d="M 172.750909 307.584 
L 174.019091 307.584 
L 174.019091 307.584 
L 172.750909 307.584 
z
" style="fill:#1f77b4;"/>
   </g>
   <g id="patch_82">
    <path clip-path="url(#pc8fc1fb160)" d="M 174.019091 307.584 
L 175.287273 307.584 
L 175.287273 303.611708 
L 174.019091 303.611708 
z
" style="fill:#1f77b4;"/>
   </g>
   <g id="patch_83">
    <path clip-path="url(#pc8fc1fb160)" d="M 175.287273 307.584 
L 176.555455 307.584 
L 176.555455 306.744185 
L 175.287273 306.744185 
z
" style="fill:#1f77b4;"/>
   </g>
   <g id="patch_84">
    <path clip-path="url(#pc8fc1fb160)" d="M 176.555455 307.584 
L 177.823636 307.584 
L 177.823636 307.584 
L 176.555455 307.584 
z
" style="fill:#1f77b4;"/>
   </g>
   <g id="patch_85">
    <path clip-path="url(#pc8fc1fb160)" d="M 177.823636 307.584 
L 179.091818 307.584 
L 179.091818 300.31623 
L 177.823636 300.31623 
z
" style="fill:#1f77b4;"/>
   </g>
   <g id="patch_86">
    <path clip-path="url(#pc8fc1fb160)" d="M 179.091818 307.584 
L 180.36 307.584 
L 180.36 307.584 
L 179.091818 307.584 
z
" style="fill:#1f77b4;"/>
   </g>
   <g id="patch_87">
    <path clip-path="url(#pc8fc1fb160)" d="M 180.36 307.584 
L 181.628182 307.584 
L 181.628182 307.584 
L 180.36 307.584 
z
" style="fill:#1f77b4;"/>
   </g>
   <g id="patch_88">
    <path clip-path="url(#pc8fc1fb160)" d="M 181.628182 307.584 
L 182.896364 307.584 
L 182.896364 304.678309 
L 181.628182 304.678309 
z
" style="fill:#1f77b4;"/>
   </g>
   <g id="patch_89">
    <path clip-path="url(#pc8fc1fb160)" d="M 182.896364 307.584 
L 184.164545 307.584 
L 184.164545 307.584 
L 182.896364 307.584 
z
" style="fill:#1f77b4;"/>
   </g>
   <g id="patch_90">
    <path clip-path="url(#pc8fc1fb160)" d="M 184.164545 307.584 
L 185.432727 307.584 
L 185.432727 307.584 
L 184.164545 307.584 
z
" style="fill:#1f77b4;"/>
   </g>
   <g id="patch_91">
    <path clip-path="url(#pc8fc1fb160)" d="M 185.432727 307.584 
L 186.700909 307.584 
L 186.700909 307.584 
L 185.432727 307.584 
z
" style="fill:#1f77b4;"/>
   </g>
   <g id="patch_92">
    <path clip-path="url(#pc8fc1fb160)" d="M 186.700909 307.584 
L 187.969091 307.584 
L 187.969091 307.584 
L 186.700909 307.584 
z
" style="fill:#1f77b4;"/>
   </g>
   <g id="patch_93">
    <path clip-path="url(#pc8fc1fb160)" d="M 187.969091 307.584 
L 189.237273 307.584 
L 189.237273 307.584 
L 187.969091 307.584 
z
" style="fill:#1f77b4;"/>
   </g>
   <g id="patch_94">
    <path clip-path="url(#pc8fc1fb160)" d="M 189.237273 307.584 
L 190.505455 307.584 
L 190.505455 303.101441 
L 189.237273 303.101441 
z
" style="fill:#1f77b4;"/>
   </g>
   <g id="patch_95">
    <path clip-path="url(#pc8fc1fb160)" d="M 190.505455 307.584 
L 191.773636 307.584 
L 191.773636 302.832133 
L 190.505455 302.832133 
z
" style="fill:#1f77b4;"/>
   </g>
   <g id="patch_96">
    <path clip-path="url(#pc8fc1fb160)" d="M 191.773636 307.584 
L 193.041818 307.584 
L 193.041818 307.584 
L 191.773636 307.584 
z
" style="fill:#1f77b4;"/>
   </g>
   <g id="patch_97">
    <path clip-path="url(#pc8fc1fb160)" d="M 193.041818 307.584 
L 194.31 307.584 
L 194.31 302.683305 
L 193.041818 302.683305 
z
" style="fill:#1f77b4;"/>
   </g>
   <g id="patch_98">
    <path clip-path="url(#pc8fc1fb160)" d="M 194.31 307.584 
L 195.578182 307.584 
L 195.578182 303.246725 
L 194.31 303.246725 
z
" style="fill:#1f77b4;"/>
   </g>
   <g id="patch_99">
    <path clip-path="url(#pc8fc1fb160)" d="M 195.578182 307.584 
L 196.846364 307.584 
L 196.846364 299.869746 
L 195.578182 299.869746 
z
" style="fill:#1f77b4;"/>
   </g>
   <g id="patch_100">
    <path clip-path="url(#pc8fc1fb160)" d="M 196.846364 307.584 
L 198.114545 307.584 
L 198.114545 307.584 
L 196.846364 307.584 
z
" style="fill:#1f77b4;"/>
   </g>
   <g id="patch_101">
    <path clip-path="url(#pc8fc1fb160)" d="M 198.114545 307.584 
L 199.382727 307.584 
L 199.382727 307.584 
L 198.114545 307.584 
z
" style="fill:#1f77b4;"/>
   </g>
   <g id="patch_102">
    <path clip-path="url(#pc8fc1fb160)" d="M 199.382727 307.584 
L 200.650909 307.584 
L 200.650909 307.584 
L 199.382727 307.584 
z
" style="fill:#1f77b4;"/>
   </g>
   <g id="patch_103">
    <path clip-path="url(#pc8fc1fb160)" d="M 200.650909 307.584 
L 201.919091 307.584 
L 201.919091 306.219743 
L 200.650909 306.219743 
z
" style="fill:#1f77b4;"/>
   </g>
   <g id="patch_104">
    <path clip-path="url(#pc8fc1fb160)" d="M 201.919091 307.584 
L 203.187273 307.584 
L 203.187273 307.584 
L 201.919091 307.584 
z
" style="fill:#1f77b4;"/>
   </g>
   <g id="patch_105">
    <path clip-path="url(#pc8fc1fb160)" d="M 203.187273 307.584 
L 204.455455 307.584 
L 204.455455 307.584 
L 203.187273 307.584 
z
" style="fill:#1f77b4;"/>
   </g>
   <g id="patch_106">
    <path clip-path="url(#pc8fc1fb160)" d="M 204.455455 307.584 
L 205.723636 307.584 
L 205.723636 307.584 
L 204.455455 307.584 
z
" style="fill:#1f77b4;"/>
   </g>
   <g id="patch_107">
    <path clip-path="url(#pc8fc1fb160)" d="M 205.723636 307.584 
L 206.991818 307.584 
L 206.991818 307.584 
L 205.723636 307.584 
z
" style="fill:#1f77b4;"/>
   </g>
   <g id="patch_108">
    <path clip-path="url(#pc8fc1fb160)" d="M 206.991818 307.584 
L 208.26 307.584 
L 208.26 306.439441 
L 206.991818 306.439441 
z
" style="fill:#1f77b4;"/>
   </g>
   <g id="patch_109">
    <path clip-path="url(#pc8fc1fb160)" d="M 208.26 307.584 
L 209.528182 307.584 
L 209.528182 304.366479 
L 208.26 304.366479 
z
" style="fill:#1f77b4;"/>
   </g>
   <g id="patch_110">
    <path clip-path="url(#pc8fc1fb160)" d="M 209.528182 307.584 
L 210.796364 307.584 
L 210.796364 307.584 
L 209.528182 307.584 
z
" style="fill:#1f77b4;"/>
   </g>
   <g id="patch_111">
    <path clip-path="url(#pc8fc1fb160)" d="M 210.796364 307.584 
L 212.064545 307.584 
L 212.064545 307.584 
L 210.796364 307.584 
z
" style="fill:#1f77b4;"/>
   </g>
   <g id="patch_112">
    <path clip-path="url(#pc8fc1fb160)" d="M 212.064545 307.584 
L 213.332727 307.584 
L 213.332727 306.567008 
L 212.064545 306.567008 
z
" style="fill:#1f77b4;"/>
   </g>
   <g id="patch_113">
    <path clip-path="url(#pc8fc1fb160)" d="M 213.332727 307.584 
L 214.600909 307.584 
L 214.600909 307.584 
L 213.332727 307.584 
z
" style="fill:#1f77b4;"/>
   </g>
   <g id="patch_114">
    <path clip-path="url(#pc8fc1fb160)" d="M 214.600909 307.584 
L 215.869091 307.584 
L 215.869091 300.893825 
L 214.600909 300.893825 
z
" style="fill:#1f77b4;"/>
   </g>
   <g id="patch_115">
    <path clip-path="url(#pc8fc1fb160)" d="M 215.869091 307.584 
L 217.137273 307.584 
L 217.137273 307.584 
L 215.869091 307.584 
z
" style="fill:#1f77b4;"/>
   </g>
   <g id="patch_116">
    <path clip-path="url(#pc8fc1fb160)" d="M 217.137273 307.584 
L 218.405455 307.584 
L 218.405455 307.584 
L 217.137273 307.584 
z
" style="fill:#1f77b4;"/>
   </g>
   <g id="patch_117">
    <path clip-path="url(#pc8fc1fb160)" d="M 218.405455 307.584 
L 219.673636 307.584 
L 219.673636 302.47778 
L 218.405455 302.47778 
z
" style="fill:#1f77b4;"/>
   </g>
   <g id="patch_118">
    <path clip-path="url(#pc8fc1fb160)" d="M 219.673636 307.584 
L 220.941818 307.584 
L 220.941818 297.506215 
L 219.673636 297.506215 
z
" style="fill:#1f77b4;"/>
   </g>
   <g id="patch_119">
    <path clip-path="url(#pc8fc1fb160)" d="M 220.941818 307.584 
L 222.21 307.584 
L 222.21 303.094354 
L 220.941818 303.094354 
z
" style="fill:#1f77b4;"/>
   </g>
   <g id="patch_120">
    <path clip-path="url(#pc8fc1fb160)" d="M 222.21 307.584 
L 223.478182 307.584 
L 223.478182 302.623065 
L 222.21 302.623065 
z
" style="fill:#1f77b4;"/>
   </g>
   <g id="patch_121">
    <path clip-path="url(#pc8fc1fb160)" d="M 223.478182 307.584 
L 224.746364 307.584 
L 224.746364 306.698119 
L 223.478182 306.698119 
z
" style="fill:#1f77b4;"/>
   </g>
   <g id="patch_122">
    <path clip-path="url(#pc8fc1fb160)" d="M 224.746364 307.584 
L 226.014545 307.584 
L 226.014545 307.584 
L 224.746364 307.584 
z
" style="fill:#1f77b4;"/>
   </g>
   <g id="patch_123">
    <path clip-path="url(#pc8fc1fb160)" d="M 226.014545 307.584 
L 227.282727 307.584 
L 227.282727 307.584 
L 226.014545 307.584 
z
" style="fill:#1f77b4;"/>
   </g>
   <g id="patch_124">
    <path clip-path="url(#pc8fc1fb160)" d="M 227.282727 307.584 
L 228.550909 307.584 
L 228.550909 307.584 
L 227.282727 307.584 
z
" style="fill:#1f77b4;"/>
   </g>
   <g id="patch_125">
    <path clip-path="url(#pc8fc1fb160)" d="M 228.550909 307.584 
L 229.819091 307.584 
L 229.819091 306.644966 
L 228.550909 306.644966 
z
" style="fill:#1f77b4;"/>
   </g>
   <g id="patch_126">
    <path clip-path="url(#pc8fc1fb160)" d="M 229.819091 307.584 
L 231.087273 307.584 
L 231.087273 303.88456 
L 229.819091 303.88456 
z
" style="fill:#1f77b4;"/>
   </g>
   <g id="patch_127">
    <path clip-path="url(#pc8fc1fb160)" d="M 231.087273 307.584 
L 232.355455 307.584 
L 232.355455 307.584 
L 231.087273 307.584 
z
" style="fill:#1f77b4;"/>
   </g>
   <g id="patch_128">
    <path clip-path="url(#pc8fc1fb160)" d="M 232.355455 307.584 
L 233.623636 307.584 
L 233.623636 306.825686 
L 232.355455 306.825686 
z
" style="fill:#1f77b4;"/>
   </g>
   <g id="patch_129">
    <path clip-path="url(#pc8fc1fb160)" d="M 233.623636 307.584 
L 234.891818 307.584 
L 234.891818 307.584 
L 233.623636 307.584 
z
" style="fill:#1f77b4;"/>
   </g>
   <g id="patch_130">
    <path clip-path="url(#pc8fc1fb160)" d="M 234.891818 307.584 
L 236.16 307.584 
L 236.16 307.584 
L 234.891818 307.584 
z
" style="fill:#1f77b4;"/>
   </g>
   <g id="patch_131">
    <path clip-path="url(#pc8fc1fb160)" d="M 236.16 307.584 
L 237.428182 307.584 
L 237.428182 306.956796 
L 236.16 306.956796 
z
" style="fill:#1f77b4;"/>
   </g>
   <g id="patch_132">
    <path clip-path="url(#pc8fc1fb160)" d="M 237.428182 307.584 
L 238.696364 307.584 
L 238.696364 307.584 
L 237.428182 307.584 
z
" style="fill:#1f77b4;"/>
   </g>
   <g id="patch_133">
    <path clip-path="url(#pc8fc1fb160)" d="M 238.696364 307.584 
L 239.964545 307.584 
L 239.964545 307.584 
L 238.696364 307.584 
z
" style="fill:#1f77b4;"/>
   </g>
   <g id="patch_134">
    <path clip-path="url(#pc8fc1fb160)" d="M 239.964545 307.584 
L 241.232727 307.584 
L 241.232727 302.973874 
L 239.964545 302.973874 
z
" style="fill:#1f77b4;"/>
   </g>
   <g id="patch_135">
    <path clip-path="url(#pc8fc1fb160)" d="M 241.232727 307.584 
L 242.500909 307.584 
L 242.500909 307.584 
L 241.232727 307.584 
z
" style="fill:#1f77b4;"/>
   </g>
   <g id="patch_136">
    <path clip-path="url(#pc8fc1fb160)" d="M 242.500909 307.584 
L 243.769091 307.584 
L 243.769091 307.109168 
L 242.500909 307.109168 
z
" style="fill:#1f77b4;"/>
   </g>
   <g id="patch_137">
    <path clip-path="url(#pc8fc1fb160)" d="M 243.769091 307.584 
L 245.037273 307.584 
L 245.037273 303.193572 
L 243.769091 303.193572 
z
" style="fill:#1f77b4;"/>
   </g>
   <g id="patch_138">
    <path clip-path="url(#pc8fc1fb160)" d="M 245.037273 307.584 
L 246.305455 307.584 
L 246.305455 307.584 
L 245.037273 307.584 
z
" style="fill:#1f77b4;"/>
   </g>
   <g id="patch_139">
    <path clip-path="url(#pc8fc1fb160)" d="M 246.305455 307.584 
L 247.573636 307.584 
L 247.573636 302.697479 
L 246.305455 302.697479 
z
" style="fill:#1f77b4;"/>
   </g>
   <g id="patch_140">
    <path clip-path="url(#pc8fc1fb160)" d="M 247.573636 307.584 
L 248.841818 307.584 
L 248.841818 297.945612 
L 247.573636 297.945612 
z
" style="fill:#1f77b4;"/>
   </g>
   <g id="patch_141">
    <path clip-path="url(#pc8fc1fb160)" d="M 248.841818 307.584 
L 250.11 307.584 
L 250.11 307.584 
L 248.841818 307.584 
z
" style="fill:#1f77b4;"/>
   </g>
   <g id="patch_142">
    <path clip-path="url(#pc8fc1fb160)" d="M 250.11 307.584 
L 251.378182 307.584 
L 251.378182 306.630792 
L 250.11 306.630792 
z
" style="fill:#1f77b4;"/>
   </g>
   <g id="patch_143">
    <path clip-path="url(#pc8fc1fb160)" d="M 251.378182 307.584 
L 252.646364 307.584 
L 252.646364 307.584 
L 251.378182 307.584 
z
" style="fill:#1f77b4;"/>
   </g>
   <g id="patch_144">
    <path clip-path="url(#pc8fc1fb160)" d="M 252.646364 307.584 
L 253.914545 307.584 
L 253.914545 300.833585 
L 252.646364 300.833585 
z
" style="fill:#1f77b4;"/>
   </g>
   <g id="patch_145">
    <path clip-path="url(#pc8fc1fb160)" d="M 253.914545 307.584 
L 255.182727 307.584 
L 255.182727 307.584 
L 253.914545 307.584 
z
" style="fill:#1f77b4;"/>
   </g>
   <g id="patch_146">
    <path clip-path="url(#pc8fc1fb160)" d="M 255.182727 307.584 
L 256.450909 307.584 
L 256.450909 307.584 
L 255.182727 307.584 
z
" style="fill:#1f77b4;"/>
   </g>
   <g id="patch_147">
    <path clip-path="url(#pc8fc1fb160)" d="M 256.450909 307.584 
L 257.719091 307.584 
L 257.719091 307.584 
L 256.450909 307.584 
z
" style="fill:#1f77b4;"/>
   </g>
   <g id="patch_148">
    <path clip-path="url(#pc8fc1fb160)" d="M 257.719091 307.584 
L 258.987273 307.584 
L 258.987273 307.584 
L 257.719091 307.584 
z
" style="fill:#1f77b4;"/>
   </g>
   <g id="patch_149">
    <path clip-path="url(#pc8fc1fb160)" d="M 258.987273 307.584 
L 260.255455 307.584 
L 260.255455 307.584 
L 258.987273 307.584 
z
" style="fill:#1f77b4;"/>
   </g>
   <g id="patch_150">
    <path clip-path="url(#pc8fc1fb160)" d="M 260.255455 307.584 
L 261.523636 307.584 
L 261.523636 307.584 
L 260.255455 307.584 
z
" style="fill:#1f77b4;"/>
   </g>
   <g id="patch_151">
    <path clip-path="url(#pc8fc1fb160)" d="M 261.523636 307.584 
L 262.791818 307.584 
L 262.791818 303.859755 
L 261.523636 303.859755 
z
" style="fill:#1f77b4;"/>
   </g>
   <g id="patch_152">
    <path clip-path="url(#pc8fc1fb160)" d="M 262.791818 307.584 
L 264.06 307.584 
L 264.06 299.21065 
L 262.791818 299.21065 
z
" style="fill:#1f77b4;"/>
   </g>
   <g id="patch_153">
    <path clip-path="url(#pc8fc1fb160)" d="M 264.06 307.584 
L 265.328182 307.584 
L 265.328182 307.584 
L 264.06 307.584 
z
" style="fill:#1f77b4;"/>
   </g>
   <g id="patch_154">
    <path clip-path="url(#pc8fc1fb160)" d="M 265.328182 307.584 
L 266.596364 307.584 
L 266.596364 307.584 
L 265.328182 307.584 
z
" style="fill:#1f77b4;"/>
   </g>
   <g id="patch_155">
    <path clip-path="url(#pc8fc1fb160)" d="M 266.596364 307.584 
L 267.864545 307.584 
L 267.864545 307.584 
L 266.596364 307.584 
z
" style="fill:#1f77b4;"/>
   </g>
   <g id="patch_156">
    <path clip-path="url(#pc8fc1fb160)" d="M 267.864545 307.584 
L 269.132727 307.584 
L 269.132727 307.584 
L 267.864545 307.584 
z
" style="fill:#1f77b4;"/>
   </g>
   <g id="patch_157">
    <path clip-path="url(#pc8fc1fb160)" d="M 269.132727 307.584 
L 270.400909 307.584 
L 270.400909 302.920721 
L 269.132727 302.920721 
z
" style="fill:#1f77b4;"/>
   </g>
   <g id="patch_158">
    <path clip-path="url(#pc8fc1fb160)" d="M 270.400909 307.584 
L 271.669091 307.584 
L 271.669091 307.584 
L 270.400909 307.584 
z
" style="fill:#1f77b4;"/>
   </g>
   <g id="patch_159">
    <path clip-path="url(#pc8fc1fb160)" d="M 271.669091 307.584 
L 272.937273 307.584 
L 272.937273 307.584 
L 271.669091 307.584 
z
" style="fill:#1f77b4;"/>
   </g>
   <g id="patch_160">
    <path clip-path="url(#pc8fc1fb160)" d="M 272.937273 307.584 
L 274.205455 307.584 
L 274.205455 307.584 
L 272.937273 307.584 
z
" style="fill:#1f77b4;"/>
   </g>
   <g id="patch_161">
    <path clip-path="url(#pc8fc1fb160)" d="M 274.205455 307.584 
L 275.473636 307.584 
L 275.473636 302.842763 
L 274.205455 302.842763 
z
" style="fill:#1f77b4;"/>
   </g>
   <g id="patch_162">
    <path clip-path="url(#pc8fc1fb160)" d="M 275.473636 307.584 
L 276.741818 307.584 
L 276.741818 307.584 
L 275.473636 307.584 
z
" style="fill:#1f77b4;"/>
   </g>
   <g id="patch_163">
    <path clip-path="url(#pc8fc1fb160)" d="M 276.741818 307.584 
L 278.01 307.584 
L 278.01 307.584 
L 276.741818 307.584 
z
" style="fill:#1f77b4;"/>
   </g>
   <g id="patch_164">
    <path clip-path="url(#pc8fc1fb160)" d="M 278.01 307.584 
L 279.278182 307.584 
L 279.278182 307.584 
L 278.01 307.584 
z
" style="fill:#1f77b4;"/>
   </g>
   <g id="patch_165">
    <path clip-path="url(#pc8fc1fb160)" d="M 279.278182 307.584 
L 280.546364 307.584 
L 280.546364 307.584 
L 279.278182 307.584 
z
" style="fill:#1f77b4;"/>
   </g>
   <g id="patch_166">
    <path clip-path="url(#pc8fc1fb160)" d="M 280.546364 307.584 
L 281.814545 307.584 
L 281.814545 307.584 
L 280.546364 307.584 
z
" style="fill:#1f77b4;"/>
   </g>
   <g id="patch_167">
    <path clip-path="url(#pc8fc1fb160)" d="M 281.814545 307.584 
L 283.082727 307.584 
L 283.082727 297.683391 
L 281.814545 297.683391 
z
" style="fill:#1f77b4;"/>
   </g>
   <g id="patch_168">
    <path clip-path="url(#pc8fc1fb160)" d="M 283.082727 307.584 
L 284.350909 307.584 
L 284.350909 300.975326 
L 283.082727 300.975326 
z
" style="fill:#1f77b4;"/>
   </g>
   <g id="patch_169">
    <path clip-path="url(#pc8fc1fb160)" d="M 284.350909 307.584 
L 285.619091 307.584 
L 285.619091 307.584 
L 284.350909 307.584 
z
" style="fill:#1f77b4;"/>
   </g>
   <g id="patch_170">
    <path clip-path="url(#pc8fc1fb160)" d="M 285.619091 307.584 
L 286.887273 307.584 
L 286.887273 297.428257 
L 285.619091 297.428257 
z
" style="fill:#1f77b4;"/>
   </g>
   <g id="patch_171">
    <path clip-path="url(#pc8fc1fb160)" d="M 286.887273 307.584 
L 288.155455 307.584 
L 288.155455 304.440893 
L 286.887273 304.440893 
z
" style="fill:#1f77b4;"/>
   </g>
   <g id="patch_172">
    <path clip-path="url(#pc8fc1fb160)" d="M 288.155455 307.584 
L 289.423636 307.584 
L 289.423636 307.584 
L 288.155455 307.584 
z
" style="fill:#1f77b4;"/>
   </g>
   <g id="patch_173">
    <path clip-path="url(#pc8fc1fb160)" d="M 289.423636 307.584 
L 290.691818 307.584 
L 290.691818 307.584 
L 289.423636 307.584 
z
" style="fill:#1f77b4;"/>
   </g>
   <g id="patch_174">
    <path clip-path="url(#pc8fc1fb160)" d="M 290.691818 307.584 
L 291.96 307.584 
L 291.96 151.268479 
L 290.691818 151.268479 
z
" style="fill:#1f77b4;"/>
   </g>
   <g id="patch_175">
    <path clip-path="url(#pc8fc1fb160)" d="M 291.96 307.584 
L 293.228182 307.584 
L 293.228182 307.584 
L 291.96 307.584 
z
" style="fill:#1f77b4;"/>
   </g>
   <g id="patch_176">
    <path clip-path="url(#pc8fc1fb160)" d="M 293.228182 307.584 
L 294.496364 307.584 
L 294.496364 307.254452 
L 293.228182 307.254452 
z
" style="fill:#1f77b4;"/>
   </g>
   <g id="patch_177">
    <path clip-path="url(#pc8fc1fb160)" d="M 294.496364 307.584 
L 295.764545 307.584 
L 295.764545 304.936987 
L 294.496364 304.936987 
z
" style="fill:#1f77b4;"/>
   </g>
   <g id="patch_178">
    <path clip-path="url(#pc8fc1fb160)" d="M 295.764545 307.584 
L 297.032727 307.584 
L 297.032727 307.584 
L 295.764545 307.584 
z
" style="fill:#1f77b4;"/>
   </g>
   <g id="patch_179">
    <path clip-path="url(#pc8fc1fb160)" d="M 297.032727 307.584 
L 298.300909 307.584 
L 298.300909 306.953253 
L 297.032727 306.953253 
z
" style="fill:#1f77b4;"/>
   </g>
   <g id="patch_180">
    <path clip-path="url(#pc8fc1fb160)" d="M 298.300909 307.584 
L 299.569091 307.584 
L 299.569091 307.584 
L 298.300909 307.584 
z
" style="fill:#1f77b4;"/>
   </g>
   <g id="patch_181">
    <path clip-path="url(#pc8fc1fb160)" d="M 299.569091 307.584 
L 300.837273 307.584 
L 300.837273 302.917177 
L 299.569091 302.917177 
z
" style="fill:#1f77b4;"/>
   </g>
   <g id="patch_182">
    <path clip-path="url(#pc8fc1fb160)" d="M 300.837273 307.584 
L 302.105455 307.584 
L 302.105455 306.623705 
L 300.837273 306.623705 
z
" style="fill:#1f77b4;"/>
   </g>
   <g id="patch_183">
    <path clip-path="url(#pc8fc1fb160)" d="M 302.105455 307.584 
L 303.373636 307.584 
L 303.373636 303.186485 
L 302.105455 303.186485 
z
" style="fill:#1f77b4;"/>
   </g>
   <g id="patch_184">
    <path clip-path="url(#pc8fc1fb160)" d="M 303.373636 307.584 
L 304.641818 307.584 
L 304.641818 307.584 
L 303.373636 307.584 
z
" style="fill:#1f77b4;"/>
   </g>
   <g id="patch_185">
    <path clip-path="url(#pc8fc1fb160)" d="M 304.641818 307.584 
L 305.91 307.584 
L 305.91 303.654231 
L 304.641818 303.654231 
z
" style="fill:#1f77b4;"/>
   </g>
   <g id="patch_186">
    <path clip-path="url(#pc8fc1fb160)" d="M 305.91 307.584 
L 307.178182 307.584 
L 307.178182 302.250995 
L 305.91 302.250995 
z
" style="fill:#1f77b4;"/>
   </g>
   <g id="patch_187">
    <path clip-path="url(#pc8fc1fb160)" d="M 307.178182 307.584 
L 308.446364 307.584 
L 308.446364 299.561459 
L 307.178182 299.561459 
z
" style="fill:#1f77b4;"/>
   </g>
   <g id="patch_188">
    <path clip-path="url(#pc8fc1fb160)" d="M 308.446364 307.584 
L 309.714545 307.584 
L 309.714545 304.983053 
L 308.446364 304.983053 
z
" style="fill:#1f77b4;"/>
   </g>
   <g id="patch_189">
    <path clip-path="url(#pc8fc1fb160)" d="M 309.714545 307.584 
L 310.982727 307.584 
L 310.982727 307.584 
L 309.714545 307.584 
z
" style="fill:#1f77b4;"/>
   </g>
   <g id="patch_190">
    <path clip-path="url(#pc8fc1fb160)" d="M 310.982727 307.584 
L 312.250909 307.584 
L 312.250909 301.471419 
L 310.982727 301.471419 
z
" style="fill:#1f77b4;"/>
   </g>
   <g id="patch_191">
    <path clip-path="url(#pc8fc1fb160)" d="M 312.250909 307.584 
L 313.519091 307.584 
L 313.519091 307.584 
L 312.250909 307.584 
z
" style="fill:#1f77b4;"/>
   </g>
   <g id="patch_192">
    <path clip-path="url(#pc8fc1fb160)" d="M 313.519091 307.584 
L 314.787273 307.584 
L 314.787273 307.584 
L 313.519091 307.584 
z
" style="fill:#1f77b4;"/>
   </g>
   <g id="patch_193">
    <path clip-path="url(#pc8fc1fb160)" d="M 314.787273 307.584 
L 316.055455 307.584 
L 316.055455 307.584 
L 314.787273 307.584 
z
" style="fill:#1f77b4;"/>
   </g>
   <g id="patch_194">
    <path clip-path="url(#pc8fc1fb160)" d="M 316.055455 307.584 
L 317.323636 307.584 
L 317.323636 307.584 
L 316.055455 307.584 
z
" style="fill:#1f77b4;"/>
   </g>
   <g id="patch_195">
    <path clip-path="url(#pc8fc1fb160)" d="M 317.323636 307.584 
L 318.591818 307.584 
L 318.591818 306.350853 
L 317.323636 306.350853 
z
" style="fill:#1f77b4;"/>
   </g>
   <g id="patch_196">
    <path clip-path="url(#pc8fc1fb160)" d="M 318.591818 307.584 
L 319.86 307.584 
L 319.86 304.745636 
L 318.591818 304.745636 
z
" style="fill:#1f77b4;"/>
   </g>
   <g id="patch_197">
    <path clip-path="url(#pc8fc1fb160)" d="M 319.86 307.584 
L 321.128182 307.584 
L 321.128182 301.450158 
L 319.86 301.450158 
z
" style="fill:#1f77b4;"/>
   </g>
   <g id="patch_198">
    <path clip-path="url(#pc8fc1fb160)" d="M 321.128182 307.584 
L 322.396364 307.584 
L 322.396364 304.097171 
L 321.128182 304.097171 
z
" style="fill:#1f77b4;"/>
   </g>
   <g id="patch_199">
    <path clip-path="url(#pc8fc1fb160)" d="M 322.396364 307.584 
L 323.664545 307.584 
L 323.664545 297.920807 
L 322.396364 297.920807 
z
" style="fill:#1f77b4;"/>
   </g>
   <g id="patch_200">
    <path clip-path="url(#pc8fc1fb160)" d="M 323.664545 307.584 
L 324.932727 307.584 
L 324.932727 306.513855 
L 323.664545 306.513855 
z
" style="fill:#1f77b4;"/>
   </g>
   <g id="patch_201">
    <path clip-path="url(#pc8fc1fb160)" d="M 324.932727 307.584 
L 326.200909 307.584 
L 326.200909 302.998679 
L 324.932727 302.998679 
z
" style="fill:#1f77b4;"/>
   </g>
   <g id="patch_202">
    <path clip-path="url(#pc8fc1fb160)" d="M 326.200909 307.584 
L 327.469091 307.584 
L 327.469091 307.584 
L 326.200909 307.584 
z
" style="fill:#1f77b4;"/>
   </g>
   <g id="patch_203">
    <path clip-path="url(#pc8fc1fb160)" d="M 327.469091 307.584 
L 328.737273 307.584 
L 328.737273 307.584 
L 327.469091 307.584 
z
" style="fill:#1f77b4;"/>
   </g>
   <g id="patch_204">
    <path clip-path="url(#pc8fc1fb160)" d="M 328.737273 307.584 
L 330.005455 307.584 
L 330.005455 306.588269 
L 328.737273 306.588269 
z
" style="fill:#1f77b4;"/>
   </g>
   <g id="patch_205">
    <path clip-path="url(#pc8fc1fb160)" d="M 330.005455 307.584 
L 331.273636 307.584 
L 331.273636 302.949069 
L 330.005455 302.949069 
z
" style="fill:#1f77b4;"/>
   </g>
   <g id="patch_206">
    <path clip-path="url(#pc8fc1fb160)" d="M 331.273636 307.584 
L 332.541818 307.584 
L 332.541818 301.818685 
L 331.273636 301.818685 
z
" style="fill:#1f77b4;"/>
   </g>
   <g id="patch_207">
    <path clip-path="url(#pc8fc1fb160)" d="M 332.541818 307.584 
L 333.81 307.584 
L 333.81 307.584 
L 332.541818 307.584 
z
" style="fill:#1f77b4;"/>
   </g>
   <g id="patch_208">
    <path clip-path="url(#pc8fc1fb160)" d="M 333.81 307.584 
L 335.078182 307.584 
L 335.078182 305.557104 
L 333.81 305.557104 
z
" style="fill:#1f77b4;"/>
   </g>
   <g id="patch_209">
    <path clip-path="url(#pc8fc1fb160)" d="M 335.078182 307.584 
L 336.346364 307.584 
L 336.346364 307.584 
L 335.078182 307.584 
z
" style="fill:#1f77b4;"/>
   </g>
   <g id="patch_210">
    <path clip-path="url(#pc8fc1fb160)" d="M 336.346364 307.584 
L 337.614545 307.584 
L 337.614545 307.584 
L 336.346364 307.584 
z
" style="fill:#1f77b4;"/>
   </g>
   <g id="patch_211">
    <path clip-path="url(#pc8fc1fb160)" d="M 337.614545 307.584 
L 338.882727 307.584 
L 338.882727 307.584 
L 337.614545 307.584 
z
" style="fill:#1f77b4;"/>
   </g>
   <g id="patch_212">
    <path clip-path="url(#pc8fc1fb160)" d="M 338.882727 307.584 
L 340.150909 307.584 
L 340.150909 305.705932 
L 338.882727 305.705932 
z
" style="fill:#1f77b4;"/>
   </g>
   <g id="patch_213">
    <path clip-path="url(#pc8fc1fb160)" d="M 340.150909 307.584 
L 341.419091 307.584 
L 341.419091 294.759983 
L 340.150909 294.759983 
z
" style="fill:#1f77b4;"/>
   </g>
   <g id="patch_214">
    <path clip-path="url(#pc8fc1fb160)" d="M 341.419091 307.584 
L 342.687273 307.584 
L 342.687273 301.304874 
L 341.419091 301.304874 
z
" style="fill:#1f77b4;"/>
   </g>
   <g id="patch_215">
    <path clip-path="url(#pc8fc1fb160)" d="M 342.687273 307.584 
L 343.955455 307.584 
L 343.955455 303.994409 
L 342.687273 303.994409 
z
" style="fill:#1f77b4;"/>
   </g>
   <g id="patch_216">
    <path clip-path="url(#pc8fc1fb160)" d="M 343.955455 307.584 
L 345.223636 307.584 
L 345.223636 307.584 
L 343.955455 307.584 
z
" style="fill:#1f77b4;"/>
   </g>
   <g id="patch_217">
    <path clip-path="url(#pc8fc1fb160)" d="M 345.223636 307.584 
L 346.491818 307.584 
L 346.491818 303.997953 
L 345.223636 303.997953 
z
" style="fill:#1f77b4;"/>
   </g>
   <g id="patch_218">
    <path clip-path="url(#pc8fc1fb160)" d="M 346.491818 307.584 
L 347.76 307.584 
L 347.76 307.584 
L 346.491818 307.584 
z
" style="fill:#1f77b4;"/>
   </g>
   <g id="patch_219">
    <path clip-path="url(#pc8fc1fb160)" d="M 347.76 307.584 
L 349.028182 307.584 
L 349.028182 303.533751 
L 347.76 303.533751 
z
" style="fill:#1f77b4;"/>
   </g>
   <g id="patch_220">
    <path clip-path="url(#pc8fc1fb160)" d="M 349.028182 307.584 
L 350.296364 307.584 
L 350.296364 307.584 
L 349.028182 307.584 
z
" style="fill:#1f77b4;"/>
   </g>
   <g id="patch_221">
    <path clip-path="url(#pc8fc1fb160)" d="M 350.296364 307.584 
L 351.564545 307.584 
L 351.564545 304.054649 
L 350.296364 304.054649 
z
" style="fill:#1f77b4;"/>
   </g>
   <g id="patch_222">
    <path clip-path="url(#pc8fc1fb160)" d="M 351.564545 307.584 
L 352.832727 307.584 
L 352.832727 307.584 
L 351.564545 307.584 
z
" style="fill:#1f77b4;"/>
   </g>
   <g id="patch_223">
    <path clip-path="url(#pc8fc1fb160)" d="M 352.832727 307.584 
L 354.100909 307.584 
L 354.100909 301.092262 
L 352.832727 301.092262 
z
" style="fill:#1f77b4;"/>
   </g>
   <g id="patch_224">
    <path clip-path="url(#pc8fc1fb160)" d="M 354.100909 307.584 
L 355.369091 307.584 
L 355.369091 305.199208 
L 354.100909 305.199208 
z
" style="fill:#1f77b4;"/>
   </g>
   <g id="patch_225">
    <path clip-path="url(#pc8fc1fb160)" d="M 355.369091 307.584 
L 356.637273 307.584 
L 356.637273 307.584 
L 355.369091 307.584 
z
" style="fill:#1f77b4;"/>
   </g>
   <g id="patch_226">
    <path clip-path="url(#pc8fc1fb160)" d="M 356.637273 307.584 
L 357.905455 307.584 
L 357.905455 299.39137 
L 356.637273 299.39137 
z
" style="fill:#1f77b4;"/>
   </g>
   <g id="patch_227">
    <path clip-path="url(#pc8fc1fb160)" d="M 357.905455 307.584 
L 359.173636 307.584 
L 359.173636 305.12125 
L 357.905455 305.12125 
z
" style="fill:#1f77b4;"/>
   </g>
   <g id="patch_228">
    <path clip-path="url(#pc8fc1fb160)" d="M 359.173636 307.584 
L 360.441818 307.584 
L 360.441818 307.584 
L 359.173636 307.584 
z
" style="fill:#1f77b4;"/>
   </g>
   <g id="patch_229">
    <path clip-path="url(#pc8fc1fb160)" d="M 360.441818 307.584 
L 361.71 307.584 
L 361.71 305.596082 
L 360.441818 305.596082 
z
" style="fill:#1f77b4;"/>
   </g>
   <g id="patch_230">
    <path clip-path="url(#pc8fc1fb160)" d="M 361.71 307.584 
L 362.978182 307.584 
L 362.978182 305.773259 
L 361.71 305.773259 
z
" style="fill:#1f77b4;"/>
   </g>
   <g id="patch_231">
    <path clip-path="url(#pc8fc1fb160)" d="M 362.978182 307.584 
L 364.246364 307.584 
L 364.246364 307.584 
L 362.978182 307.584 
z
" style="fill:#1f77b4;"/>
   </g>
   <g id="patch_232">
    <path clip-path="url(#pc8fc1fb160)" d="M 364.246364 307.584 
L 365.514545 307.584 
L 365.514545 300.341035 
L 364.246364 300.341035 
z
" style="fill:#1f77b4;"/>
   </g>
   <g id="patch_233">
    <path clip-path="url(#pc8fc1fb160)" d="M 365.514545 307.584 
L 366.782727 307.584 
L 366.782727 306.804424 
L 365.514545 306.804424 
z
" style="fill:#1f77b4;"/>
   </g>
   <g id="patch_234">
    <path clip-path="url(#pc8fc1fb160)" d="M 366.782727 307.584 
L 368.050909 307.584 
L 368.050909 304.086541 
L 366.782727 304.086541 
z
" style="fill:#1f77b4;"/>
   </g>
   <g id="patch_235">
    <path clip-path="url(#pc8fc1fb160)" d="M 368.050909 307.584 
L 369.319091 307.584 
L 369.319091 305.096445 
L 368.050909 305.096445 
z
" style="fill:#1f77b4;"/>
   </g>
   <g id="patch_236">
    <path clip-path="url(#pc8fc1fb160)" d="M 369.319091 307.584 
L 370.587273 307.584 
L 370.587273 301.988774 
L 369.319091 301.988774 
z
" style="fill:#1f77b4;"/>
   </g>
   <g id="patch_237">
    <path clip-path="url(#pc8fc1fb160)" d="M 370.587273 307.584 
L 371.855455 307.584 
L 371.855455 306.864664 
L 370.587273 306.864664 
z
" style="fill:#1f77b4;"/>
   </g>
   <g id="patch_238">
    <path clip-path="url(#pc8fc1fb160)" d="M 371.855455 307.584 
L 373.123636 307.584 
L 373.123636 306.97097 
L 371.855455 306.97097 
z
" style="fill:#1f77b4;"/>
   </g>
   <g id="patch_239">
    <path clip-path="url(#pc8fc1fb160)" d="M 373.123636 307.584 
L 374.391818 307.584 
L 374.391818 301.850576 
L 373.123636 301.850576 
z
" style="fill:#1f77b4;"/>
   </g>
   <g id="patch_240">
    <path clip-path="url(#pc8fc1fb160)" d="M 374.391818 307.584 
L 375.66 307.584 
L 375.66 301.659226 
L 374.391818 301.659226 
z
" style="fill:#1f77b4;"/>
   </g>
   <g id="patch_241">
    <path clip-path="url(#pc8fc1fb160)" d="M 375.66 307.584 
L 376.928182 307.584 
L 376.928182 305.039749 
L 375.66 305.039749 
z
" style="fill:#1f77b4;"/>
   </g>
   <g id="patch_242">
    <path clip-path="url(#pc8fc1fb160)" d="M 376.928182 307.584 
L 378.196364 307.584 
L 378.196364 305.199208 
L 376.928182 305.199208 
z
" style="fill:#1f77b4;"/>
   </g>
   <g id="patch_243">
    <path clip-path="url(#pc8fc1fb160)" d="M 378.196364 307.584 
L 379.464545 307.584 
L 379.464545 304.281435 
L 378.196364 304.281435 
z
" style="fill:#1f77b4;"/>
   </g>
   <g id="patch_244">
    <path clip-path="url(#pc8fc1fb160)" d="M 379.464545 307.584 
L 380.732727 307.584 
L 380.732727 300.532385 
L 379.464545 300.532385 
z
" style="fill:#1f77b4;"/>
   </g>
   <g id="patch_245">
    <path clip-path="url(#pc8fc1fb160)" d="M 380.732727 307.584 
L 382.000909 307.584 
L 382.000909 307.584 
L 380.732727 307.584 
z
" style="fill:#1f77b4;"/>
   </g>
   <g id="patch_246">
    <path clip-path="url(#pc8fc1fb160)" d="M 382.000909 307.584 
L 383.269091 307.584 
L 383.269091 304.94053 
L 382.000909 304.94053 
z
" style="fill:#1f77b4;"/>
   </g>
   <g id="patch_247">
    <path clip-path="url(#pc8fc1fb160)" d="M 383.269091 307.584 
L 384.537273 307.584 
L 384.537273 300.695387 
L 383.269091 300.695387 
z
" style="fill:#1f77b4;"/>
   </g>
   <g id="patch_248">
    <path clip-path="url(#pc8fc1fb160)" d="M 384.537273 307.584 
L 385.805455 307.584 
L 385.805455 307.056015 
L 384.537273 307.056015 
z
" style="fill:#1f77b4;"/>
   </g>
   <g id="patch_249">
    <path clip-path="url(#pc8fc1fb160)" d="M 385.805455 307.584 
L 387.073636 307.584 
L 387.073636 306.570552 
L 385.805455 306.570552 
z
" style="fill:#1f77b4;"/>
   </g>
   <g id="patch_250">
    <path clip-path="url(#pc8fc1fb160)" d="M 387.073636 307.584 
L 388.341818 307.584 
L 388.341818 305.85476 
L 387.073636 305.85476 
z
" style="fill:#1f77b4;"/>
   </g>
   <g id="patch_251">
    <path clip-path="url(#pc8fc1fb160)" d="M 388.341818 307.584 
L 389.61 307.584 
L 389.61 304.859029 
L 388.341818 304.859029 
z
" style="fill:#1f77b4;"/>
   </g>
   <g id="patch_252">
    <path clip-path="url(#pc8fc1fb160)" d="M 389.61 307.584 
L 390.878182 307.584 
L 390.878182 305.666953 
L 389.61 305.666953 
z
" style="fill:#1f77b4;"/>
   </g>
   <g id="patch_253">
    <path clip-path="url(#pc8fc1fb160)" d="M 390.878182 307.584 
L 392.146364 307.584 
L 392.146364 304.802333 
L 390.878182 304.802333 
z
" style="fill:#1f77b4;"/>
   </g>
   <g id="patch_254">
    <path clip-path="url(#pc8fc1fb160)" d="M 392.146364 307.584 
L 393.414545 307.584 
L 393.414545 302.357301 
L 392.146364 302.357301 
z
" style="fill:#1f77b4;"/>
   </g>
   <g id="patch_255">
    <path clip-path="url(#pc8fc1fb160)" d="M 393.414545 307.584 
L 394.682727 307.584 
L 394.682727 305.30197 
L 393.414545 305.30197 
z
" style="fill:#1f77b4;"/>
   </g>
   <g id="patch_256">
    <path clip-path="url(#pc8fc1fb160)" d="M 394.682727 307.584 
L 395.950909 307.584 
L 395.950909 305.447254 
L 394.682727 305.447254 
z
" style="fill:#1f77b4;"/>
   </g>
   <g id="patch_257">
    <path clip-path="url(#pc8fc1fb160)" d="M 395.950909 307.584 
L 397.219091 307.584 
L 397.219091 304.766898 
L 395.950909 304.766898 
z
" style="fill:#1f77b4;"/>
   </g>
   <g id="patch_258">
    <path clip-path="url(#pc8fc1fb160)" d="M 397.219091 307.584 
L 398.487273 307.584 
L 398.487273 54.144 
L 397.219091 54.144 
z
" style="fill:#1f77b4;"/>
   </g>
   <g id="matplotlib.axis_1">
    <g id="xtick_1">
     <g id="line2d_1">
      <defs>
       <path d="M 0 0 
L 0 3.5 
" id="md7b87efda0" style="stroke:#000000;stroke-width:0.8;"/>
      </defs>
      <g>
       <use style="stroke:#000000;stroke-width:0.8;" x="73.832727" xlink:href="#md7b87efda0" y="307.584"/>
      </g>
     </g>
     <g id="text_1">
      <!-- 0 -->
      <defs>
       <path d="M 31.78125 66.40625 
Q 24.171875 66.40625 20.328125 58.90625 
Q 16.5 51.421875 16.5 36.375 
Q 16.5 21.390625 20.328125 13.890625 
Q 24.171875 6.390625 31.78125 6.390625 
Q 39.453125 6.390625 43.28125 13.890625 
Q 47.125 21.390625 47.125 36.375 
Q 47.125 51.421875 43.28125 58.90625 
Q 39.453125 66.40625 31.78125 66.40625 
z
M 31.78125 74.21875 
Q 44.046875 74.21875 50.515625 64.515625 
Q 56.984375 54.828125 56.984375 36.375 
Q 56.984375 17.96875 50.515625 8.265625 
Q 44.046875 -1.421875 31.78125 -1.421875 
Q 19.53125 -1.421875 13.0625 8.265625 
Q 6.59375 17.96875 6.59375 36.375 
Q 6.59375 54.828125 13.0625 64.515625 
Q 19.53125 74.21875 31.78125 74.21875 
z
" id="DejaVuSans-48"/>
      </defs>
      <g transform="translate(70.651477 322.182437)scale(0.1 -0.1)">
       <use xlink:href="#DejaVuSans-48"/>
      </g>
     </g>
    </g>
    <g id="xtick_2">
     <g id="line2d_2">
      <g>
       <use style="stroke:#000000;stroke-width:0.8;" x="137.490481" xlink:href="#md7b87efda0" y="307.584"/>
      </g>
     </g>
     <g id="text_2">
      <!-- 50 -->
      <defs>
       <path d="M 10.796875 72.90625 
L 49.515625 72.90625 
L 49.515625 64.59375 
L 19.828125 64.59375 
L 19.828125 46.734375 
Q 21.96875 47.46875 24.109375 47.828125 
Q 26.265625 48.1875 28.421875 48.1875 
Q 40.625 48.1875 47.75 41.5 
Q 54.890625 34.8125 54.890625 23.390625 
Q 54.890625 11.625 47.5625 5.09375 
Q 40.234375 -1.421875 26.90625 -1.421875 
Q 22.3125 -1.421875 17.546875 -0.640625 
Q 12.796875 0.140625 7.71875 1.703125 
L 7.71875 11.625 
Q 12.109375 9.234375 16.796875 8.0625 
Q 21.484375 6.890625 26.703125 6.890625 
Q 35.15625 6.890625 40.078125 11.328125 
Q 45.015625 15.765625 45.015625 23.390625 
Q 45.015625 31 40.078125 35.4375 
Q 35.15625 39.890625 26.703125 39.890625 
Q 22.75 39.890625 18.8125 39.015625 
Q 14.890625 38.140625 10.796875 36.28125 
z
" id="DejaVuSans-53"/>
      </defs>
      <g transform="translate(131.127981 322.182437)scale(0.1 -0.1)">
       <use xlink:href="#DejaVuSans-53"/>
       <use x="63.623047" xlink:href="#DejaVuSans-48"/>
      </g>
     </g>
    </g>
    <g id="xtick_3">
     <g id="line2d_3">
      <g>
       <use style="stroke:#000000;stroke-width:0.8;" x="201.148235" xlink:href="#md7b87efda0" y="307.584"/>
      </g>
     </g>
     <g id="text_3">
      <!-- 100 -->
      <defs>
       <path d="M 12.40625 8.296875 
L 28.515625 8.296875 
L 28.515625 63.921875 
L 10.984375 60.40625 
L 10.984375 69.390625 
L 28.421875 72.90625 
L 38.28125 72.90625 
L 38.28125 8.296875 
L 54.390625 8.296875 
L 54.390625 0 
L 12.40625 0 
z
" id="DejaVuSans-49"/>
      </defs>
      <g transform="translate(191.604485 322.182437)scale(0.1 -0.1)">
       <use xlink:href="#DejaVuSans-49"/>
       <use x="63.623047" xlink:href="#DejaVuSans-48"/>
       <use x="127.246094" xlink:href="#DejaVuSans-48"/>
      </g>
     </g>
    </g>
    <g id="xtick_4">
     <g id="line2d_4">
      <g>
       <use style="stroke:#000000;stroke-width:0.8;" x="264.805989" xlink:href="#md7b87efda0" y="307.584"/>
      </g>
     </g>
     <g id="text_4">
      <!-- 150 -->
      <g transform="translate(255.262239 322.182437)scale(0.1 -0.1)">
       <use xlink:href="#DejaVuSans-49"/>
       <use x="63.623047" xlink:href="#DejaVuSans-53"/>
       <use x="127.246094" xlink:href="#DejaVuSans-48"/>
      </g>
     </g>
    </g>
    <g id="xtick_5">
     <g id="line2d_5">
      <g>
       <use style="stroke:#000000;stroke-width:0.8;" x="328.463743" xlink:href="#md7b87efda0" y="307.584"/>
      </g>
     </g>
     <g id="text_5">
      <!-- 200 -->
      <defs>
       <path d="M 19.1875 8.296875 
L 53.609375 8.296875 
L 53.609375 0 
L 7.328125 0 
L 7.328125 8.296875 
Q 12.9375 14.109375 22.625 23.890625 
Q 32.328125 33.6875 34.8125 36.53125 
Q 39.546875 41.84375 41.421875 45.53125 
Q 43.3125 49.21875 43.3125 52.78125 
Q 43.3125 58.59375 39.234375 62.25 
Q 35.15625 65.921875 28.609375 65.921875 
Q 23.96875 65.921875 18.8125 64.3125 
Q 13.671875 62.703125 7.8125 59.421875 
L 7.8125 69.390625 
Q 13.765625 71.78125 18.9375 73 
Q 24.125 74.21875 28.421875 74.21875 
Q 39.75 74.21875 46.484375 68.546875 
Q 53.21875 62.890625 53.21875 53.421875 
Q 53.21875 48.921875 51.53125 44.890625 
Q 49.859375 40.875 45.40625 35.40625 
Q 44.1875 33.984375 37.640625 27.21875 
Q 31.109375 20.453125 19.1875 8.296875 
z
" id="DejaVuSans-50"/>
      </defs>
      <g transform="translate(318.919993 322.182437)scale(0.1 -0.1)">
       <use xlink:href="#DejaVuSans-50"/>
       <use x="63.623047" xlink:href="#DejaVuSans-48"/>
       <use x="127.246094" xlink:href="#DejaVuSans-48"/>
      </g>
     </g>
    </g>
    <g id="xtick_6">
     <g id="line2d_6">
      <g>
       <use style="stroke:#000000;stroke-width:0.8;" x="392.121497" xlink:href="#md7b87efda0" y="307.584"/>
      </g>
     </g>
     <g id="text_6">
      <!-- 250 -->
      <g transform="translate(382.577747 322.182437)scale(0.1 -0.1)">
       <use xlink:href="#DejaVuSans-50"/>
       <use x="63.623047" xlink:href="#DejaVuSans-53"/>
       <use x="127.246094" xlink:href="#DejaVuSans-48"/>
      </g>
     </g>
    </g>
   </g>
   <g id="matplotlib.axis_2">
    <g id="ytick_1">
     <g id="line2d_7">
      <defs>
       <path d="M 0 0 
L -3.5 0 
" id="mb0d2640a65" style="stroke:#000000;stroke-width:0.8;"/>
      </defs>
      <g>
       <use style="stroke:#000000;stroke-width:0.8;" x="57.6" xlink:href="#mb0d2640a65" y="307.584"/>
      </g>
     </g>
     <g id="text_7">
      <!-- 0 -->
      <g transform="translate(44.2375 311.383219)scale(0.1 -0.1)">
       <use xlink:href="#DejaVuSans-48"/>
      </g>
     </g>
    </g>
    <g id="ytick_2">
     <g id="line2d_8">
      <g>
       <use style="stroke:#000000;stroke-width:0.8;" x="57.6" xlink:href="#mb0d2640a65" y="272.148749"/>
      </g>
     </g>
     <g id="text_8">
      <!-- 10000 -->
      <g transform="translate(18.7875 275.947968)scale(0.1 -0.1)">
       <use xlink:href="#DejaVuSans-49"/>
       <use x="63.623047" xlink:href="#DejaVuSans-48"/>
       <use x="127.246094" xlink:href="#DejaVuSans-48"/>
       <use x="190.869141" xlink:href="#DejaVuSans-48"/>
       <use x="254.492188" xlink:href="#DejaVuSans-48"/>
      </g>
     </g>
    </g>
    <g id="ytick_3">
     <g id="line2d_9">
      <g>
       <use style="stroke:#000000;stroke-width:0.8;" x="57.6" xlink:href="#mb0d2640a65" y="236.713499"/>
      </g>
     </g>
     <g id="text_9">
      <!-- 20000 -->
      <g transform="translate(18.7875 240.512717)scale(0.1 -0.1)">
       <use xlink:href="#DejaVuSans-50"/>
       <use x="63.623047" xlink:href="#DejaVuSans-48"/>
       <use x="127.246094" xlink:href="#DejaVuSans-48"/>
       <use x="190.869141" xlink:href="#DejaVuSans-48"/>
       <use x="254.492188" xlink:href="#DejaVuSans-48"/>
      </g>
     </g>
    </g>
    <g id="ytick_4">
     <g id="line2d_10">
      <g>
       <use style="stroke:#000000;stroke-width:0.8;" x="57.6" xlink:href="#mb0d2640a65" y="201.278248"/>
      </g>
     </g>
     <g id="text_10">
      <!-- 30000 -->
      <defs>
       <path d="M 40.578125 39.3125 
Q 47.65625 37.796875 51.625 33 
Q 55.609375 28.21875 55.609375 21.1875 
Q 55.609375 10.40625 48.1875 4.484375 
Q 40.765625 -1.421875 27.09375 -1.421875 
Q 22.515625 -1.421875 17.65625 -0.515625 
Q 12.796875 0.390625 7.625 2.203125 
L 7.625 11.71875 
Q 11.71875 9.328125 16.59375 8.109375 
Q 21.484375 6.890625 26.8125 6.890625 
Q 36.078125 6.890625 40.9375 10.546875 
Q 45.796875 14.203125 45.796875 21.1875 
Q 45.796875 27.640625 41.28125 31.265625 
Q 36.765625 34.90625 28.71875 34.90625 
L 20.21875 34.90625 
L 20.21875 43.015625 
L 29.109375 43.015625 
Q 36.375 43.015625 40.234375 45.921875 
Q 44.09375 48.828125 44.09375 54.296875 
Q 44.09375 59.90625 40.109375 62.90625 
Q 36.140625 65.921875 28.71875 65.921875 
Q 24.65625 65.921875 20.015625 65.03125 
Q 15.375 64.15625 9.8125 62.3125 
L 9.8125 71.09375 
Q 15.4375 72.65625 20.34375 73.4375 
Q 25.25 74.21875 29.59375 74.21875 
Q 40.828125 74.21875 47.359375 69.109375 
Q 53.90625 64.015625 53.90625 55.328125 
Q 53.90625 49.265625 50.4375 45.09375 
Q 46.96875 40.921875 40.578125 39.3125 
z
" id="DejaVuSans-51"/>
      </defs>
      <g transform="translate(18.7875 205.077467)scale(0.1 -0.1)">
       <use xlink:href="#DejaVuSans-51"/>
       <use x="63.623047" xlink:href="#DejaVuSans-48"/>
       <use x="127.246094" xlink:href="#DejaVuSans-48"/>
       <use x="190.869141" xlink:href="#DejaVuSans-48"/>
       <use x="254.492188" xlink:href="#DejaVuSans-48"/>
      </g>
     </g>
    </g>
    <g id="ytick_5">
     <g id="line2d_11">
      <g>
       <use style="stroke:#000000;stroke-width:0.8;" x="57.6" xlink:href="#mb0d2640a65" y="165.842997"/>
      </g>
     </g>
     <g id="text_11">
      <!-- 40000 -->
      <defs>
       <path d="M 37.796875 64.3125 
L 12.890625 25.390625 
L 37.796875 25.390625 
z
M 35.203125 72.90625 
L 47.609375 72.90625 
L 47.609375 25.390625 
L 58.015625 25.390625 
L 58.015625 17.1875 
L 47.609375 17.1875 
L 47.609375 0 
L 37.796875 0 
L 37.796875 17.1875 
L 4.890625 17.1875 
L 4.890625 26.703125 
z
" id="DejaVuSans-52"/>
      </defs>
      <g transform="translate(18.7875 169.642216)scale(0.1 -0.1)">
       <use xlink:href="#DejaVuSans-52"/>
       <use x="63.623047" xlink:href="#DejaVuSans-48"/>
       <use x="127.246094" xlink:href="#DejaVuSans-48"/>
       <use x="190.869141" xlink:href="#DejaVuSans-48"/>
       <use x="254.492188" xlink:href="#DejaVuSans-48"/>
      </g>
     </g>
    </g>
    <g id="ytick_6">
     <g id="line2d_12">
      <g>
       <use style="stroke:#000000;stroke-width:0.8;" x="57.6" xlink:href="#mb0d2640a65" y="130.407747"/>
      </g>
     </g>
     <g id="text_12">
      <!-- 50000 -->
      <g transform="translate(18.7875 134.206965)scale(0.1 -0.1)">
       <use xlink:href="#DejaVuSans-53"/>
       <use x="63.623047" xlink:href="#DejaVuSans-48"/>
       <use x="127.246094" xlink:href="#DejaVuSans-48"/>
       <use x="190.869141" xlink:href="#DejaVuSans-48"/>
       <use x="254.492188" xlink:href="#DejaVuSans-48"/>
      </g>
     </g>
    </g>
    <g id="ytick_7">
     <g id="line2d_13">
      <g>
       <use style="stroke:#000000;stroke-width:0.8;" x="57.6" xlink:href="#mb0d2640a65" y="94.972496"/>
      </g>
     </g>
     <g id="text_13">
      <!-- 60000 -->
      <defs>
       <path d="M 33.015625 40.375 
Q 26.375 40.375 22.484375 35.828125 
Q 18.609375 31.296875 18.609375 23.390625 
Q 18.609375 15.53125 22.484375 10.953125 
Q 26.375 6.390625 33.015625 6.390625 
Q 39.65625 6.390625 43.53125 10.953125 
Q 47.40625 15.53125 47.40625 23.390625 
Q 47.40625 31.296875 43.53125 35.828125 
Q 39.65625 40.375 33.015625 40.375 
z
M 52.59375 71.296875 
L 52.59375 62.3125 
Q 48.875 64.0625 45.09375 64.984375 
Q 41.3125 65.921875 37.59375 65.921875 
Q 27.828125 65.921875 22.671875 59.328125 
Q 17.53125 52.734375 16.796875 39.40625 
Q 19.671875 43.65625 24.015625 45.921875 
Q 28.375 48.1875 33.59375 48.1875 
Q 44.578125 48.1875 50.953125 41.515625 
Q 57.328125 34.859375 57.328125 23.390625 
Q 57.328125 12.15625 50.6875 5.359375 
Q 44.046875 -1.421875 33.015625 -1.421875 
Q 20.359375 -1.421875 13.671875 8.265625 
Q 6.984375 17.96875 6.984375 36.375 
Q 6.984375 53.65625 15.1875 63.9375 
Q 23.390625 74.21875 37.203125 74.21875 
Q 40.921875 74.21875 44.703125 73.484375 
Q 48.484375 72.75 52.59375 71.296875 
z
" id="DejaVuSans-54"/>
      </defs>
      <g transform="translate(18.7875 98.771715)scale(0.1 -0.1)">
       <use xlink:href="#DejaVuSans-54"/>
       <use x="63.623047" xlink:href="#DejaVuSans-48"/>
       <use x="127.246094" xlink:href="#DejaVuSans-48"/>
       <use x="190.869141" xlink:href="#DejaVuSans-48"/>
       <use x="254.492188" xlink:href="#DejaVuSans-48"/>
      </g>
     </g>
    </g>
    <g id="ytick_8">
     <g id="line2d_14">
      <g>
       <use style="stroke:#000000;stroke-width:0.8;" x="57.6" xlink:href="#mb0d2640a65" y="59.537245"/>
      </g>
     </g>
     <g id="text_14">
      <!-- 70000 -->
      <defs>
       <path d="M 8.203125 72.90625 
L 55.078125 72.90625 
L 55.078125 68.703125 
L 28.609375 0 
L 18.3125 0 
L 43.21875 64.59375 
L 8.203125 64.59375 
z
" id="DejaVuSans-55"/>
      </defs>
      <g transform="translate(18.7875 63.336464)scale(0.1 -0.1)">
       <use xlink:href="#DejaVuSans-55"/>
       <use x="63.623047" xlink:href="#DejaVuSans-48"/>
       <use x="127.246094" xlink:href="#DejaVuSans-48"/>
       <use x="190.869141" xlink:href="#DejaVuSans-48"/>
       <use x="254.492188" xlink:href="#DejaVuSans-48"/>
      </g>
     </g>
    </g>
   </g>
   <g id="patch_259">
    <path d="M 57.6 307.584 
L 57.6 41.472 
" style="fill:none;stroke:#000000;stroke-linecap:square;stroke-linejoin:miter;stroke-width:0.8;"/>
   </g>
   <g id="patch_260">
    <path d="M 414.72 307.584 
L 414.72 41.472 
" style="fill:none;stroke:#000000;stroke-linecap:square;stroke-linejoin:miter;stroke-width:0.8;"/>
   </g>
   <g id="patch_261">
    <path d="M 57.6 307.584 
L 414.72 307.584 
" style="fill:none;stroke:#000000;stroke-linecap:square;stroke-linejoin:miter;stroke-width:0.8;"/>
   </g>
   <g id="patch_262">
    <path d="M 57.6 41.472 
L 414.72 41.472 
" style="fill:none;stroke:#000000;stroke-linecap:square;stroke-linejoin:miter;stroke-width:0.8;"/>
   </g>
  </g>
 </g>
 <defs>
  <clipPath id="pc8fc1fb160">
   <rect height="266.112" width="357.12" x="57.6" y="41.472"/>
  </clipPath>
 </defs>
</svg>
