<?xml version="1.0" encoding="utf-8" standalone="no"?>
<!DOCTYPE svg PUBLIC "-//W3C//DTD SVG 1.1//EN"
  "http://www.w3.org/Graphics/SVG/1.1/DTD/svg11.dtd">
<!-- Created with matplotlib (https://matplotlib.org/) -->
<svg height="345.6pt" version="1.1" viewBox="0 0 460.8 345.6" width="460.8pt" xmlns="http://www.w3.org/2000/svg" xmlns:xlink="http://www.w3.org/1999/xlink">
 <defs>
  <style type="text/css">
*{stroke-linecap:butt;stroke-linejoin:round;}
  </style>
 </defs>
 <g id="figure_1">
  <g id="patch_1">
   <path d="M 0 345.6 
L 460.8 345.6 
L 460.8 0 
L 0 0 
z
" style="fill:#ffffff;"/>
  </g>
  <g id="axes_1">
   <g id="patch_2">
    <path d="M 57.6 307.584 
L 414.72 307.584 
L 414.72 41.472 
L 57.6 41.472 
z
" style="fill:#ffffff;"/>
   </g>
   <g id="patch_3">
    <path clip-path="url(#pfa37a5e2ab)" d="M 73.832727 307.584 
L 75.100909 307.584 
L 75.100909 307.363018 
L 73.832727 307.363018 
z
" style="fill:#1f77b4;"/>
   </g>
   <g id="patch_4">
    <path clip-path="url(#pfa37a5e2ab)" d="M 75.100909 307.584 
L 76.369091 307.584 
L 76.369091 307.443154 
L 75.100909 307.443154 
z
" style="fill:#1f77b4;"/>
   </g>
   <g id="patch_5">
    <path clip-path="url(#pfa37a5e2ab)" d="M 76.369091 307.584 
L 77.637273 307.584 
L 77.637273 307.428584 
L 76.369091 307.428584 
z
" style="fill:#1f77b4;"/>
   </g>
   <g id="patch_6">
    <path clip-path="url(#pfa37a5e2ab)" d="M 77.637273 307.584 
L 78.905455 307.584 
L 78.905455 307.290166 
L 77.637273 307.290166 
z
" style="fill:#1f77b4;"/>
   </g>
   <g id="patch_7">
    <path clip-path="url(#pfa37a5e2ab)" d="M 78.905455 307.584 
L 80.173636 307.584 
L 80.173636 307.431012 
L 78.905455 307.431012 
z
" style="fill:#1f77b4;"/>
   </g>
   <g id="patch_8">
    <path clip-path="url(#pfa37a5e2ab)" d="M 80.173636 307.584 
L 81.441818 307.584 
L 81.441818 306.736496 
L 80.173636 306.736496 
z
" style="fill:#1f77b4;"/>
   </g>
   <g id="patch_9">
    <path clip-path="url(#pfa37a5e2ab)" d="M 81.441818 307.584 
L 82.71 307.584 
L 82.71 306.972049 
L 81.441818 306.972049 
z
" style="fill:#1f77b4;"/>
   </g>
   <g id="patch_10">
    <path clip-path="url(#pfa37a5e2ab)" d="M 82.71 307.584 
L 83.978182 307.584 
L 83.978182 307.268311 
L 82.71 307.268311 
z
" style="fill:#1f77b4;"/>
   </g>
   <g id="patch_11">
    <path clip-path="url(#pfa37a5e2ab)" d="M 83.978182 307.584 
L 85.246364 307.584 
L 85.246364 307.197888 
L 83.978182 307.197888 
z
" style="fill:#1f77b4;"/>
   </g>
   <g id="patch_12">
    <path clip-path="url(#pfa37a5e2ab)" d="M 85.246364 307.584 
L 86.514545 307.584 
L 86.514545 307.46501 
L 85.246364 307.46501 
z
" style="fill:#1f77b4;"/>
   </g>
   <g id="patch_13">
    <path clip-path="url(#pfa37a5e2ab)" d="M 86.514545 307.584 
L 87.782727 307.584 
L 87.782727 307.013331 
L 86.514545 307.013331 
z
" style="fill:#1f77b4;"/>
   </g>
   <g id="patch_14">
    <path clip-path="url(#pfa37a5e2ab)" d="M 87.782727 307.584 
L 89.050909 307.584 
L 89.050909 307.132322 
L 87.782727 307.132322 
z
" style="fill:#1f77b4;"/>
   </g>
   <g id="patch_15">
    <path clip-path="url(#pfa37a5e2ab)" d="M 89.050909 307.584 
L 90.319091 307.584 
L 90.319091 307.331449 
L 89.050909 307.331449 
z
" style="fill:#1f77b4;"/>
   </g>
   <g id="patch_16">
    <path clip-path="url(#pfa37a5e2ab)" d="M 90.319091 307.584 
L 91.587273 307.584 
L 91.587273 306.831203 
L 90.319091 306.831203 
z
" style="fill:#1f77b4;"/>
   </g>
   <g id="patch_17">
    <path clip-path="url(#pfa37a5e2ab)" d="M 91.587273 307.584 
L 92.855455 307.584 
L 92.855455 307.219743 
L 91.587273 307.219743 
z
" style="fill:#1f77b4;"/>
   </g>
   <g id="patch_18">
    <path clip-path="url(#pfa37a5e2ab)" d="M 92.855455 307.584 
L 94.123636 307.584 
L 94.123636 306.673359 
L 92.855455 306.673359 
z
" style="fill:#1f77b4;"/>
   </g>
   <g id="patch_19">
    <path clip-path="url(#pfa37a5e2ab)" d="M 94.123636 307.584 
L 95.391818 307.584 
L 95.391818 306.632076 
L 94.123636 306.632076 
z
" style="fill:#1f77b4;"/>
   </g>
   <g id="patch_20">
    <path clip-path="url(#pfa37a5e2ab)" d="M 95.391818 307.584 
L 96.66 307.584 
L 96.66 306.270248 
L 95.391818 306.270248 
z
" style="fill:#1f77b4;"/>
   </g>
   <g id="patch_21">
    <path clip-path="url(#pfa37a5e2ab)" d="M 96.66 307.584 
L 97.928182 307.584 
L 97.928182 306.782636 
L 96.66 306.782636 
z
" style="fill:#1f77b4;"/>
   </g>
   <g id="patch_22">
    <path clip-path="url(#pfa37a5e2ab)" d="M 97.928182 307.584 
L 99.196364 307.584 
L 99.196364 307.110466 
L 97.928182 307.110466 
z
" style="fill:#1f77b4;"/>
   </g>
   <g id="patch_23">
    <path clip-path="url(#pfa37a5e2ab)" d="M 99.196364 307.584 
L 100.464545 307.584 
L 100.464545 307.46501 
L 99.196364 307.46501 
z
" style="fill:#1f77b4;"/>
   </g>
   <g id="patch_24">
    <path clip-path="url(#pfa37a5e2ab)" d="M 100.464545 307.584 
L 101.732727 307.584 
L 101.732727 307.241599 
L 100.464545 307.241599 
z
" style="fill:#1f77b4;"/>
   </g>
   <g id="patch_25">
    <path clip-path="url(#pfa37a5e2ab)" d="M 101.732727 307.584 
L 103.000909 307.584 
L 103.000909 307.513577 
L 101.732727 307.513577 
z
" style="fill:#1f77b4;"/>
   </g>
   <g id="patch_26">
    <path clip-path="url(#pfa37a5e2ab)" d="M 103.000909 307.584 
L 104.269091 307.584 
L 104.269091 307.027902 
L 103.000909 307.027902 
z
" style="fill:#1f77b4;"/>
   </g>
   <g id="patch_27">
    <path clip-path="url(#pfa37a5e2ab)" d="M 104.269091 307.584 
L 105.537273 307.584 
L 105.537273 306.879771 
L 104.269091 306.879771 
z
" style="fill:#1f77b4;"/>
   </g>
   <g id="patch_28">
    <path clip-path="url(#pfa37a5e2ab)" d="M 105.537273 307.584 
L 106.805455 307.584 
L 106.805455 307.018188 
L 105.537273 307.018188 
z
" style="fill:#1f77b4;"/>
   </g>
   <g id="patch_29">
    <path clip-path="url(#pfa37a5e2ab)" d="M 106.805455 307.584 
L 108.073636 307.584 
L 108.073636 306.530084 
L 106.805455 306.530084 
z
" style="fill:#1f77b4;"/>
   </g>
   <g id="patch_30">
    <path clip-path="url(#pfa37a5e2ab)" d="M 108.073636 307.584 
L 109.341818 307.584 
L 109.341818 306.292103 
L 108.073636 306.292103 
z
" style="fill:#1f77b4;"/>
   </g>
   <g id="patch_31">
    <path clip-path="url(#pfa37a5e2ab)" d="M 109.341818 307.584 
L 110.61 307.584 
L 110.61 307.564573 
L 109.341818 307.564573 
z
" style="fill:#1f77b4;"/>
   </g>
   <g id="patch_32">
    <path clip-path="url(#pfa37a5e2ab)" d="M 110.61 307.584 
L 111.878182 307.584 
L 111.878182 305.680152 
L 110.61 305.680152 
z
" style="fill:#1f77b4;"/>
   </g>
   <g id="patch_33">
    <path clip-path="url(#pfa37a5e2ab)" d="M 111.878182 307.584 
L 113.146364 307.584 
L 113.146364 306.493659 
L 111.878182 306.493659 
z
" style="fill:#1f77b4;"/>
   </g>
   <g id="patch_34">
    <path clip-path="url(#pfa37a5e2ab)" d="M 113.146364 307.584 
L 114.414545 307.584 
L 114.414545 307.576715 
L 113.146364 307.576715 
z
" style="fill:#1f77b4;"/>
   </g>
   <g id="patch_35">
    <path clip-path="url(#pfa37a5e2ab)" d="M 114.414545 307.584 
L 115.682727 307.584 
L 115.682727 306.741353 
L 114.414545 306.741353 
z
" style="fill:#1f77b4;"/>
   </g>
   <g id="patch_36">
    <path clip-path="url(#pfa37a5e2ab)" d="M 115.682727 307.584 
L 116.950909 307.584 
L 116.950909 306.904054 
L 115.682727 306.904054 
z
" style="fill:#1f77b4;"/>
   </g>
   <g id="patch_37">
    <path clip-path="url(#pfa37a5e2ab)" d="M 116.950909 307.584 
L 118.219091 307.584 
L 118.219091 307.290166 
L 116.950909 307.290166 
z
" style="fill:#1f77b4;"/>
   </g>
   <g id="patch_38">
    <path clip-path="url(#pfa37a5e2ab)" d="M 118.219091 307.584 
L 119.487273 307.584 
L 119.487273 306.071121 
L 118.219091 306.071121 
z
" style="fill:#1f77b4;"/>
   </g>
   <g id="patch_39">
    <path clip-path="url(#pfa37a5e2ab)" d="M 119.487273 307.584 
L 120.755455 307.584 
L 120.755455 307.032758 
L 119.487273 307.032758 
z
" style="fill:#1f77b4;"/>
   </g>
   <g id="patch_40">
    <path clip-path="url(#pfa37a5e2ab)" d="M 120.755455 307.584 
L 122.023636 307.584 
L 122.023636 306.95505 
L 120.755455 306.95505 
z
" style="fill:#1f77b4;"/>
   </g>
   <g id="patch_41">
    <path clip-path="url(#pfa37a5e2ab)" d="M 122.023636 307.584 
L 123.291818 307.584 
L 123.291818 305.859852 
L 122.023636 305.859852 
z
" style="fill:#1f77b4;"/>
   </g>
   <g id="patch_42">
    <path clip-path="url(#pfa37a5e2ab)" d="M 123.291818 307.584 
L 124.56 307.584 
L 124.56 307.557288 
L 123.291818 307.557288 
z
" style="fill:#1f77b4;"/>
   </g>
   <g id="patch_43">
    <path clip-path="url(#pfa37a5e2ab)" d="M 124.56 307.584 
L 125.828182 307.584 
L 125.828182 306.255678 
L 124.56 306.255678 
z
" style="fill:#1f77b4;"/>
   </g>
   <g id="patch_44">
    <path clip-path="url(#pfa37a5e2ab)" d="M 125.828182 307.584 
L 127.096364 307.584 
L 127.096364 306.411094 
L 125.828182 306.411094 
z
" style="fill:#1f77b4;"/>
   </g>
   <g id="patch_45">
    <path clip-path="url(#pfa37a5e2ab)" d="M 127.096364 307.584 
L 128.364545 307.584 
L 128.364545 307.333877 
L 127.096364 307.333877 
z
" style="fill:#1f77b4;"/>
   </g>
   <g id="patch_46">
    <path clip-path="url(#pfa37a5e2ab)" d="M 128.364545 307.584 
L 129.632727 307.584 
L 129.632727 306.913768 
L 128.364545 306.913768 
z
" style="fill:#1f77b4;"/>
   </g>
   <g id="patch_47">
    <path clip-path="url(#pfa37a5e2ab)" d="M 129.632727 307.584 
L 130.900909 307.584 
L 130.900909 306.624791 
L 129.632727 306.624791 
z
" style="fill:#1f77b4;"/>
   </g>
   <g id="patch_48">
    <path clip-path="url(#pfa37a5e2ab)" d="M 130.900909 307.584 
L 132.169091 307.584 
L 132.169091 307.360589 
L 130.900909 307.360589 
z
" style="fill:#1f77b4;"/>
   </g>
   <g id="patch_49">
    <path clip-path="url(#pfa37a5e2ab)" d="M 132.169091 307.584 
L 133.437273 307.584 
L 133.437273 306.182826 
L 132.169091 306.182826 
z
" style="fill:#1f77b4;"/>
   </g>
   <g id="patch_50">
    <path clip-path="url(#pfa37a5e2ab)" d="M 133.437273 307.584 
L 134.705455 307.584 
L 134.705455 305.284327 
L 133.437273 305.284327 
z
" style="fill:#1f77b4;"/>
   </g>
   <g id="patch_51">
    <path clip-path="url(#pfa37a5e2ab)" d="M 134.705455 307.584 
L 135.973636 307.584 
L 135.973636 307.180889 
L 134.705455 307.180889 
z
" style="fill:#1f77b4;"/>
   </g>
   <g id="patch_52">
    <path clip-path="url(#pfa37a5e2ab)" d="M 135.973636 307.584 
L 137.241818 307.584 
L 137.241818 307.059471 
L 135.973636 307.059471 
z
" style="fill:#1f77b4;"/>
   </g>
   <g id="patch_53">
    <path clip-path="url(#pfa37a5e2ab)" d="M 137.241818 307.584 
L 138.51 307.584 
L 138.51 306.959907 
L 137.241818 306.959907 
z
" style="fill:#1f77b4;"/>
   </g>
   <g id="patch_54">
    <path clip-path="url(#pfa37a5e2ab)" d="M 138.51 307.584 
L 139.778182 307.584 
L 139.778182 306.942908 
L 138.51 306.942908 
z
" style="fill:#1f77b4;"/>
   </g>
   <g id="patch_55">
    <path clip-path="url(#pfa37a5e2ab)" d="M 139.778182 307.584 
L 141.046364 307.584 
L 141.046364 307.469866 
L 139.778182 307.469866 
z
" style="fill:#1f77b4;"/>
   </g>
   <g id="patch_56">
    <path clip-path="url(#pfa37a5e2ab)" d="M 141.046364 307.584 
L 142.314545 307.584 
L 142.314545 306.175541 
L 141.046364 306.175541 
z
" style="fill:#1f77b4;"/>
   </g>
   <g id="patch_57">
    <path clip-path="url(#pfa37a5e2ab)" d="M 142.314545 307.584 
L 143.582727 307.584 
L 143.582727 306.704928 
L 142.314545 306.704928 
z
" style="fill:#1f77b4;"/>
   </g>
   <g id="patch_58">
    <path clip-path="url(#pfa37a5e2ab)" d="M 143.582727 307.584 
L 144.850909 307.584 
L 144.850909 306.301817 
L 143.582727 306.301817 
z
" style="fill:#1f77b4;"/>
   </g>
   <g id="patch_59">
    <path clip-path="url(#pfa37a5e2ab)" d="M 144.850909 307.584 
L 146.119091 307.584 
L 146.119091 306.530084 
L 144.850909 306.530084 
z
" style="fill:#1f77b4;"/>
   </g>
   <g id="patch_60">
    <path clip-path="url(#pfa37a5e2ab)" d="M 146.119091 307.584 
L 147.387273 307.584 
L 147.387273 307.460153 
L 146.119091 307.460153 
z
" style="fill:#1f77b4;"/>
   </g>
   <g id="patch_61">
    <path clip-path="url(#pfa37a5e2ab)" d="M 147.387273 307.584 
L 148.655455 307.584 
L 148.655455 305.89385 
L 147.387273 305.89385 
z
" style="fill:#1f77b4;"/>
   </g>
   <g id="patch_62">
    <path clip-path="url(#pfa37a5e2ab)" d="M 148.655455 307.584 
L 149.923636 307.584 
L 149.923636 307.460153 
L 148.655455 307.460153 
z
" style="fill:#1f77b4;"/>
   </g>
   <g id="patch_63">
    <path clip-path="url(#pfa37a5e2ab)" d="M 149.923636 307.584 
L 151.191818 307.584 
L 151.191818 306.197397 
L 149.923636 306.197397 
z
" style="fill:#1f77b4;"/>
   </g>
   <g id="patch_64">
    <path clip-path="url(#pfa37a5e2ab)" d="M 151.191818 307.584 
L 152.46 307.584 
L 152.46 305.422744 
L 151.191818 305.422744 
z
" style="fill:#1f77b4;"/>
   </g>
   <g id="patch_65">
    <path clip-path="url(#pfa37a5e2ab)" d="M 152.46 307.584 
L 153.728182 307.584 
L 153.728182 305.704436 
L 152.46 305.704436 
z
" style="fill:#1f77b4;"/>
   </g>
   <g id="patch_66">
    <path clip-path="url(#pfa37a5e2ab)" d="M 153.728182 307.584 
L 154.996364 307.584 
L 154.996364 306.564082 
L 153.728182 306.564082 
z
" style="fill:#1f77b4;"/>
   </g>
   <g id="patch_67">
    <path clip-path="url(#pfa37a5e2ab)" d="M 154.996364 307.584 
L 156.264545 307.584 
L 156.264545 305.199334 
L 154.996364 305.199334 
z
" style="fill:#1f77b4;"/>
   </g>
   <g id="patch_68">
    <path clip-path="url(#pfa37a5e2ab)" d="M 156.264545 307.584 
L 157.532727 307.584 
L 157.532727 305.442171 
L 156.264545 305.442171 
z
" style="fill:#1f77b4;"/>
   </g>
   <g id="patch_69">
    <path clip-path="url(#pfa37a5e2ab)" d="M 157.532727 307.584 
L 158.800909 307.584 
L 158.800909 306.503372 
L 157.532727 306.503372 
z
" style="fill:#1f77b4;"/>
   </g>
   <g id="patch_70">
    <path clip-path="url(#pfa37a5e2ab)" d="M 158.800909 307.584 
L 160.069091 307.584 
L 160.069091 305.90842 
L 158.800909 305.90842 
z
" style="fill:#1f77b4;"/>
   </g>
   <g id="patch_71">
    <path clip-path="url(#pfa37a5e2ab)" d="M 160.069091 307.584 
L 161.337273 307.584 
L 161.337273 306.017697 
L 160.069091 306.017697 
z
" style="fill:#1f77b4;"/>
   </g>
   <g id="patch_72">
    <path clip-path="url(#pfa37a5e2ab)" d="M 161.337273 307.584 
L 162.605455 307.584 
L 162.605455 305.6243 
L 161.337273 305.6243 
z
" style="fill:#1f77b4;"/>
   </g>
   <g id="patch_73">
    <path clip-path="url(#pfa37a5e2ab)" d="M 162.605455 307.584 
L 163.873636 307.584 
L 163.873636 307.222172 
L 162.605455 307.222172 
z
" style="fill:#1f77b4;"/>
   </g>
   <g id="patch_74">
    <path clip-path="url(#pfa37a5e2ab)" d="M 163.873636 307.584 
L 165.141818 307.584 
L 165.141818 305.107055 
L 163.873636 305.107055 
z
" style="fill:#1f77b4;"/>
   </g>
   <g id="patch_75">
    <path clip-path="url(#pfa37a5e2ab)" d="M 165.141818 307.584 
L 166.41 307.584 
L 166.41 306.425664 
L 165.141818 306.425664 
z
" style="fill:#1f77b4;"/>
   </g>
   <g id="patch_76">
    <path clip-path="url(#pfa37a5e2ab)" d="M 166.41 307.584 
L 167.678182 307.584 
L 167.678182 306.969621 
L 166.41 306.969621 
z
" style="fill:#1f77b4;"/>
   </g>
   <g id="patch_77">
    <path clip-path="url(#pfa37a5e2ab)" d="M 167.678182 307.584 
L 168.946364 307.584 
L 168.946364 307.057042 
L 167.678182 307.057042 
z
" style="fill:#1f77b4;"/>
   </g>
   <g id="patch_78">
    <path clip-path="url(#pfa37a5e2ab)" d="M 168.946364 307.584 
L 170.214545 307.584 
L 170.214545 305.83314 
L 168.946364 305.83314 
z
" style="fill:#1f77b4;"/>
   </g>
   <g id="patch_79">
    <path clip-path="url(#pfa37a5e2ab)" d="M 170.214545 307.584 
L 171.482727 307.584 
L 171.482727 305.961844 
L 170.214545 305.961844 
z
" style="fill:#1f77b4;"/>
   </g>
   <g id="patch_80">
    <path clip-path="url(#pfa37a5e2ab)" d="M 171.482727 307.584 
L 172.750909 307.584 
L 172.750909 307.350876 
L 171.482727 307.350876 
z
" style="fill:#1f77b4;"/>
   </g>
   <g id="patch_81">
    <path clip-path="url(#pfa37a5e2ab)" d="M 172.750909 307.584 
L 174.019091 307.584 
L 174.019091 307.013331 
L 172.750909 307.013331 
z
" style="fill:#1f77b4;"/>
   </g>
   <g id="patch_82">
    <path clip-path="url(#pfa37a5e2ab)" d="M 174.019091 307.584 
L 175.287273 307.584 
L 175.287273 306.82149 
L 174.019091 306.82149 
z
" style="fill:#1f77b4;"/>
   </g>
   <g id="patch_83">
    <path clip-path="url(#pfa37a5e2ab)" d="M 175.287273 307.584 
L 176.555455 307.584 
L 176.555455 304.842362 
L 175.287273 304.842362 
z
" style="fill:#1f77b4;"/>
   </g>
   <g id="patch_84">
    <path clip-path="url(#pfa37a5e2ab)" d="M 176.555455 307.584 
L 177.823636 307.584 
L 177.823636 306.500944 
L 176.555455 306.500944 
z
" style="fill:#1f77b4;"/>
   </g>
   <g id="patch_85">
    <path clip-path="url(#pfa37a5e2ab)" d="M 177.823636 307.584 
L 179.091818 307.584 
L 179.091818 305.9837 
L 177.823636 305.9837 
z
" style="fill:#1f77b4;"/>
   </g>
   <g id="patch_86">
    <path clip-path="url(#pfa37a5e2ab)" d="M 179.091818 307.584 
L 180.36 307.584 
L 180.36 305.510166 
L 179.091818 305.510166 
z
" style="fill:#1f77b4;"/>
   </g>
   <g id="patch_87">
    <path clip-path="url(#pfa37a5e2ab)" d="M 180.36 307.584 
L 181.628182 307.584 
L 181.628182 305.760289 
L 180.36 305.760289 
z
" style="fill:#1f77b4;"/>
   </g>
   <g id="patch_88">
    <path clip-path="url(#pfa37a5e2ab)" d="M 181.628182 307.584 
L 182.896364 307.584 
L 182.896364 306.544655 
L 181.628182 306.544655 
z
" style="fill:#1f77b4;"/>
   </g>
   <g id="patch_89">
    <path clip-path="url(#pfa37a5e2ab)" d="M 182.896364 307.584 
L 184.164545 307.584 
L 184.164545 305.498024 
L 182.896364 305.498024 
z
" style="fill:#1f77b4;"/>
   </g>
   <g id="patch_90">
    <path clip-path="url(#pfa37a5e2ab)" d="M 184.164545 307.584 
L 185.432727 307.584 
L 185.432727 305.36932 
L 184.164545 305.36932 
z
" style="fill:#1f77b4;"/>
   </g>
   <g id="patch_91">
    <path clip-path="url(#pfa37a5e2ab)" d="M 185.432727 307.584 
L 186.700909 307.584 
L 186.700909 306.037124 
L 185.432727 306.037124 
z
" style="fill:#1f77b4;"/>
   </g>
   <g id="patch_92">
    <path clip-path="url(#pfa37a5e2ab)" d="M 186.700909 307.584 
L 187.969091 307.584 
L 187.969091 306.083263 
L 186.700909 306.083263 
z
" style="fill:#1f77b4;"/>
   </g>
   <g id="patch_93">
    <path clip-path="url(#pfa37a5e2ab)" d="M 187.969091 307.584 
L 189.237273 307.584 
L 189.237273 307.268311 
L 187.969091 307.268311 
z
" style="fill:#1f77b4;"/>
   </g>
   <g id="patch_94">
    <path clip-path="url(#pfa37a5e2ab)" d="M 189.237273 307.584 
L 190.505455 307.584 
L 190.505455 306.675787 
L 189.237273 306.675787 
z
" style="fill:#1f77b4;"/>
   </g>
   <g id="patch_95">
    <path clip-path="url(#pfa37a5e2ab)" d="M 190.505455 307.584 
L 191.773636 307.584 
L 191.773636 307.200316 
L 190.505455 307.200316 
z
" style="fill:#1f77b4;"/>
   </g>
   <g id="patch_96">
    <path clip-path="url(#pfa37a5e2ab)" d="M 191.773636 307.584 
L 193.041818 307.584 
L 193.041818 306.804491 
L 191.773636 306.804491 
z
" style="fill:#1f77b4;"/>
   </g>
   <g id="patch_97">
    <path clip-path="url(#pfa37a5e2ab)" d="M 193.041818 307.584 
L 194.31 307.584 
L 194.31 306.721926 
L 193.041818 306.721926 
z
" style="fill:#1f77b4;"/>
   </g>
   <g id="patch_98">
    <path clip-path="url(#pfa37a5e2ab)" d="M 194.31 307.584 
L 195.578182 307.584 
L 195.578182 306.279962 
L 194.31 306.279962 
z
" style="fill:#1f77b4;"/>
   </g>
   <g id="patch_99">
    <path clip-path="url(#pfa37a5e2ab)" d="M 195.578182 307.584 
L 196.846364 307.584 
L 196.846364 304.7258 
L 195.578182 304.7258 
z
" style="fill:#1f77b4;"/>
   </g>
   <g id="patch_100">
    <path clip-path="url(#pfa37a5e2ab)" d="M 196.846364 307.584 
L 198.114545 307.584 
L 198.114545 307.161462 
L 196.846364 307.161462 
z
" style="fill:#1f77b4;"/>
   </g>
   <g id="patch_101">
    <path clip-path="url(#pfa37a5e2ab)" d="M 198.114545 307.584 
L 199.382727 307.584 
L 199.382727 306.962335 
L 198.114545 306.962335 
z
" style="fill:#1f77b4;"/>
   </g>
   <g id="patch_102">
    <path clip-path="url(#pfa37a5e2ab)" d="M 199.382727 307.584 
L 200.650909 307.584 
L 200.650909 305.871994 
L 199.382727 305.871994 
z
" style="fill:#1f77b4;"/>
   </g>
   <g id="patch_103">
    <path clip-path="url(#pfa37a5e2ab)" d="M 200.650909 307.584 
L 201.919091 307.584 
L 201.919091 307.28531 
L 200.650909 307.28531 
z
" style="fill:#1f77b4;"/>
   </g>
   <g id="patch_104">
    <path clip-path="url(#pfa37a5e2ab)" d="M 201.919091 307.584 
L 203.187273 307.584 
L 203.187273 305.694723 
L 201.919091 305.694723 
z
" style="fill:#1f77b4;"/>
   </g>
   <g id="patch_105">
    <path clip-path="url(#pfa37a5e2ab)" d="M 203.187273 307.584 
L 204.455455 307.584 
L 204.455455 306.245964 
L 203.187273 306.245964 
z
" style="fill:#1f77b4;"/>
   </g>
   <g id="patch_106">
    <path clip-path="url(#pfa37a5e2ab)" d="M 204.455455 307.584 
L 205.723636 307.584 
L 205.723636 305.056059 
L 204.455455 305.056059 
z
" style="fill:#1f77b4;"/>
   </g>
   <g id="patch_107">
    <path clip-path="url(#pfa37a5e2ab)" d="M 205.723636 307.584 
L 206.991818 307.584 
L 206.991818 305.597588 
L 205.723636 305.597588 
z
" style="fill:#1f77b4;"/>
   </g>
   <g id="patch_108">
    <path clip-path="url(#pfa37a5e2ab)" d="M 206.991818 307.584 
L 208.26 307.584 
L 208.26 306.35767 
L 206.991818 306.35767 
z
" style="fill:#1f77b4;"/>
   </g>
   <g id="patch_109">
    <path clip-path="url(#pfa37a5e2ab)" d="M 208.26 307.584 
L 209.528182 307.584 
L 209.528182 303.642744 
L 208.26 303.642744 
z
" style="fill:#1f77b4;"/>
   </g>
   <g id="patch_110">
    <path clip-path="url(#pfa37a5e2ab)" d="M 209.528182 307.584 
L 210.796364 307.584 
L 210.796364 306.787492 
L 209.528182 306.787492 
z
" style="fill:#1f77b4;"/>
   </g>
   <g id="patch_111">
    <path clip-path="url(#pfa37a5e2ab)" d="M 210.796364 307.584 
L 212.064545 307.584 
L 212.064545 305.136196 
L 210.796364 305.136196 
z
" style="fill:#1f77b4;"/>
   </g>
   <g id="patch_112">
    <path clip-path="url(#pfa37a5e2ab)" d="M 212.064545 307.584 
L 213.332727 307.584 
L 213.332727 306.809348 
L 212.064545 306.809348 
z
" style="fill:#1f77b4;"/>
   </g>
   <g id="patch_113">
    <path clip-path="url(#pfa37a5e2ab)" d="M 213.332727 307.584 
L 214.600909 307.584 
L 214.600909 306.279962 
L 213.332727 306.279962 
z
" style="fill:#1f77b4;"/>
   </g>
   <g id="patch_114">
    <path clip-path="url(#pfa37a5e2ab)" d="M 214.600909 307.584 
L 215.869091 307.584 
L 215.869091 305.617015 
L 214.600909 305.617015 
z
" style="fill:#1f77b4;"/>
   </g>
   <g id="patch_115">
    <path clip-path="url(#pfa37a5e2ab)" d="M 215.869091 307.584 
L 217.137273 307.584 
L 217.137273 307.37516 
L 215.869091 307.37516 
z
" style="fill:#1f77b4;"/>
   </g>
   <g id="patch_116">
    <path clip-path="url(#pfa37a5e2ab)" d="M 217.137273 307.584 
L 218.405455 307.584 
L 218.405455 305.755432 
L 217.137273 305.755432 
z
" style="fill:#1f77b4;"/>
   </g>
   <g id="patch_117">
    <path clip-path="url(#pfa37a5e2ab)" d="M 218.405455 307.584 
L 219.673636 307.584 
L 219.673636 305.500452 
L 218.405455 305.500452 
z
" style="fill:#1f77b4;"/>
   </g>
   <g id="patch_118">
    <path clip-path="url(#pfa37a5e2ab)" d="M 219.673636 307.584 
L 220.941818 307.584 
L 220.941818 306.887056 
L 219.673636 306.887056 
z
" style="fill:#1f77b4;"/>
   </g>
   <g id="patch_119">
    <path clip-path="url(#pfa37a5e2ab)" d="M 220.941818 307.584 
L 222.21 307.584 
L 222.21 305.019634 
L 220.941818 305.019634 
z
" style="fill:#1f77b4;"/>
   </g>
   <g id="patch_120">
    <path clip-path="url(#pfa37a5e2ab)" d="M 222.21 307.584 
L 223.478182 307.584 
L 223.478182 306.632076 
L 222.21 306.632076 
z
" style="fill:#1f77b4;"/>
   </g>
   <g id="patch_121">
    <path clip-path="url(#pfa37a5e2ab)" d="M 223.478182 307.584 
L 224.746364 307.584 
L 224.746364 306.602936 
L 223.478182 306.602936 
z
" style="fill:#1f77b4;"/>
   </g>
   <g id="patch_122">
    <path clip-path="url(#pfa37a5e2ab)" d="M 224.746364 307.584 
L 226.014545 307.584 
L 226.014545 306.989048 
L 224.746364 306.989048 
z
" style="fill:#1f77b4;"/>
   </g>
   <g id="patch_123">
    <path clip-path="url(#pfa37a5e2ab)" d="M 226.014545 307.584 
L 227.282727 307.584 
L 227.282727 306.250821 
L 226.014545 306.250821 
z
" style="fill:#1f77b4;"/>
   </g>
   <g id="patch_124">
    <path clip-path="url(#pfa37a5e2ab)" d="M 227.282727 307.584 
L 228.550909 307.584 
L 228.550909 307.452868 
L 227.282727 307.452868 
z
" style="fill:#1f77b4;"/>
   </g>
   <g id="patch_125">
    <path clip-path="url(#pfa37a5e2ab)" d="M 228.550909 307.584 
L 229.819091 307.584 
L 229.819091 306.658788 
L 228.550909 306.658788 
z
" style="fill:#1f77b4;"/>
   </g>
   <g id="patch_126">
    <path clip-path="url(#pfa37a5e2ab)" d="M 229.819091 307.584 
L 231.087273 307.584 
L 231.087273 306.510657 
L 229.819091 306.510657 
z
" style="fill:#1f77b4;"/>
   </g>
   <g id="patch_127">
    <path clip-path="url(#pfa37a5e2ab)" d="M 231.087273 307.584 
L 232.355455 307.584 
L 232.355455 305.939989 
L 231.087273 305.939989 
z
" style="fill:#1f77b4;"/>
   </g>
   <g id="patch_128">
    <path clip-path="url(#pfa37a5e2ab)" d="M 232.355455 307.584 
L 233.623636 307.584 
L 233.623636 305.318324 
L 232.355455 305.318324 
z
" style="fill:#1f77b4;"/>
   </g>
   <g id="patch_129">
    <path clip-path="url(#pfa37a5e2ab)" d="M 233.623636 307.584 
L 234.891818 307.584 
L 234.891818 306.321244 
L 233.623636 306.321244 
z
" style="fill:#1f77b4;"/>
   </g>
   <g id="patch_130">
    <path clip-path="url(#pfa37a5e2ab)" d="M 234.891818 307.584 
L 236.16 307.584 
L 236.16 304.582526 
L 234.891818 304.582526 
z
" style="fill:#1f77b4;"/>
   </g>
   <g id="patch_131">
    <path clip-path="url(#pfa37a5e2ab)" d="M 236.16 307.584 
L 237.428182 307.584 
L 237.428182 305.485882 
L 236.16 305.485882 
z
" style="fill:#1f77b4;"/>
   </g>
   <g id="patch_132">
    <path clip-path="url(#pfa37a5e2ab)" d="M 237.428182 307.584 
L 238.696364 307.584 
L 238.696364 306.704928 
L 237.428182 306.704928 
z
" style="fill:#1f77b4;"/>
   </g>
   <g id="patch_133">
    <path clip-path="url(#pfa37a5e2ab)" d="M 238.696364 307.584 
L 239.964545 307.584 
L 239.964545 305.755432 
L 238.696364 305.755432 
z
" style="fill:#1f77b4;"/>
   </g>
   <g id="patch_134">
    <path clip-path="url(#pfa37a5e2ab)" d="M 239.964545 307.584 
L 241.232727 307.584 
L 241.232727 307.110466 
L 239.964545 307.110466 
z
" style="fill:#1f77b4;"/>
   </g>
   <g id="patch_135">
    <path clip-path="url(#pfa37a5e2ab)" d="M 241.232727 307.584 
L 242.500909 307.584 
L 242.500909 306.015268 
L 241.232727 306.015268 
z
" style="fill:#1f77b4;"/>
   </g>
   <g id="patch_136">
    <path clip-path="url(#pfa37a5e2ab)" d="M 242.500909 307.584 
L 243.769091 307.584 
L 243.769091 304.599525 
L 242.500909 304.599525 
z
" style="fill:#1f77b4;"/>
   </g>
   <g id="patch_137">
    <path clip-path="url(#pfa37a5e2ab)" d="M 243.769091 307.584 
L 245.037273 307.584 
L 245.037273 304.611666 
L 243.769091 304.611666 
z
" style="fill:#1f77b4;"/>
   </g>
   <g id="patch_138">
    <path clip-path="url(#pfa37a5e2ab)" d="M 245.037273 307.584 
L 246.305455 307.584 
L 246.305455 304.747656 
L 245.037273 304.747656 
z
" style="fill:#1f77b4;"/>
   </g>
   <g id="patch_139">
    <path clip-path="url(#pfa37a5e2ab)" d="M 246.305455 307.584 
L 247.573636 307.584 
L 247.573636 305.947274 
L 246.305455 305.947274 
z
" style="fill:#1f77b4;"/>
   </g>
   <g id="patch_140">
    <path clip-path="url(#pfa37a5e2ab)" d="M 247.573636 307.584 
L 248.841818 307.584 
L 248.841818 305.92299 
L 247.573636 305.92299 
z
" style="fill:#1f77b4;"/>
   </g>
   <g id="patch_141">
    <path clip-path="url(#pfa37a5e2ab)" d="M 248.841818 307.584 
L 250.11 307.584 
L 250.11 306.037124 
L 248.841818 306.037124 
z
" style="fill:#1f77b4;"/>
   </g>
   <g id="patch_142">
    <path clip-path="url(#pfa37a5e2ab)" d="M 250.11 307.584 
L 251.378182 307.584 
L 251.378182 306.175541 
L 250.11 306.175541 
z
" style="fill:#1f77b4;"/>
   </g>
   <g id="patch_143">
    <path clip-path="url(#pfa37a5e2ab)" d="M 251.378182 307.584 
L 252.646364 307.584 
L 252.646364 306.884627 
L 251.378182 306.884627 
z
" style="fill:#1f77b4;"/>
   </g>
   <g id="patch_144">
    <path clip-path="url(#pfa37a5e2ab)" d="M 252.646364 307.584 
L 253.914545 307.584 
L 253.914545 306.561653 
L 252.646364 306.561653 
z
" style="fill:#1f77b4;"/>
   </g>
   <g id="patch_145">
    <path clip-path="url(#pfa37a5e2ab)" d="M 253.914545 307.584 
L 255.182727 307.584 
L 255.182727 307.018188 
L 253.914545 307.018188 
z
" style="fill:#1f77b4;"/>
   </g>
   <g id="patch_146">
    <path clip-path="url(#pfa37a5e2ab)" d="M 255.182727 307.584 
L 256.450909 307.584 
L 256.450909 304.446537 
L 255.182727 304.446537 
z
" style="fill:#1f77b4;"/>
   </g>
   <g id="patch_147">
    <path clip-path="url(#pfa37a5e2ab)" d="M 256.450909 307.584 
L 257.719091 307.584 
L 257.719091 304.652949 
L 256.450909 304.652949 
z
" style="fill:#1f77b4;"/>
   </g>
   <g id="patch_148">
    <path clip-path="url(#pfa37a5e2ab)" d="M 257.719091 307.584 
L 258.987273 307.584 
L 258.987273 307.307165 
L 257.719091 307.307165 
z
" style="fill:#1f77b4;"/>
   </g>
   <g id="patch_149">
    <path clip-path="url(#pfa37a5e2ab)" d="M 258.987273 307.584 
L 260.255455 307.584 
L 260.255455 306.17797 
L 258.987273 306.17797 
z
" style="fill:#1f77b4;"/>
   </g>
   <g id="patch_150">
    <path clip-path="url(#pfa37a5e2ab)" d="M 260.255455 307.584 
L 261.523636 307.584 
L 261.523636 306.265391 
L 260.255455 306.265391 
z
" style="fill:#1f77b4;"/>
   </g>
   <g id="patch_151">
    <path clip-path="url(#pfa37a5e2ab)" d="M 261.523636 307.584 
L 262.791818 307.584 
L 262.791818 304.74037 
L 261.523636 304.74037 
z
" style="fill:#1f77b4;"/>
   </g>
   <g id="patch_152">
    <path clip-path="url(#pfa37a5e2ab)" d="M 262.791818 307.584 
L 264.06 307.584 
L 264.06 305.981271 
L 262.791818 305.981271 
z
" style="fill:#1f77b4;"/>
   </g>
   <g id="patch_153">
    <path clip-path="url(#pfa37a5e2ab)" d="M 264.06 307.584 
L 265.328182 307.584 
L 265.328182 303.193494 
L 264.06 303.193494 
z
" style="fill:#1f77b4;"/>
   </g>
   <g id="patch_154">
    <path clip-path="url(#pfa37a5e2ab)" d="M 265.328182 307.584 
L 266.596364 307.584 
L 266.596364 306.340671 
L 265.328182 306.340671 
z
" style="fill:#1f77b4;"/>
   </g>
   <g id="patch_155">
    <path clip-path="url(#pfa37a5e2ab)" d="M 266.596364 307.584 
L 267.864545 307.584 
L 267.864545 305.578161 
L 266.596364 305.578161 
z
" style="fill:#1f77b4;"/>
   </g>
   <g id="patch_156">
    <path clip-path="url(#pfa37a5e2ab)" d="M 267.864545 307.584 
L 269.132727 307.584 
L 269.132727 306.19254 
L 267.864545 306.19254 
z
" style="fill:#1f77b4;"/>
   </g>
   <g id="patch_157">
    <path clip-path="url(#pfa37a5e2ab)" d="M 269.132727 307.584 
L 270.400909 307.584 
L 270.400909 307.358161 
L 269.132727 307.358161 
z
" style="fill:#1f77b4;"/>
   </g>
   <g id="patch_158">
    <path clip-path="url(#pfa37a5e2ab)" d="M 270.400909 307.584 
L 271.669091 307.584 
L 271.669091 307.12018 
L 270.400909 307.12018 
z
" style="fill:#1f77b4;"/>
   </g>
   <g id="patch_159">
    <path clip-path="url(#pfa37a5e2ab)" d="M 271.669091 307.584 
L 272.937273 307.584 
L 272.937273 305.590302 
L 271.669091 305.590302 
z
" style="fill:#1f77b4;"/>
   </g>
   <g id="patch_160">
    <path clip-path="url(#pfa37a5e2ab)" d="M 272.937273 307.584 
L 274.205455 307.584 
L 274.205455 304.42711 
L 272.937273 304.42711 
z
" style="fill:#1f77b4;"/>
   </g>
   <g id="patch_161">
    <path clip-path="url(#pfa37a5e2ab)" d="M 274.205455 307.584 
L 275.473636 307.584 
L 275.473636 307.571858 
L 274.205455 307.571858 
z
" style="fill:#1f77b4;"/>
   </g>
   <g id="patch_162">
    <path clip-path="url(#pfa37a5e2ab)" d="M 275.473636 307.584 
L 276.741818 307.584 
L 276.741818 305.845282 
L 275.473636 305.845282 
z
" style="fill:#1f77b4;"/>
   </g>
   <g id="patch_163">
    <path clip-path="url(#pfa37a5e2ab)" d="M 276.741818 307.584 
L 278.01 307.584 
L 278.01 305.733577 
L 276.741818 305.733577 
z
" style="fill:#1f77b4;"/>
   </g>
   <g id="patch_164">
    <path clip-path="url(#pfa37a5e2ab)" d="M 278.01 307.584 
L 279.278182 307.584 
L 279.278182 306.828775 
L 278.01 306.828775 
z
" style="fill:#1f77b4;"/>
   </g>
   <g id="patch_165">
    <path clip-path="url(#pfa37a5e2ab)" d="M 279.278182 307.584 
L 280.546364 307.584 
L 280.546364 305.097342 
L 279.278182 305.097342 
z
" style="fill:#1f77b4;"/>
   </g>
   <g id="patch_166">
    <path clip-path="url(#pfa37a5e2ab)" d="M 280.546364 307.584 
L 281.814545 307.584 
L 281.814545 305.286755 
L 280.546364 305.286755 
z
" style="fill:#1f77b4;"/>
   </g>
   <g id="patch_167">
    <path clip-path="url(#pfa37a5e2ab)" d="M 281.814545 307.584 
L 283.082727 307.584 
L 283.082727 307.037615 
L 281.814545 307.037615 
z
" style="fill:#1f77b4;"/>
   </g>
   <g id="patch_168">
    <path clip-path="url(#pfa37a5e2ab)" d="M 283.082727 307.584 
L 284.350909 307.584 
L 284.350909 305.539307 
L 283.082727 305.539307 
z
" style="fill:#1f77b4;"/>
   </g>
   <g id="patch_169">
    <path clip-path="url(#pfa37a5e2ab)" d="M 284.350909 307.584 
L 285.619091 307.584 
L 285.619091 306.950194 
L 284.350909 306.950194 
z
" style="fill:#1f77b4;"/>
   </g>
   <g id="patch_170">
    <path clip-path="url(#pfa37a5e2ab)" d="M 285.619091 307.584 
L 286.887273 307.584 
L 286.887273 304.393113 
L 285.619091 304.393113 
z
" style="fill:#1f77b4;"/>
   </g>
   <g id="patch_171">
    <path clip-path="url(#pfa37a5e2ab)" d="M 286.887273 307.584 
L 288.155455 307.584 
L 288.155455 306.071121 
L 286.887273 306.071121 
z
" style="fill:#1f77b4;"/>
   </g>
   <g id="patch_172">
    <path clip-path="url(#pfa37a5e2ab)" d="M 288.155455 307.584 
L 289.423636 307.584 
L 289.423636 306.619934 
L 288.155455 306.619934 
z
" style="fill:#1f77b4;"/>
   </g>
   <g id="patch_173">
    <path clip-path="url(#pfa37a5e2ab)" d="M 289.423636 307.584 
L 290.691818 307.584 
L 290.691818 305.619443 
L 289.423636 305.619443 
z
" style="fill:#1f77b4;"/>
   </g>
   <g id="patch_174">
    <path clip-path="url(#pfa37a5e2ab)" d="M 290.691818 307.584 
L 291.96 307.584 
L 291.96 306.318816 
L 290.691818 306.318816 
z
" style="fill:#1f77b4;"/>
   </g>
   <g id="patch_175">
    <path clip-path="url(#pfa37a5e2ab)" d="M 291.96 307.584 
L 293.228182 307.584 
L 293.228182 306.780207 
L 291.96 306.780207 
z
" style="fill:#1f77b4;"/>
   </g>
   <g id="patch_176">
    <path clip-path="url(#pfa37a5e2ab)" d="M 293.228182 307.584 
L 294.496364 307.584 
L 294.496364 305.602444 
L 293.228182 305.602444 
z
" style="fill:#1f77b4;"/>
   </g>
   <g id="patch_177">
    <path clip-path="url(#pfa37a5e2ab)" d="M 294.496364 307.584 
L 295.764545 307.584 
L 295.764545 305.949702 
L 294.496364 305.949702 
z
" style="fill:#1f77b4;"/>
   </g>
   <g id="patch_178">
    <path clip-path="url(#pfa37a5e2ab)" d="M 295.764545 307.584 
L 297.032727 307.584 
L 297.032727 305.544163 
L 295.764545 305.544163 
z
" style="fill:#1f77b4;"/>
   </g>
   <g id="patch_179">
    <path clip-path="url(#pfa37a5e2ab)" d="M 297.032727 307.584 
L 298.300909 307.584 
L 298.300909 306.843345 
L 297.032727 306.843345 
z
" style="fill:#1f77b4;"/>
   </g>
   <g id="patch_180">
    <path clip-path="url(#pfa37a5e2ab)" d="M 298.300909 307.584 
L 299.569091 307.584 
L 299.569091 305.959416 
L 298.300909 305.959416 
z
" style="fill:#1f77b4;"/>
   </g>
   <g id="patch_181">
    <path clip-path="url(#pfa37a5e2ab)" d="M 299.569091 307.584 
L 300.837273 307.584 
L 300.837273 305.672867 
L 299.569091 305.672867 
z
" style="fill:#1f77b4;"/>
   </g>
   <g id="patch_182">
    <path clip-path="url(#pfa37a5e2ab)" d="M 300.837273 307.584 
L 302.105455 307.584 
L 302.105455 305.794286 
L 300.837273 305.794286 
z
" style="fill:#1f77b4;"/>
   </g>
   <g id="patch_183">
    <path clip-path="url(#pfa37a5e2ab)" d="M 302.105455 307.584 
L 303.373636 307.584 
L 303.373636 306.8652 
L 302.105455 306.8652 
z
" style="fill:#1f77b4;"/>
   </g>
   <g id="patch_184">
    <path clip-path="url(#pfa37a5e2ab)" d="M 303.373636 307.584 
L 304.641818 307.584 
L 304.641818 305.427601 
L 303.373636 305.427601 
z
" style="fill:#1f77b4;"/>
   </g>
   <g id="patch_185">
    <path clip-path="url(#pfa37a5e2ab)" d="M 304.641818 307.584 
L 305.91 307.584 
L 305.91 306.083263 
L 304.641818 306.083263 
z
" style="fill:#1f77b4;"/>
   </g>
   <g id="patch_186">
    <path clip-path="url(#pfa37a5e2ab)" d="M 305.91 307.584 
L 307.178182 307.584 
L 307.178182 306.355241 
L 305.91 306.355241 
z
" style="fill:#1f77b4;"/>
   </g>
   <g id="patch_187">
    <path clip-path="url(#pfa37a5e2ab)" d="M 307.178182 307.584 
L 308.446364 307.584 
L 308.446364 304.662662 
L 307.178182 304.662662 
z
" style="fill:#1f77b4;"/>
   </g>
   <g id="patch_188">
    <path clip-path="url(#pfa37a5e2ab)" d="M 308.446364 307.584 
L 309.714545 307.584 
L 309.714545 306.64179 
L 308.446364 306.64179 
z
" style="fill:#1f77b4;"/>
   </g>
   <g id="patch_189">
    <path clip-path="url(#pfa37a5e2ab)" d="M 309.714545 307.584 
L 310.982727 307.584 
L 310.982727 304.208556 
L 309.714545 304.208556 
z
" style="fill:#1f77b4;"/>
   </g>
   <g id="patch_190">
    <path clip-path="url(#pfa37a5e2ab)" d="M 310.982727 307.584 
L 312.250909 307.584 
L 312.250909 305.167765 
L 310.982727 305.167765 
z
" style="fill:#1f77b4;"/>
   </g>
   <g id="patch_191">
    <path clip-path="url(#pfa37a5e2ab)" d="M 312.250909 307.584 
L 313.519091 307.584 
L 313.519091 305.311039 
L 312.250909 305.311039 
z
" style="fill:#1f77b4;"/>
   </g>
   <g id="patch_192">
    <path clip-path="url(#pfa37a5e2ab)" d="M 313.519091 307.584 
L 314.787273 307.584 
L 314.787273 307.006046 
L 313.519091 307.006046 
z
" style="fill:#1f77b4;"/>
   </g>
   <g id="patch_193">
    <path clip-path="url(#pfa37a5e2ab)" d="M 314.787273 307.584 
L 316.055455 307.584 
L 316.055455 305.376605 
L 314.787273 305.376605 
z
" style="fill:#1f77b4;"/>
   </g>
   <g id="patch_194">
    <path clip-path="url(#pfa37a5e2ab)" d="M 316.055455 307.584 
L 317.323636 307.584 
L 317.323636 306.792349 
L 316.055455 306.792349 
z
" style="fill:#1f77b4;"/>
   </g>
   <g id="patch_195">
    <path clip-path="url(#pfa37a5e2ab)" d="M 317.323636 307.584 
L 318.591818 307.584 
L 318.591818 307.173604 
L 317.323636 307.173604 
z
" style="fill:#1f77b4;"/>
   </g>
   <g id="patch_196">
    <path clip-path="url(#pfa37a5e2ab)" d="M 318.591818 307.584 
L 319.86 307.584 
L 319.86 305.891421 
L 318.591818 305.891421 
z
" style="fill:#1f77b4;"/>
   </g>
   <g id="patch_197">
    <path clip-path="url(#pfa37a5e2ab)" d="M 319.86 307.584 
L 321.128182 307.584 
L 321.128182 307.091039 
L 319.86 307.091039 
z
" style="fill:#1f77b4;"/>
   </g>
   <g id="patch_198">
    <path clip-path="url(#pfa37a5e2ab)" d="M 321.128182 307.584 
L 322.396364 307.584 
L 322.396364 306.870057 
L 321.128182 306.870057 
z
" style="fill:#1f77b4;"/>
   </g>
   <g id="patch_199">
    <path clip-path="url(#pfa37a5e2ab)" d="M 322.396364 307.584 
L 323.664545 307.584 
L 323.664545 306.146401 
L 322.396364 306.146401 
z
" style="fill:#1f77b4;"/>
   </g>
   <g id="patch_200">
    <path clip-path="url(#pfa37a5e2ab)" d="M 323.664545 307.584 
L 324.932727 307.584 
L 324.932727 304.368829 
L 323.664545 304.368829 
z
" style="fill:#1f77b4;"/>
   </g>
   <g id="patch_201">
    <path clip-path="url(#pfa37a5e2ab)" d="M 324.932727 307.584 
L 326.200909 307.584 
L 326.200909 306.058979 
L 324.932727 306.058979 
z
" style="fill:#1f77b4;"/>
   </g>
   <g id="patch_202">
    <path clip-path="url(#pfa37a5e2ab)" d="M 326.200909 307.584 
L 327.469091 307.584 
L 327.469091 306.338243 
L 326.200909 306.338243 
z
" style="fill:#1f77b4;"/>
   </g>
   <g id="patch_203">
    <path clip-path="url(#pfa37a5e2ab)" d="M 327.469091 307.584 
L 328.737273 307.584 
L 328.737273 306.20711 
L 327.469091 306.20711 
z
" style="fill:#1f77b4;"/>
   </g>
   <g id="patch_204">
    <path clip-path="url(#pfa37a5e2ab)" d="M 328.737273 307.584 
L 330.005455 307.584 
L 330.005455 306.265391 
L 328.737273 306.265391 
z
" style="fill:#1f77b4;"/>
   </g>
   <g id="patch_205">
    <path clip-path="url(#pfa37a5e2ab)" d="M 330.005455 307.584 
L 331.273636 307.584 
L 331.273636 305.789429 
L 330.005455 305.789429 
z
" style="fill:#1f77b4;"/>
   </g>
   <g id="patch_206">
    <path clip-path="url(#pfa37a5e2ab)" d="M 331.273636 307.584 
L 332.541818 307.584 
L 332.541818 306.804491 
L 331.273636 306.804491 
z
" style="fill:#1f77b4;"/>
   </g>
   <g id="patch_207">
    <path clip-path="url(#pfa37a5e2ab)" d="M 332.541818 307.584 
L 333.81 307.584 
L 333.81 304.373686 
L 332.541818 304.373686 
z
" style="fill:#1f77b4;"/>
   </g>
   <g id="patch_208">
    <path clip-path="url(#pfa37a5e2ab)" d="M 333.81 307.584 
L 335.078182 307.584 
L 335.078182 305.35475 
L 333.81 305.35475 
z
" style="fill:#1f77b4;"/>
   </g>
   <g id="patch_209">
    <path clip-path="url(#pfa37a5e2ab)" d="M 335.078182 307.584 
L 336.346364 307.584 
L 336.346364 306.187683 
L 335.078182 306.187683 
z
" style="fill:#1f77b4;"/>
   </g>
   <g id="patch_210">
    <path clip-path="url(#pfa37a5e2ab)" d="M 336.346364 307.584 
L 337.614545 307.584 
L 337.614545 305.218761 
L 336.346364 305.218761 
z
" style="fill:#1f77b4;"/>
   </g>
   <g id="patch_211">
    <path clip-path="url(#pfa37a5e2ab)" d="M 337.614545 307.584 
L 338.882727 307.584 
L 338.882727 306.175541 
L 337.614545 306.175541 
z
" style="fill:#1f77b4;"/>
   </g>
   <g id="patch_212">
    <path clip-path="url(#pfa37a5e2ab)" d="M 338.882727 307.584 
L 340.150909 307.584 
L 340.150909 306.707356 
L 338.882727 306.707356 
z
" style="fill:#1f77b4;"/>
   </g>
   <g id="patch_213">
    <path clip-path="url(#pfa37a5e2ab)" d="M 340.150909 307.584 
L 341.419091 307.584 
L 341.419091 305.148338 
L 340.150909 305.148338 
z
" style="fill:#1f77b4;"/>
   </g>
   <g id="patch_214">
    <path clip-path="url(#pfa37a5e2ab)" d="M 341.419091 307.584 
L 342.687273 307.584 
L 342.687273 305.187192 
L 341.419091 305.187192 
z
" style="fill:#1f77b4;"/>
   </g>
   <g id="patch_215">
    <path clip-path="url(#pfa37a5e2ab)" d="M 342.687273 307.584 
L 343.955455 307.584 
L 343.955455 306.129402 
L 342.687273 306.129402 
z
" style="fill:#1f77b4;"/>
   </g>
   <g id="patch_216">
    <path clip-path="url(#pfa37a5e2ab)" d="M 343.955455 307.584 
L 345.223636 307.584 
L 345.223636 306.561653 
L 343.955455 306.561653 
z
" style="fill:#1f77b4;"/>
   </g>
   <g id="patch_217">
    <path clip-path="url(#pfa37a5e2ab)" d="M 345.223636 307.584 
L 346.491818 307.584 
L 346.491818 305.692294 
L 345.223636 305.692294 
z
" style="fill:#1f77b4;"/>
   </g>
   <g id="patch_218">
    <path clip-path="url(#pfa37a5e2ab)" d="M 346.491818 307.584 
L 347.76 307.584 
L 347.76 278.686313 
L 346.491818 278.686313 
z
" style="fill:#1f77b4;"/>
   </g>
   <g id="patch_219">
    <path clip-path="url(#pfa37a5e2ab)" d="M 347.76 307.584 
L 349.028182 307.584 
L 349.028182 306.479088 
L 347.76 306.479088 
z
" style="fill:#1f77b4;"/>
   </g>
   <g id="patch_220">
    <path clip-path="url(#pfa37a5e2ab)" d="M 349.028182 307.584 
L 350.296364 307.584 
L 350.296364 306.530084 
L 349.028182 306.530084 
z
" style="fill:#1f77b4;"/>
   </g>
   <g id="patch_221">
    <path clip-path="url(#pfa37a5e2ab)" d="M 350.296364 307.584 
L 351.564545 307.584 
L 351.564545 306.945337 
L 350.296364 306.945337 
z
" style="fill:#1f77b4;"/>
   </g>
   <g id="patch_222">
    <path clip-path="url(#pfa37a5e2ab)" d="M 351.564545 307.584 
L 352.832727 307.584 
L 352.832727 306.724355 
L 351.564545 306.724355 
z
" style="fill:#1f77b4;"/>
   </g>
   <g id="patch_223">
    <path clip-path="url(#pfa37a5e2ab)" d="M 352.832727 307.584 
L 354.100909 307.584 
L 354.100909 306.097833 
L 352.832727 306.097833 
z
" style="fill:#1f77b4;"/>
   </g>
   <g id="patch_224">
    <path clip-path="url(#pfa37a5e2ab)" d="M 354.100909 307.584 
L 355.369091 307.584 
L 355.369091 305.716578 
L 354.100909 305.716578 
z
" style="fill:#1f77b4;"/>
   </g>
   <g id="patch_225">
    <path clip-path="url(#pfa37a5e2ab)" d="M 355.369091 307.584 
L 356.637273 307.584 
L 356.637273 305.500452 
L 355.369091 305.500452 
z
" style="fill:#1f77b4;"/>
   </g>
   <g id="patch_226">
    <path clip-path="url(#pfa37a5e2ab)" d="M 356.637273 307.584 
L 357.905455 307.584 
L 357.905455 305.087628 
L 356.637273 305.087628 
z
" style="fill:#1f77b4;"/>
   </g>
   <g id="patch_227">
    <path clip-path="url(#pfa37a5e2ab)" d="M 357.905455 307.584 
L 359.173636 307.584 
L 359.173636 305.927847 
L 357.905455 305.927847 
z
" style="fill:#1f77b4;"/>
   </g>
   <g id="patch_228">
    <path clip-path="url(#pfa37a5e2ab)" d="M 359.173636 307.584 
L 360.441818 307.584 
L 360.441818 304.291121 
L 359.173636 304.291121 
z
" style="fill:#1f77b4;"/>
   </g>
   <g id="patch_229">
    <path clip-path="url(#pfa37a5e2ab)" d="M 360.441818 307.584 
L 361.71 307.584 
L 361.71 305.206619 
L 360.441818 305.206619 
z
" style="fill:#1f77b4;"/>
   </g>
   <g id="patch_230">
    <path clip-path="url(#pfa37a5e2ab)" d="M 361.71 307.584 
L 362.978182 307.584 
L 362.978182 305.403317 
L 361.71 305.403317 
z
" style="fill:#1f77b4;"/>
   </g>
   <g id="patch_231">
    <path clip-path="url(#pfa37a5e2ab)" d="M 362.978182 307.584 
L 364.246364 307.584 
L 364.246364 305.881708 
L 362.978182 305.881708 
z
" style="fill:#1f77b4;"/>
   </g>
   <g id="patch_232">
    <path clip-path="url(#pfa37a5e2ab)" d="M 364.246364 307.584 
L 365.514545 307.584 
L 365.514545 306.19254 
L 364.246364 306.19254 
z
" style="fill:#1f77b4;"/>
   </g>
   <g id="patch_233">
    <path clip-path="url(#pfa37a5e2ab)" d="M 365.514545 307.584 
L 366.782727 307.584 
L 366.782727 306.114832 
L 365.514545 306.114832 
z
" style="fill:#1f77b4;"/>
   </g>
   <g id="patch_234">
    <path clip-path="url(#pfa37a5e2ab)" d="M 366.782727 307.584 
L 368.050909 307.584 
L 368.050909 305.087628 
L 366.782727 305.087628 
z
" style="fill:#1f77b4;"/>
   </g>
   <g id="patch_235">
    <path clip-path="url(#pfa37a5e2ab)" d="M 368.050909 307.584 
L 369.319091 307.584 
L 369.319091 305.000207 
L 368.050909 305.000207 
z
" style="fill:#1f77b4;"/>
   </g>
   <g id="patch_236">
    <path clip-path="url(#pfa37a5e2ab)" d="M 369.319091 307.584 
L 370.587273 307.584 
L 370.587273 306.313959 
L 369.319091 306.313959 
z
" style="fill:#1f77b4;"/>
   </g>
   <g id="patch_237">
    <path clip-path="url(#pfa37a5e2ab)" d="M 370.587273 307.584 
L 371.855455 307.584 
L 371.855455 306.19254 
L 370.587273 306.19254 
z
" style="fill:#1f77b4;"/>
   </g>
   <g id="patch_238">
    <path clip-path="url(#pfa37a5e2ab)" d="M 371.855455 307.584 
L 373.123636 307.584 
L 373.123636 305.583017 
L 371.855455 305.583017 
z
" style="fill:#1f77b4;"/>
   </g>
   <g id="patch_239">
    <path clip-path="url(#pfa37a5e2ab)" d="M 373.123636 307.584 
L 374.391818 307.584 
L 374.391818 306.032267 
L 373.123636 306.032267 
z
" style="fill:#1f77b4;"/>
   </g>
   <g id="patch_240">
    <path clip-path="url(#pfa37a5e2ab)" d="M 374.391818 307.584 
L 375.66 307.584 
L 375.66 305.876851 
L 374.391818 305.876851 
z
" style="fill:#1f77b4;"/>
   </g>
   <g id="patch_241">
    <path clip-path="url(#pfa37a5e2ab)" d="M 375.66 307.584 
L 376.928182 307.584 
L 376.928182 306.423236 
L 375.66 306.423236 
z
" style="fill:#1f77b4;"/>
   </g>
   <g id="patch_242">
    <path clip-path="url(#pfa37a5e2ab)" d="M 376.928182 307.584 
L 378.196364 307.584 
L 378.196364 305.699579 
L 376.928182 305.699579 
z
" style="fill:#1f77b4;"/>
   </g>
   <g id="patch_243">
    <path clip-path="url(#pfa37a5e2ab)" d="M 378.196364 307.584 
L 379.464545 307.584 
L 379.464545 306.330957 
L 378.196364 306.330957 
z
" style="fill:#1f77b4;"/>
   </g>
   <g id="patch_244">
    <path clip-path="url(#pfa37a5e2ab)" d="M 379.464545 307.584 
L 380.732727 307.584 
L 380.732727 305.801571 
L 379.464545 305.801571 
z
" style="fill:#1f77b4;"/>
   </g>
   <g id="patch_245">
    <path clip-path="url(#pfa37a5e2ab)" d="M 380.732727 307.584 
L 382.000909 307.584 
L 382.000909 305.942417 
L 380.732727 305.942417 
z
" style="fill:#1f77b4;"/>
   </g>
   <g id="patch_246">
    <path clip-path="url(#pfa37a5e2ab)" d="M 382.000909 307.584 
L 383.269091 307.584 
L 383.269091 304.937069 
L 382.000909 304.937069 
z
" style="fill:#1f77b4;"/>
   </g>
   <g id="patch_247">
    <path clip-path="url(#pfa37a5e2ab)" d="M 383.269091 307.584 
L 384.537273 307.584 
L 384.537273 306.136687 
L 383.269091 306.136687 
z
" style="fill:#1f77b4;"/>
   </g>
   <g id="patch_248">
    <path clip-path="url(#pfa37a5e2ab)" d="M 384.537273 307.584 
L 385.805455 307.584 
L 385.805455 305.590302 
L 384.537273 305.590302 
z
" style="fill:#1f77b4;"/>
   </g>
   <g id="patch_249">
    <path clip-path="url(#pfa37a5e2ab)" d="M 385.805455 307.584 
L 387.073636 307.584 
L 387.073636 305.9837 
L 385.805455 305.9837 
z
" style="fill:#1f77b4;"/>
   </g>
   <g id="patch_250">
    <path clip-path="url(#pfa37a5e2ab)" d="M 387.073636 307.584 
L 388.341818 307.584 
L 388.341818 303.939006 
L 387.073636 303.939006 
z
" style="fill:#1f77b4;"/>
   </g>
   <g id="patch_251">
    <path clip-path="url(#pfa37a5e2ab)" d="M 388.341818 307.584 
L 389.61 307.584 
L 389.61 304.686946 
L 388.341818 304.686946 
z
" style="fill:#1f77b4;"/>
   </g>
   <g id="patch_252">
    <path clip-path="url(#pfa37a5e2ab)" d="M 389.61 307.584 
L 390.878182 307.584 
L 390.878182 306.391667 
L 389.61 306.391667 
z
" style="fill:#1f77b4;"/>
   </g>
   <g id="patch_253">
    <path clip-path="url(#pfa37a5e2ab)" d="M 390.878182 307.584 
L 392.146364 307.584 
L 392.146364 305.823427 
L 390.878182 305.823427 
z
" style="fill:#1f77b4;"/>
   </g>
   <g id="patch_254">
    <path clip-path="url(#pfa37a5e2ab)" d="M 392.146364 307.584 
L 393.414545 307.584 
L 393.414545 305.301326 
L 392.146364 305.301326 
z
" style="fill:#1f77b4;"/>
   </g>
   <g id="patch_255">
    <path clip-path="url(#pfa37a5e2ab)" d="M 393.414545 307.584 
L 394.682727 307.584 
L 394.682727 305.993413 
L 393.414545 305.993413 
z
" style="fill:#1f77b4;"/>
   </g>
   <g id="patch_256">
    <path clip-path="url(#pfa37a5e2ab)" d="M 394.682727 307.584 
L 395.950909 307.584 
L 395.950909 305.920562 
L 394.682727 305.920562 
z
" style="fill:#1f77b4;"/>
   </g>
   <g id="patch_257">
    <path clip-path="url(#pfa37a5e2ab)" d="M 395.950909 307.584 
L 397.219091 307.584 
L 397.219091 305.102199 
L 395.950909 305.102199 
z
" style="fill:#1f77b4;"/>
   </g>
   <g id="patch_258">
    <path clip-path="url(#pfa37a5e2ab)" d="M 397.219091 307.584 
L 398.487273 307.584 
L 398.487273 54.144 
L 397.219091 54.144 
z
" style="fill:#1f77b4;"/>
   </g>
   <g id="matplotlib.axis_1">
    <g id="xtick_1">
     <g id="line2d_1">
      <defs>
       <path d="M 0 0 
L 0 3.5 
" id="m968187aa03" style="stroke:#000000;stroke-width:0.8;"/>
      </defs>
      <g>
       <use style="stroke:#000000;stroke-width:0.8;" x="73.832727" xlink:href="#m968187aa03" y="307.584"/>
      </g>
     </g>
     <g id="text_1">
      <!-- 0 -->
      <defs>
       <path d="M 31.78125 66.40625 
Q 24.171875 66.40625 20.328125 58.90625 
Q 16.5 51.421875 16.5 36.375 
Q 16.5 21.390625 20.328125 13.890625 
Q 24.171875 6.390625 31.78125 6.390625 
Q 39.453125 6.390625 43.28125 13.890625 
Q 47.125 21.390625 47.125 36.375 
Q 47.125 51.421875 43.28125 58.90625 
Q 39.453125 66.40625 31.78125 66.40625 
z
M 31.78125 74.21875 
Q 44.046875 74.21875 50.515625 64.515625 
Q 56.984375 54.828125 56.984375 36.375 
Q 56.984375 17.96875 50.515625 8.265625 
Q 44.046875 -1.421875 31.78125 -1.421875 
Q 19.53125 -1.421875 13.0625 8.265625 
Q 6.59375 17.96875 6.59375 36.375 
Q 6.59375 54.828125 13.0625 64.515625 
Q 19.53125 74.21875 31.78125 74.21875 
z
" id="DejaVuSans-48"/>
      </defs>
      <g transform="translate(70.651477 322.182437)scale(0.1 -0.1)">
       <use xlink:href="#DejaVuSans-48"/>
      </g>
     </g>
    </g>
    <g id="xtick_2">
     <g id="line2d_2">
      <g>
       <use style="stroke:#000000;stroke-width:0.8;" x="137.490481" xlink:href="#m968187aa03" y="307.584"/>
      </g>
     </g>
     <g id="text_2">
      <!-- 50 -->
      <defs>
       <path d="M 10.796875 72.90625 
L 49.515625 72.90625 
L 49.515625 64.59375 
L 19.828125 64.59375 
L 19.828125 46.734375 
Q 21.96875 47.46875 24.109375 47.828125 
Q 26.265625 48.1875 28.421875 48.1875 
Q 40.625 48.1875 47.75 41.5 
Q 54.890625 34.8125 54.890625 23.390625 
Q 54.890625 11.625 47.5625 5.09375 
Q 40.234375 -1.421875 26.90625 -1.421875 
Q 22.3125 -1.421875 17.546875 -0.640625 
Q 12.796875 0.140625 7.71875 1.703125 
L 7.71875 11.625 
Q 12.109375 9.234375 16.796875 8.0625 
Q 21.484375 6.890625 26.703125 6.890625 
Q 35.15625 6.890625 40.078125 11.328125 
Q 45.015625 15.765625 45.015625 23.390625 
Q 45.015625 31 40.078125 35.4375 
Q 35.15625 39.890625 26.703125 39.890625 
Q 22.75 39.890625 18.8125 39.015625 
Q 14.890625 38.140625 10.796875 36.28125 
z
" id="DejaVuSans-53"/>
      </defs>
      <g transform="translate(131.127981 322.182437)scale(0.1 -0.1)">
       <use xlink:href="#DejaVuSans-53"/>
       <use x="63.623047" xlink:href="#DejaVuSans-48"/>
      </g>
     </g>
    </g>
    <g id="xtick_3">
     <g id="line2d_3">
      <g>
       <use style="stroke:#000000;stroke-width:0.8;" x="201.148235" xlink:href="#m968187aa03" y="307.584"/>
      </g>
     </g>
     <g id="text_3">
      <!-- 100 -->
      <defs>
       <path d="M 12.40625 8.296875 
L 28.515625 8.296875 
L 28.515625 63.921875 
L 10.984375 60.40625 
L 10.984375 69.390625 
L 28.421875 72.90625 
L 38.28125 72.90625 
L 38.28125 8.296875 
L 54.390625 8.296875 
L 54.390625 0 
L 12.40625 0 
z
" id="DejaVuSans-49"/>
      </defs>
      <g transform="translate(191.604485 322.182437)scale(0.1 -0.1)">
       <use xlink:href="#DejaVuSans-49"/>
       <use x="63.623047" xlink:href="#DejaVuSans-48"/>
       <use x="127.246094" xlink:href="#DejaVuSans-48"/>
      </g>
     </g>
    </g>
    <g id="xtick_4">
     <g id="line2d_4">
      <g>
       <use style="stroke:#000000;stroke-width:0.8;" x="264.805989" xlink:href="#m968187aa03" y="307.584"/>
      </g>
     </g>
     <g id="text_4">
      <!-- 150 -->
      <g transform="translate(255.262239 322.182437)scale(0.1 -0.1)">
       <use xlink:href="#DejaVuSans-49"/>
       <use x="63.623047" xlink:href="#DejaVuSans-53"/>
       <use x="127.246094" xlink:href="#DejaVuSans-48"/>
      </g>
     </g>
    </g>
    <g id="xtick_5">
     <g id="line2d_5">
      <g>
       <use style="stroke:#000000;stroke-width:0.8;" x="328.463743" xlink:href="#m968187aa03" y="307.584"/>
      </g>
     </g>
     <g id="text_5">
      <!-- 200 -->
      <defs>
       <path d="M 19.1875 8.296875 
L 53.609375 8.296875 
L 53.609375 0 
L 7.328125 0 
L 7.328125 8.296875 
Q 12.9375 14.109375 22.625 23.890625 
Q 32.328125 33.6875 34.8125 36.53125 
Q 39.546875 41.84375 41.421875 45.53125 
Q 43.3125 49.21875 43.3125 52.78125 
Q 43.3125 58.59375 39.234375 62.25 
Q 35.15625 65.921875 28.609375 65.921875 
Q 23.96875 65.921875 18.8125 64.3125 
Q 13.671875 62.703125 7.8125 59.421875 
L 7.8125 69.390625 
Q 13.765625 71.78125 18.9375 73 
Q 24.125 74.21875 28.421875 74.21875 
Q 39.75 74.21875 46.484375 68.546875 
Q 53.21875 62.890625 53.21875 53.421875 
Q 53.21875 48.921875 51.53125 44.890625 
Q 49.859375 40.875 45.40625 35.40625 
Q 44.1875 33.984375 37.640625 27.21875 
Q 31.109375 20.453125 19.1875 8.296875 
z
" id="DejaVuSans-50"/>
      </defs>
      <g transform="translate(318.919993 322.182437)scale(0.1 -0.1)">
       <use xlink:href="#DejaVuSans-50"/>
       <use x="63.623047" xlink:href="#DejaVuSans-48"/>
       <use x="127.246094" xlink:href="#DejaVuSans-48"/>
      </g>
     </g>
    </g>
    <g id="xtick_6">
     <g id="line2d_6">
      <g>
       <use style="stroke:#000000;stroke-width:0.8;" x="392.121497" xlink:href="#m968187aa03" y="307.584"/>
      </g>
     </g>
     <g id="text_6">
      <!-- 250 -->
      <g transform="translate(382.577747 322.182437)scale(0.1 -0.1)">
       <use xlink:href="#DejaVuSans-50"/>
       <use x="63.623047" xlink:href="#DejaVuSans-53"/>
       <use x="127.246094" xlink:href="#DejaVuSans-48"/>
      </g>
     </g>
    </g>
   </g>
   <g id="matplotlib.axis_2">
    <g id="ytick_1">
     <g id="line2d_7">
      <defs>
       <path d="M 0 0 
L -3.5 0 
" id="m14ee641bff" style="stroke:#000000;stroke-width:0.8;"/>
      </defs>
      <g>
       <use style="stroke:#000000;stroke-width:0.8;" x="57.6" xlink:href="#m14ee641bff" y="307.584"/>
      </g>
     </g>
     <g id="text_7">
      <!-- 0 -->
      <g transform="translate(44.2375 311.383219)scale(0.1 -0.1)">
       <use xlink:href="#DejaVuSans-48"/>
      </g>
     </g>
    </g>
    <g id="ytick_2">
     <g id="line2d_8">
      <g>
       <use style="stroke:#000000;stroke-width:0.8;" x="57.6" xlink:href="#m14ee641bff" y="259.016459"/>
      </g>
     </g>
     <g id="text_8">
      <!-- 20000 -->
      <g transform="translate(18.7875 262.815678)scale(0.1 -0.1)">
       <use xlink:href="#DejaVuSans-50"/>
       <use x="63.623047" xlink:href="#DejaVuSans-48"/>
       <use x="127.246094" xlink:href="#DejaVuSans-48"/>
       <use x="190.869141" xlink:href="#DejaVuSans-48"/>
       <use x="254.492188" xlink:href="#DejaVuSans-48"/>
      </g>
     </g>
    </g>
    <g id="ytick_3">
     <g id="line2d_9">
      <g>
       <use style="stroke:#000000;stroke-width:0.8;" x="57.6" xlink:href="#m14ee641bff" y="210.448918"/>
      </g>
     </g>
     <g id="text_9">
      <!-- 40000 -->
      <defs>
       <path d="M 37.796875 64.3125 
L 12.890625 25.390625 
L 37.796875 25.390625 
z
M 35.203125 72.90625 
L 47.609375 72.90625 
L 47.609375 25.390625 
L 58.015625 25.390625 
L 58.015625 17.1875 
L 47.609375 17.1875 
L 47.609375 0 
L 37.796875 0 
L 37.796875 17.1875 
L 4.890625 17.1875 
L 4.890625 26.703125 
z
" id="DejaVuSans-52"/>
      </defs>
      <g transform="translate(18.7875 214.248136)scale(0.1 -0.1)">
       <use xlink:href="#DejaVuSans-52"/>
       <use x="63.623047" xlink:href="#DejaVuSans-48"/>
       <use x="127.246094" xlink:href="#DejaVuSans-48"/>
       <use x="190.869141" xlink:href="#DejaVuSans-48"/>
       <use x="254.492188" xlink:href="#DejaVuSans-48"/>
      </g>
     </g>
    </g>
    <g id="ytick_4">
     <g id="line2d_10">
      <g>
       <use style="stroke:#000000;stroke-width:0.8;" x="57.6" xlink:href="#m14ee641bff" y="161.881377"/>
      </g>
     </g>
     <g id="text_10">
      <!-- 60000 -->
      <defs>
       <path d="M 33.015625 40.375 
Q 26.375 40.375 22.484375 35.828125 
Q 18.609375 31.296875 18.609375 23.390625 
Q 18.609375 15.53125 22.484375 10.953125 
Q 26.375 6.390625 33.015625 6.390625 
Q 39.65625 6.390625 43.53125 10.953125 
Q 47.40625 15.53125 47.40625 23.390625 
Q 47.40625 31.296875 43.53125 35.828125 
Q 39.65625 40.375 33.015625 40.375 
z
M 52.59375 71.296875 
L 52.59375 62.3125 
Q 48.875 64.0625 45.09375 64.984375 
Q 41.3125 65.921875 37.59375 65.921875 
Q 27.828125 65.921875 22.671875 59.328125 
Q 17.53125 52.734375 16.796875 39.40625 
Q 19.671875 43.65625 24.015625 45.921875 
Q 28.375 48.1875 33.59375 48.1875 
Q 44.578125 48.1875 50.953125 41.515625 
Q 57.328125 34.859375 57.328125 23.390625 
Q 57.328125 12.15625 50.6875 5.359375 
Q 44.046875 -1.421875 33.015625 -1.421875 
Q 20.359375 -1.421875 13.671875 8.265625 
Q 6.984375 17.96875 6.984375 36.375 
Q 6.984375 53.65625 15.1875 63.9375 
Q 23.390625 74.21875 37.203125 74.21875 
Q 40.921875 74.21875 44.703125 73.484375 
Q 48.484375 72.75 52.59375 71.296875 
z
" id="DejaVuSans-54"/>
      </defs>
      <g transform="translate(18.7875 165.680595)scale(0.1 -0.1)">
       <use xlink:href="#DejaVuSans-54"/>
       <use x="63.623047" xlink:href="#DejaVuSans-48"/>
       <use x="127.246094" xlink:href="#DejaVuSans-48"/>
       <use x="190.869141" xlink:href="#DejaVuSans-48"/>
       <use x="254.492188" xlink:href="#DejaVuSans-48"/>
      </g>
     </g>
    </g>
    <g id="ytick_5">
     <g id="line2d_11">
      <g>
       <use style="stroke:#000000;stroke-width:0.8;" x="57.6" xlink:href="#m14ee641bff" y="113.313835"/>
      </g>
     </g>
     <g id="text_11">
      <!-- 80000 -->
      <defs>
       <path d="M 31.78125 34.625 
Q 24.75 34.625 20.71875 30.859375 
Q 16.703125 27.09375 16.703125 20.515625 
Q 16.703125 13.921875 20.71875 10.15625 
Q 24.75 6.390625 31.78125 6.390625 
Q 38.8125 6.390625 42.859375 10.171875 
Q 46.921875 13.96875 46.921875 20.515625 
Q 46.921875 27.09375 42.890625 30.859375 
Q 38.875 34.625 31.78125 34.625 
z
M 21.921875 38.8125 
Q 15.578125 40.375 12.03125 44.71875 
Q 8.5 49.078125 8.5 55.328125 
Q 8.5 64.0625 14.71875 69.140625 
Q 20.953125 74.21875 31.78125 74.21875 
Q 42.671875 74.21875 48.875 69.140625 
Q 55.078125 64.0625 55.078125 55.328125 
Q 55.078125 49.078125 51.53125 44.71875 
Q 48 40.375 41.703125 38.8125 
Q 48.828125 37.15625 52.796875 32.3125 
Q 56.78125 27.484375 56.78125 20.515625 
Q 56.78125 9.90625 50.3125 4.234375 
Q 43.84375 -1.421875 31.78125 -1.421875 
Q 19.734375 -1.421875 13.25 4.234375 
Q 6.78125 9.90625 6.78125 20.515625 
Q 6.78125 27.484375 10.78125 32.3125 
Q 14.796875 37.15625 21.921875 38.8125 
z
M 18.3125 54.390625 
Q 18.3125 48.734375 21.84375 45.5625 
Q 25.390625 42.390625 31.78125 42.390625 
Q 38.140625 42.390625 41.71875 45.5625 
Q 45.3125 48.734375 45.3125 54.390625 
Q 45.3125 60.0625 41.71875 63.234375 
Q 38.140625 66.40625 31.78125 66.40625 
Q 25.390625 66.40625 21.84375 63.234375 
Q 18.3125 60.0625 18.3125 54.390625 
z
" id="DejaVuSans-56"/>
      </defs>
      <g transform="translate(18.7875 117.113054)scale(0.1 -0.1)">
       <use xlink:href="#DejaVuSans-56"/>
       <use x="63.623047" xlink:href="#DejaVuSans-48"/>
       <use x="127.246094" xlink:href="#DejaVuSans-48"/>
       <use x="190.869141" xlink:href="#DejaVuSans-48"/>
       <use x="254.492188" xlink:href="#DejaVuSans-48"/>
      </g>
     </g>
    </g>
    <g id="ytick_6">
     <g id="line2d_12">
      <g>
       <use style="stroke:#000000;stroke-width:0.8;" x="57.6" xlink:href="#m14ee641bff" y="64.746294"/>
      </g>
     </g>
     <g id="text_12">
      <!-- 100000 -->
      <g transform="translate(12.425 68.545513)scale(0.1 -0.1)">
       <use xlink:href="#DejaVuSans-49"/>
       <use x="63.623047" xlink:href="#DejaVuSans-48"/>
       <use x="127.246094" xlink:href="#DejaVuSans-48"/>
       <use x="190.869141" xlink:href="#DejaVuSans-48"/>
       <use x="254.492188" xlink:href="#DejaVuSans-48"/>
       <use x="318.115234" xlink:href="#DejaVuSans-48"/>
      </g>
     </g>
    </g>
   </g>
   <g id="patch_259">
    <path d="M 57.6 307.584 
L 57.6 41.472 
" style="fill:none;stroke:#000000;stroke-linecap:square;stroke-linejoin:miter;stroke-width:0.8;"/>
   </g>
   <g id="patch_260">
    <path d="M 414.72 307.584 
L 414.72 41.472 
" style="fill:none;stroke:#000000;stroke-linecap:square;stroke-linejoin:miter;stroke-width:0.8;"/>
   </g>
   <g id="patch_261">
    <path d="M 57.6 307.584 
L 414.72 307.584 
" style="fill:none;stroke:#000000;stroke-linecap:square;stroke-linejoin:miter;stroke-width:0.8;"/>
   </g>
   <g id="patch_262">
    <path d="M 57.6 41.472 
L 414.72 41.472 
" style="fill:none;stroke:#000000;stroke-linecap:square;stroke-linejoin:miter;stroke-width:0.8;"/>
   </g>
  </g>
 </g>
 <defs>
  <clipPath id="pfa37a5e2ab">
   <rect height="266.112" width="357.12" x="57.6" y="41.472"/>
  </clipPath>
 </defs>
</svg>
