<?xml version="1.0" encoding="utf-8" standalone="no"?>
<!DOCTYPE svg PUBLIC "-//W3C//DTD SVG 1.1//EN"
  "http://www.w3.org/Graphics/SVG/1.1/DTD/svg11.dtd">
<!-- Created with matplotlib (https://matplotlib.org/) -->
<svg height="345.6pt" version="1.1" viewBox="0 0 460.8 345.6" width="460.8pt" xmlns="http://www.w3.org/2000/svg" xmlns:xlink="http://www.w3.org/1999/xlink">
 <defs>
  <style type="text/css">
*{stroke-linecap:butt;stroke-linejoin:round;}
  </style>
 </defs>
 <g id="figure_1">
  <g id="patch_1">
   <path d="M 0 345.6 
L 460.8 345.6 
L 460.8 0 
L 0 0 
z
" style="fill:#ffffff;"/>
  </g>
  <g id="axes_1">
   <g id="patch_2">
    <path d="M 57.6 307.584 
L 414.72 307.584 
L 414.72 41.472 
L 57.6 41.472 
z
" style="fill:#ffffff;"/>
   </g>
   <g id="patch_3">
    <path clip-path="url(#p2659badf1b)" d="M 73.832727 307.584 
L 75.100909 307.584 
L 75.100909 307.199612 
L 73.832727 307.199612 
z
" style="fill:#1f77b4;"/>
   </g>
   <g id="patch_4">
    <path clip-path="url(#p2659badf1b)" d="M 75.100909 307.584 
L 76.369091 307.584 
L 76.369091 307.337411 
L 75.100909 307.337411 
z
" style="fill:#1f77b4;"/>
   </g>
   <g id="patch_5">
    <path clip-path="url(#p2659badf1b)" d="M 76.369091 307.584 
L 77.637273 307.584 
L 77.637273 307.168184 
L 76.369091 307.168184 
z
" style="fill:#1f77b4;"/>
   </g>
   <g id="patch_6">
    <path clip-path="url(#p2659badf1b)" d="M 77.637273 307.584 
L 78.905455 307.584 
L 78.905455 307.10291 
L 77.637273 307.10291 
z
" style="fill:#1f77b4;"/>
   </g>
   <g id="patch_7">
    <path clip-path="url(#p2659badf1b)" d="M 78.905455 307.584 
L 80.173636 307.584 
L 80.173636 307.443783 
L 78.905455 307.443783 
z
" style="fill:#1f77b4;"/>
   </g>
   <g id="patch_8">
    <path clip-path="url(#p2659badf1b)" d="M 80.173636 307.584 
L 81.441818 307.584 
L 81.441818 306.807971 
L 80.173636 306.807971 
z
" style="fill:#1f77b4;"/>
   </g>
   <g id="patch_9">
    <path clip-path="url(#p2659badf1b)" d="M 81.441818 307.584 
L 82.71 307.584 
L 82.71 306.312376 
L 81.441818 306.312376 
z
" style="fill:#1f77b4;"/>
   </g>
   <g id="patch_10">
    <path clip-path="url(#p2659badf1b)" d="M 82.71 307.584 
L 83.978182 307.584 
L 83.978182 307.424443 
L 82.71 307.424443 
z
" style="fill:#1f77b4;"/>
   </g>
   <g id="patch_11">
    <path clip-path="url(#p2659badf1b)" d="M 83.978182 307.584 
L 85.246364 307.584 
L 85.246364 306.135896 
L 83.978182 306.135896 
z
" style="fill:#1f77b4;"/>
   </g>
   <g id="patch_12">
    <path clip-path="url(#p2659badf1b)" d="M 85.246364 307.584 
L 86.514545 307.584 
L 86.514545 306.694347 
L 85.246364 306.694347 
z
" style="fill:#1f77b4;"/>
   </g>
   <g id="patch_13">
    <path clip-path="url(#p2659badf1b)" d="M 86.514545 307.584 
L 87.782727 307.584 
L 87.782727 307.441365 
L 86.514545 307.441365 
z
" style="fill:#1f77b4;"/>
   </g>
   <g id="patch_14">
    <path clip-path="url(#p2659badf1b)" d="M 87.782727 307.584 
L 89.050909 307.584 
L 89.050909 307.584 
L 87.782727 307.584 
z
" style="fill:#1f77b4;"/>
   </g>
   <g id="patch_15">
    <path clip-path="url(#p2659badf1b)" d="M 89.050909 307.584 
L 90.319091 307.584 
L 90.319091 306.510614 
L 89.050909 306.510614 
z
" style="fill:#1f77b4;"/>
   </g>
   <g id="patch_16">
    <path clip-path="url(#p2659badf1b)" d="M 90.319091 307.584 
L 91.587273 307.584 
L 91.587273 307.443783 
L 90.319091 307.443783 
z
" style="fill:#1f77b4;"/>
   </g>
   <g id="patch_17">
    <path clip-path="url(#p2659badf1b)" d="M 91.587273 307.584 
L 92.855455 307.584 
L 92.855455 306.940935 
L 91.587273 306.940935 
z
" style="fill:#1f77b4;"/>
   </g>
   <g id="patch_18">
    <path clip-path="url(#p2659badf1b)" d="M 92.855455 307.584 
L 94.123636 307.584 
L 94.123636 305.855462 
L 92.855455 305.855462 
z
" style="fill:#1f77b4;"/>
   </g>
   <g id="patch_19">
    <path clip-path="url(#p2659badf1b)" d="M 94.123636 307.584 
L 95.391818 307.584 
L 95.391818 306.08271 
L 94.123636 306.08271 
z
" style="fill:#1f77b4;"/>
   </g>
   <g id="patch_20">
    <path clip-path="url(#p2659badf1b)" d="M 95.391818 307.584 
L 96.66 307.584 
L 96.66 306.90709 
L 95.391818 306.90709 
z
" style="fill:#1f77b4;"/>
   </g>
   <g id="patch_21">
    <path clip-path="url(#p2659badf1b)" d="M 96.66 307.584 
L 97.928182 307.584 
L 97.928182 307.405102 
L 96.66 307.405102 
z
" style="fill:#1f77b4;"/>
   </g>
   <g id="patch_22">
    <path clip-path="url(#p2659badf1b)" d="M 97.928182 307.584 
L 99.196364 307.584 
L 99.196364 306.491274 
L 97.928182 306.491274 
z
" style="fill:#1f77b4;"/>
   </g>
   <g id="patch_23">
    <path clip-path="url(#p2659badf1b)" d="M 99.196364 307.584 
L 100.464545 307.584 
L 100.464545 306.672589 
L 99.196364 306.672589 
z
" style="fill:#1f77b4;"/>
   </g>
   <g id="patch_24">
    <path clip-path="url(#p2659badf1b)" d="M 100.464545 307.584 
L 101.732727 307.584 
L 101.732727 307.301148 
L 100.464545 307.301148 
z
" style="fill:#1f77b4;"/>
   </g>
   <g id="patch_25">
    <path clip-path="url(#p2659badf1b)" d="M 101.732727 307.584 
L 103.000909 307.584 
L 103.000909 306.822476 
L 101.732727 306.822476 
z
" style="fill:#1f77b4;"/>
   </g>
   <g id="patch_26">
    <path clip-path="url(#p2659badf1b)" d="M 103.000909 307.584 
L 104.269091 307.584 
L 104.269091 305.504919 
L 103.000909 305.504919 
z
" style="fill:#1f77b4;"/>
   </g>
   <g id="patch_27">
    <path clip-path="url(#p2659badf1b)" d="M 104.269091 307.584 
L 105.537273 307.584 
L 105.537273 307.584 
L 104.269091 307.584 
z
" style="fill:#1f77b4;"/>
   </g>
   <g id="patch_28">
    <path clip-path="url(#p2659badf1b)" d="M 105.537273 307.584 
L 106.805455 307.584 
L 106.805455 306.421165 
L 105.537273 306.421165 
z
" style="fill:#1f77b4;"/>
   </g>
   <g id="patch_29">
    <path clip-path="url(#p2659badf1b)" d="M 106.805455 307.584 
L 108.073636 307.584 
L 108.073636 306.213257 
L 106.805455 306.213257 
z
" style="fill:#1f77b4;"/>
   </g>
   <g id="patch_30">
    <path clip-path="url(#p2659badf1b)" d="M 108.073636 307.584 
L 109.341818 307.584 
L 109.341818 306.539624 
L 108.073636 306.539624 
z
" style="fill:#1f77b4;"/>
   </g>
   <g id="patch_31">
    <path clip-path="url(#p2659badf1b)" d="M 109.341818 307.584 
L 110.61 307.584 
L 110.61 307.584 
L 109.341818 307.584 
z
" style="fill:#1f77b4;"/>
   </g>
   <g id="patch_32">
    <path clip-path="url(#p2659badf1b)" d="M 110.61 307.584 
L 111.878182 307.584 
L 111.878182 305.734585 
L 110.61 305.734585 
z
" style="fill:#1f77b4;"/>
   </g>
   <g id="patch_33">
    <path clip-path="url(#p2659badf1b)" d="M 111.878182 307.584 
L 113.146364 307.584 
L 113.146364 307.100493 
L 111.878182 307.100493 
z
" style="fill:#1f77b4;"/>
   </g>
   <g id="patch_34">
    <path clip-path="url(#p2659badf1b)" d="M 113.146364 307.584 
L 114.414545 307.584 
L 114.414545 307.584 
L 113.146364 307.584 
z
" style="fill:#1f77b4;"/>
   </g>
   <g id="patch_35">
    <path clip-path="url(#p2659badf1b)" d="M 114.414545 307.584 
L 115.682727 307.584 
L 115.682727 305.408217 
L 114.414545 305.408217 
z
" style="fill:#1f77b4;"/>
   </g>
   <g id="patch_36">
    <path clip-path="url(#p2659badf1b)" d="M 115.682727 307.584 
L 116.950909 307.584 
L 116.950909 305.981173 
L 115.682727 305.981173 
z
" style="fill:#1f77b4;"/>
   </g>
   <g id="patch_37">
    <path clip-path="url(#p2659badf1b)" d="M 116.950909 307.584 
L 118.219091 307.584 
L 118.219091 307.584 
L 116.950909 307.584 
z
" style="fill:#1f77b4;"/>
   </g>
   <g id="patch_38">
    <path clip-path="url(#p2659badf1b)" d="M 118.219091 307.584 
L 119.487273 307.584 
L 119.487273 306.858739 
L 118.219091 306.858739 
z
" style="fill:#1f77b4;"/>
   </g>
   <g id="patch_39">
    <path clip-path="url(#p2659badf1b)" d="M 119.487273 307.584 
L 120.755455 307.584 
L 120.755455 307.175436 
L 119.487273 307.175436 
z
" style="fill:#1f77b4;"/>
   </g>
   <g id="patch_40">
    <path clip-path="url(#p2659badf1b)" d="M 120.755455 307.584 
L 122.023636 307.584 
L 122.023636 307.584 
L 120.755455 307.584 
z
" style="fill:#1f77b4;"/>
   </g>
   <g id="patch_41">
    <path clip-path="url(#p2659badf1b)" d="M 122.023636 307.584 
L 123.291818 307.584 
L 123.291818 306.338969 
L 122.023636 306.338969 
z
" style="fill:#1f77b4;"/>
   </g>
   <g id="patch_42">
    <path clip-path="url(#p2659badf1b)" d="M 123.291818 307.584 
L 124.56 307.584 
L 124.56 306.92643 
L 123.291818 306.92643 
z
" style="fill:#1f77b4;"/>
   </g>
   <g id="patch_43">
    <path clip-path="url(#p2659badf1b)" d="M 124.56 307.584 
L 125.828182 307.584 
L 125.828182 303.996376 
L 124.56 303.996376 
z
" style="fill:#1f77b4;"/>
   </g>
   <g id="patch_44">
    <path clip-path="url(#p2659badf1b)" d="M 125.828182 307.584 
L 127.096364 307.584 
L 127.096364 305.756343 
L 125.828182 305.756343 
z
" style="fill:#1f77b4;"/>
   </g>
   <g id="patch_45">
    <path clip-path="url(#p2659badf1b)" d="M 127.096364 307.584 
L 128.364545 307.584 
L 128.364545 307.584 
L 127.096364 307.584 
z
" style="fill:#1f77b4;"/>
   </g>
   <g id="patch_46">
    <path clip-path="url(#p2659badf1b)" d="M 128.364545 307.584 
L 129.632727 307.584 
L 129.632727 305.173716 
L 128.364545 305.173716 
z
" style="fill:#1f77b4;"/>
   </g>
   <g id="patch_47">
    <path clip-path="url(#p2659badf1b)" d="M 129.632727 307.584 
L 130.900909 307.584 
L 130.900909 306.322046 
L 129.632727 306.322046 
z
" style="fill:#1f77b4;"/>
   </g>
   <g id="patch_48">
    <path clip-path="url(#p2659badf1b)" d="M 130.900909 307.584 
L 132.169091 307.584 
L 132.169091 307.584 
L 130.900909 307.584 
z
" style="fill:#1f77b4;"/>
   </g>
   <g id="patch_49">
    <path clip-path="url(#p2659badf1b)" d="M 132.169091 307.584 
L 133.437273 307.584 
L 133.437273 305.630631 
L 132.169091 305.630631 
z
" style="fill:#1f77b4;"/>
   </g>
   <g id="patch_50">
    <path clip-path="url(#p2659badf1b)" d="M 133.437273 307.584 
L 134.705455 307.584 
L 134.705455 304.815921 
L 133.437273 304.815921 
z
" style="fill:#1f77b4;"/>
   </g>
   <g id="patch_51">
    <path clip-path="url(#p2659badf1b)" d="M 134.705455 307.584 
L 135.973636 307.584 
L 135.973636 306.953023 
L 134.705455 306.953023 
z
" style="fill:#1f77b4;"/>
   </g>
   <g id="patch_52">
    <path clip-path="url(#p2659badf1b)" d="M 135.973636 307.584 
L 137.241818 307.584 
L 137.241818 306.358309 
L 135.973636 306.358309 
z
" style="fill:#1f77b4;"/>
   </g>
   <g id="patch_53">
    <path clip-path="url(#p2659badf1b)" d="M 137.241818 307.584 
L 138.51 307.584 
L 138.51 307.584 
L 137.241818 307.584 
z
" style="fill:#1f77b4;"/>
   </g>
   <g id="patch_54">
    <path clip-path="url(#p2659badf1b)" d="M 138.51 307.584 
L 139.778182 307.584 
L 139.778182 306.665336 
L 138.51 306.665336 
z
" style="fill:#1f77b4;"/>
   </g>
   <g id="patch_55">
    <path clip-path="url(#p2659badf1b)" d="M 139.778182 307.584 
L 141.046364 307.584 
L 141.046364 307.584 
L 139.778182 307.584 
z
" style="fill:#1f77b4;"/>
   </g>
   <g id="patch_56">
    <path clip-path="url(#p2659badf1b)" d="M 141.046364 307.584 
L 142.314545 307.584 
L 142.314545 306.094798 
L 141.046364 306.094798 
z
" style="fill:#1f77b4;"/>
   </g>
   <g id="patch_57">
    <path clip-path="url(#p2659badf1b)" d="M 142.314545 307.584 
L 143.582727 307.584 
L 143.582727 307.182689 
L 142.314545 307.182689 
z
" style="fill:#1f77b4;"/>
   </g>
   <g id="patch_58">
    <path clip-path="url(#p2659badf1b)" d="M 143.582727 307.584 
L 144.850909 307.584 
L 144.850909 307.584 
L 143.582727 307.584 
z
" style="fill:#1f77b4;"/>
   </g>
   <g id="patch_59">
    <path clip-path="url(#p2659badf1b)" d="M 144.850909 307.584 
L 146.119091 307.584 
L 146.119091 307.584 
L 144.850909 307.584 
z
" style="fill:#1f77b4;"/>
   </g>
   <g id="patch_60">
    <path clip-path="url(#p2659badf1b)" d="M 146.119091 307.584 
L 147.387273 307.584 
L 147.387273 307.584 
L 146.119091 307.584 
z
" style="fill:#1f77b4;"/>
   </g>
   <g id="patch_61">
    <path clip-path="url(#p2659badf1b)" d="M 147.387273 307.584 
L 148.655455 307.584 
L 148.655455 304.373512 
L 147.387273 304.373512 
z
" style="fill:#1f77b4;"/>
   </g>
   <g id="patch_62">
    <path clip-path="url(#p2659badf1b)" d="M 148.655455 307.584 
L 149.923636 307.584 
L 149.923636 305.635466 
L 148.655455 305.635466 
z
" style="fill:#1f77b4;"/>
   </g>
   <g id="patch_63">
    <path clip-path="url(#p2659badf1b)" d="M 149.923636 307.584 
L 151.191818 307.584 
L 151.191818 304.663616 
L 149.923636 304.663616 
z
" style="fill:#1f77b4;"/>
   </g>
   <g id="patch_64">
    <path clip-path="url(#p2659badf1b)" d="M 151.191818 307.584 
L 152.46 307.584 
L 152.46 305.998096 
L 151.191818 305.998096 
z
" style="fill:#1f77b4;"/>
   </g>
   <g id="patch_65">
    <path clip-path="url(#p2659badf1b)" d="M 152.46 307.584 
L 153.728182 307.584 
L 153.728182 305.200309 
L 152.46 305.200309 
z
" style="fill:#1f77b4;"/>
   </g>
   <g id="patch_66">
    <path clip-path="url(#p2659badf1b)" d="M 153.728182 307.584 
L 154.996364 307.584 
L 154.996364 307.05456 
L 153.728182 307.05456 
z
" style="fill:#1f77b4;"/>
   </g>
   <g id="patch_67">
    <path clip-path="url(#p2659badf1b)" d="M 154.996364 307.584 
L 156.264545 307.584 
L 156.264545 307.160931 
L 154.996364 307.160931 
z
" style="fill:#1f77b4;"/>
   </g>
   <g id="patch_68">
    <path clip-path="url(#p2659badf1b)" d="M 156.264545 307.584 
L 157.532727 307.584 
L 157.532727 307.584 
L 156.264545 307.584 
z
" style="fill:#1f77b4;"/>
   </g>
   <g id="patch_69">
    <path clip-path="url(#p2659badf1b)" d="M 157.532727 307.584 
L 158.800909 307.584 
L 158.800909 306.046447 
L 157.532727 306.046447 
z
" style="fill:#1f77b4;"/>
   </g>
   <g id="patch_70">
    <path clip-path="url(#p2659badf1b)" d="M 158.800909 307.584 
L 160.069091 307.584 
L 160.069091 307.584 
L 158.800909 307.584 
z
" style="fill:#1f77b4;"/>
   </g>
   <g id="patch_71">
    <path clip-path="url(#p2659badf1b)" d="M 160.069091 307.584 
L 161.337273 307.584 
L 161.337273 304.975478 
L 160.069091 304.975478 
z
" style="fill:#1f77b4;"/>
   </g>
   <g id="patch_72">
    <path clip-path="url(#p2659badf1b)" d="M 161.337273 307.584 
L 162.605455 307.584 
L 162.605455 307.400267 
L 161.337273 307.400267 
z
" style="fill:#1f77b4;"/>
   </g>
   <g id="patch_73">
    <path clip-path="url(#p2659badf1b)" d="M 162.605455 307.584 
L 163.873636 307.584 
L 163.873636 307.182689 
L 162.605455 307.182689 
z
" style="fill:#1f77b4;"/>
   </g>
   <g id="patch_74">
    <path clip-path="url(#p2659badf1b)" d="M 163.873636 307.584 
L 165.141818 307.584 
L 165.141818 305.033499 
L 163.873636 305.033499 
z
" style="fill:#1f77b4;"/>
   </g>
   <g id="patch_75">
    <path clip-path="url(#p2659badf1b)" d="M 165.141818 307.584 
L 166.41 307.584 
L 166.41 303.000351 
L 165.141818 303.000351 
z
" style="fill:#1f77b4;"/>
   </g>
   <g id="patch_76">
    <path clip-path="url(#p2659badf1b)" d="M 166.41 307.584 
L 167.678182 307.584 
L 167.678182 306.493691 
L 166.41 306.493691 
z
" style="fill:#1f77b4;"/>
   </g>
   <g id="patch_77">
    <path clip-path="url(#p2659badf1b)" d="M 167.678182 307.584 
L 168.946364 307.584 
L 168.946364 307.584 
L 167.678182 307.584 
z
" style="fill:#1f77b4;"/>
   </g>
   <g id="patch_78">
    <path clip-path="url(#p2659badf1b)" d="M 168.946364 307.584 
L 170.214545 307.584 
L 170.214545 303.186501 
L 168.946364 303.186501 
z
" style="fill:#1f77b4;"/>
   </g>
   <g id="patch_79">
    <path clip-path="url(#p2659badf1b)" d="M 170.214545 307.584 
L 171.482727 307.584 
L 171.482727 305.108443 
L 170.214545 305.108443 
z
" style="fill:#1f77b4;"/>
   </g>
   <g id="patch_80">
    <path clip-path="url(#p2659badf1b)" d="M 171.482727 307.584 
L 172.750909 307.584 
L 172.750909 306.996539 
L 171.482727 306.996539 
z
" style="fill:#1f77b4;"/>
   </g>
   <g id="patch_81">
    <path clip-path="url(#p2659badf1b)" d="M 172.750909 307.584 
L 174.019091 307.584 
L 174.019091 307.494551 
L 172.750909 307.494551 
z
" style="fill:#1f77b4;"/>
   </g>
   <g id="patch_82">
    <path clip-path="url(#p2659badf1b)" d="M 174.019091 307.584 
L 175.287273 307.584 
L 175.287273 307.286643 
L 174.019091 307.286643 
z
" style="fill:#1f77b4;"/>
   </g>
   <g id="patch_83">
    <path clip-path="url(#p2659badf1b)" d="M 175.287273 307.584 
L 176.555455 307.584 
L 176.555455 306.853904 
L 175.287273 306.853904 
z
" style="fill:#1f77b4;"/>
   </g>
   <g id="patch_84">
    <path clip-path="url(#p2659badf1b)" d="M 176.555455 307.584 
L 177.823636 307.584 
L 177.823636 305.993261 
L 176.555455 305.993261 
z
" style="fill:#1f77b4;"/>
   </g>
   <g id="patch_85">
    <path clip-path="url(#p2659badf1b)" d="M 177.823636 307.584 
L 179.091818 307.584 
L 179.091818 307.584 
L 177.823636 307.584 
z
" style="fill:#1f77b4;"/>
   </g>
   <g id="patch_86">
    <path clip-path="url(#p2659badf1b)" d="M 179.091818 307.584 
L 180.36 307.584 
L 180.36 307.061812 
L 179.091818 307.061812 
z
" style="fill:#1f77b4;"/>
   </g>
   <g id="patch_87">
    <path clip-path="url(#p2659badf1b)" d="M 180.36 307.584 
L 181.628182 307.584 
L 181.628182 306.836981 
L 180.36 306.836981 
z
" style="fill:#1f77b4;"/>
   </g>
   <g id="patch_88">
    <path clip-path="url(#p2659badf1b)" d="M 181.628182 307.584 
L 182.896364 307.584 
L 182.896364 307.584 
L 181.628182 307.584 
z
" style="fill:#1f77b4;"/>
   </g>
   <g id="patch_89">
    <path clip-path="url(#p2659badf1b)" d="M 182.896364 307.584 
L 184.164545 307.584 
L 184.164545 307.584 
L 182.896364 307.584 
z
" style="fill:#1f77b4;"/>
   </g>
   <g id="patch_90">
    <path clip-path="url(#p2659badf1b)" d="M 184.164545 307.584 
L 185.432727 307.584 
L 185.432727 279.366516 
L 184.164545 279.366516 
z
" style="fill:#1f77b4;"/>
   </g>
   <g id="patch_91">
    <path clip-path="url(#p2659badf1b)" d="M 185.432727 307.584 
L 186.700909 307.584 
L 186.700909 304.035057 
L 185.432727 304.035057 
z
" style="fill:#1f77b4;"/>
   </g>
   <g id="patch_92">
    <path clip-path="url(#p2659badf1b)" d="M 186.700909 307.584 
L 187.969091 307.584 
L 187.969091 306.324464 
L 186.700909 306.324464 
z
" style="fill:#1f77b4;"/>
   </g>
   <g id="patch_93">
    <path clip-path="url(#p2659badf1b)" d="M 187.969091 307.584 
L 189.237273 307.584 
L 189.237273 307.153679 
L 187.969091 307.153679 
z
" style="fill:#1f77b4;"/>
   </g>
   <g id="patch_94">
    <path clip-path="url(#p2659badf1b)" d="M 189.237273 307.584 
L 190.505455 307.584 
L 190.505455 306.012601 
L 189.237273 306.012601 
z
" style="fill:#1f77b4;"/>
   </g>
   <g id="patch_95">
    <path clip-path="url(#p2659badf1b)" d="M 190.505455 307.584 
L 191.773636 307.584 
L 191.773636 306.974781 
L 190.505455 306.974781 
z
" style="fill:#1f77b4;"/>
   </g>
   <g id="patch_96">
    <path clip-path="url(#p2659badf1b)" d="M 191.773636 307.584 
L 193.041818 307.584 
L 193.041818 307.584 
L 191.773636 307.584 
z
" style="fill:#1f77b4;"/>
   </g>
   <g id="patch_97">
    <path clip-path="url(#p2659badf1b)" d="M 193.041818 307.584 
L 194.31 307.584 
L 194.31 307.071482 
L 193.041818 307.071482 
z
" style="fill:#1f77b4;"/>
   </g>
   <g id="patch_98">
    <path clip-path="url(#p2659badf1b)" d="M 194.31 307.584 
L 195.578182 307.584 
L 195.578182 307.05456 
L 194.31 307.05456 
z
" style="fill:#1f77b4;"/>
   </g>
   <g id="patch_99">
    <path clip-path="url(#p2659badf1b)" d="M 195.578182 307.584 
L 196.846364 307.584 
L 196.846364 306.128643 
L 195.578182 306.128643 
z
" style="fill:#1f77b4;"/>
   </g>
   <g id="patch_100">
    <path clip-path="url(#p2659badf1b)" d="M 196.846364 307.584 
L 198.114545 307.584 
L 198.114545 305.618543 
L 196.846364 305.618543 
z
" style="fill:#1f77b4;"/>
   </g>
   <g id="patch_101">
    <path clip-path="url(#p2659badf1b)" d="M 198.114545 307.584 
L 199.382727 307.584 
L 199.382727 306.314793 
L 198.114545 306.314793 
z
" style="fill:#1f77b4;"/>
   </g>
   <g id="patch_102">
    <path clip-path="url(#p2659badf1b)" d="M 199.382727 307.584 
L 200.650909 307.584 
L 200.650909 305.379207 
L 199.382727 305.379207 
z
" style="fill:#1f77b4;"/>
   </g>
   <g id="patch_103">
    <path clip-path="url(#p2659badf1b)" d="M 200.650909 307.584 
L 201.919091 307.584 
L 201.919091 306.326881 
L 200.650909 306.326881 
z
" style="fill:#1f77b4;"/>
   </g>
   <g id="patch_104">
    <path clip-path="url(#p2659badf1b)" d="M 201.919091 307.584 
L 203.187273 307.584 
L 203.187273 305.084267 
L 201.919091 305.084267 
z
" style="fill:#1f77b4;"/>
   </g>
   <g id="patch_105">
    <path clip-path="url(#p2659badf1b)" d="M 203.187273 307.584 
L 204.455455 307.584 
L 204.455455 305.577445 
L 203.187273 305.577445 
z
" style="fill:#1f77b4;"/>
   </g>
   <g id="patch_106">
    <path clip-path="url(#p2659badf1b)" d="M 204.455455 307.584 
L 205.723636 307.584 
L 205.723636 306.015019 
L 204.455455 306.015019 
z
" style="fill:#1f77b4;"/>
   </g>
   <g id="patch_107">
    <path clip-path="url(#p2659badf1b)" d="M 205.723636 307.584 
L 206.991818 307.584 
L 206.991818 305.814363 
L 205.723636 305.814363 
z
" style="fill:#1f77b4;"/>
   </g>
   <g id="patch_108">
    <path clip-path="url(#p2659badf1b)" d="M 206.991818 307.584 
L 208.26 307.584 
L 208.26 306.89742 
L 206.991818 306.89742 
z
" style="fill:#1f77b4;"/>
   </g>
   <g id="patch_109">
    <path clip-path="url(#p2659badf1b)" d="M 208.26 307.584 
L 209.528182 307.584 
L 209.528182 305.461403 
L 208.26 305.461403 
z
" style="fill:#1f77b4;"/>
   </g>
   <g id="patch_110">
    <path clip-path="url(#p2659badf1b)" d="M 209.528182 307.584 
L 210.796364 307.584 
L 210.796364 306.757203 
L 209.528182 306.757203 
z
" style="fill:#1f77b4;"/>
   </g>
   <g id="patch_111">
    <path clip-path="url(#p2659badf1b)" d="M 210.796364 307.584 
L 212.064545 307.584 
L 212.064545 307.584 
L 210.796364 307.584 
z
" style="fill:#1f77b4;"/>
   </g>
   <g id="patch_112">
    <path clip-path="url(#p2659badf1b)" d="M 212.064545 307.584 
L 213.332727 307.584 
L 213.332727 306.128643 
L 212.064545 306.128643 
z
" style="fill:#1f77b4;"/>
   </g>
   <g id="patch_113">
    <path clip-path="url(#p2659badf1b)" d="M 213.332727 307.584 
L 214.600909 307.584 
L 214.600909 307.584 
L 213.332727 307.584 
z
" style="fill:#1f77b4;"/>
   </g>
   <g id="patch_114">
    <path clip-path="url(#p2659badf1b)" d="M 214.600909 307.584 
L 215.869091 307.584 
L 215.869091 306.491274 
L 214.600909 306.491274 
z
" style="fill:#1f77b4;"/>
   </g>
   <g id="patch_115">
    <path clip-path="url(#p2659badf1b)" d="M 215.869091 307.584 
L 217.137273 307.584 
L 217.137273 307.330159 
L 215.869091 307.330159 
z
" style="fill:#1f77b4;"/>
   </g>
   <g id="patch_116">
    <path clip-path="url(#p2659badf1b)" d="M 217.137273 307.584 
L 218.405455 307.584 
L 218.405455 302.606293 
L 217.137273 302.606293 
z
" style="fill:#1f77b4;"/>
   </g>
   <g id="patch_117">
    <path clip-path="url(#p2659badf1b)" d="M 218.405455 307.584 
L 219.673636 307.584 
L 219.673636 307.095658 
L 218.405455 307.095658 
z
" style="fill:#1f77b4;"/>
   </g>
   <g id="patch_118">
    <path clip-path="url(#p2659badf1b)" d="M 219.673636 307.584 
L 220.941818 307.584 
L 220.941818 305.451733 
L 219.673636 305.451733 
z
" style="fill:#1f77b4;"/>
   </g>
   <g id="patch_119">
    <path clip-path="url(#p2659badf1b)" d="M 220.941818 307.584 
L 222.21 307.584 
L 222.21 301.581257 
L 220.941818 301.581257 
z
" style="fill:#1f77b4;"/>
   </g>
   <g id="patch_120">
    <path clip-path="url(#p2659badf1b)" d="M 222.21 307.584 
L 223.478182 307.584 
L 223.478182 307.584 
L 222.21 307.584 
z
" style="fill:#1f77b4;"/>
   </g>
   <g id="patch_121">
    <path clip-path="url(#p2659badf1b)" d="M 223.478182 307.584 
L 224.746364 307.584 
L 224.746364 305.964251 
L 223.478182 305.964251 
z
" style="fill:#1f77b4;"/>
   </g>
   <g id="patch_122">
    <path clip-path="url(#p2659badf1b)" d="M 224.746364 307.584 
L 226.014545 307.584 
L 226.014545 306.522702 
L 224.746364 306.522702 
z
" style="fill:#1f77b4;"/>
   </g>
   <g id="patch_123">
    <path clip-path="url(#p2659badf1b)" d="M 226.014545 307.584 
L 227.282727 307.584 
L 227.282727 306.737862 
L 226.014545 306.737862 
z
" style="fill:#1f77b4;"/>
   </g>
   <g id="patch_124">
    <path clip-path="url(#p2659badf1b)" d="M 227.282727 307.584 
L 228.550909 307.584 
L 228.550909 307.584 
L 227.282727 307.584 
z
" style="fill:#1f77b4;"/>
   </g>
   <g id="patch_125">
    <path clip-path="url(#p2659badf1b)" d="M 228.550909 307.584 
L 229.819091 307.584 
L 229.819091 307.274555 
L 228.550909 307.274555 
z
" style="fill:#1f77b4;"/>
   </g>
   <g id="patch_126">
    <path clip-path="url(#p2659badf1b)" d="M 229.819091 307.584 
L 231.087273 307.584 
L 231.087273 307.298731 
L 229.819091 307.298731 
z
" style="fill:#1f77b4;"/>
   </g>
   <g id="patch_127">
    <path clip-path="url(#p2659badf1b)" d="M 231.087273 307.584 
L 232.355455 307.584 
L 232.355455 304.622518 
L 231.087273 304.622518 
z
" style="fill:#1f77b4;"/>
   </g>
   <g id="patch_128">
    <path clip-path="url(#p2659badf1b)" d="M 232.355455 307.584 
L 233.623636 307.584 
L 233.623636 306.500944 
L 232.355455 306.500944 
z
" style="fill:#1f77b4;"/>
   </g>
   <g id="patch_129">
    <path clip-path="url(#p2659badf1b)" d="M 233.623636 307.584 
L 234.891818 307.584 
L 234.891818 305.352614 
L 233.623636 305.352614 
z
" style="fill:#1f77b4;"/>
   </g>
   <g id="patch_130">
    <path clip-path="url(#p2659badf1b)" d="M 234.891818 307.584 
L 236.16 307.584 
L 236.16 305.959416 
L 234.891818 305.959416 
z
" style="fill:#1f77b4;"/>
   </g>
   <g id="patch_131">
    <path clip-path="url(#p2659badf1b)" d="M 236.16 307.584 
L 237.428182 307.584 
L 237.428182 303.215512 
L 236.16 303.215512 
z
" style="fill:#1f77b4;"/>
   </g>
   <g id="patch_132">
    <path clip-path="url(#p2659badf1b)" d="M 237.428182 307.584 
L 238.696364 307.584 
L 238.696364 305.512171 
L 237.428182 305.512171 
z
" style="fill:#1f77b4;"/>
   </g>
   <g id="patch_133">
    <path clip-path="url(#p2659badf1b)" d="M 238.696364 307.584 
L 239.964545 307.584 
L 239.964545 307.187524 
L 238.696364 307.187524 
z
" style="fill:#1f77b4;"/>
   </g>
   <g id="patch_134">
    <path clip-path="url(#p2659badf1b)" d="M 239.964545 307.584 
L 241.232727 307.584 
L 241.232727 307.318071 
L 239.964545 307.318071 
z
" style="fill:#1f77b4;"/>
   </g>
   <g id="patch_135">
    <path clip-path="url(#p2659badf1b)" d="M 241.232727 307.584 
L 242.500909 307.584 
L 242.500909 306.094798 
L 241.232727 306.094798 
z
" style="fill:#1f77b4;"/>
   </g>
   <g id="patch_136">
    <path clip-path="url(#p2659badf1b)" d="M 242.500909 307.584 
L 243.769091 307.584 
L 243.769091 307.218952 
L 242.500909 307.218952 
z
" style="fill:#1f77b4;"/>
   </g>
   <g id="patch_137">
    <path clip-path="url(#p2659badf1b)" d="M 243.769091 307.584 
L 245.037273 307.584 
L 245.037273 304.953721 
L 243.769091 304.953721 
z
" style="fill:#1f77b4;"/>
   </g>
   <g id="patch_138">
    <path clip-path="url(#p2659badf1b)" d="M 245.037273 307.584 
L 246.305455 307.584 
L 246.305455 304.77724 
L 245.037273 304.77724 
z
" style="fill:#1f77b4;"/>
   </g>
   <g id="patch_139">
    <path clip-path="url(#p2659badf1b)" d="M 246.305455 307.584 
L 247.573636 307.584 
L 247.573636 305.371954 
L 246.305455 305.371954 
z
" style="fill:#1f77b4;"/>
   </g>
   <g id="patch_140">
    <path clip-path="url(#p2659badf1b)" d="M 247.573636 307.584 
L 248.841818 307.584 
L 248.841818 305.026247 
L 247.573636 305.026247 
z
" style="fill:#1f77b4;"/>
   </g>
   <g id="patch_141">
    <path clip-path="url(#p2659badf1b)" d="M 248.841818 307.584 
L 250.11 307.584 
L 250.11 304.750647 
L 248.841818 304.750647 
z
" style="fill:#1f77b4;"/>
   </g>
   <g id="patch_142">
    <path clip-path="url(#p2659badf1b)" d="M 250.11 307.584 
L 251.378182 307.584 
L 251.378182 305.901395 
L 250.11 305.901395 
z
" style="fill:#1f77b4;"/>
   </g>
   <g id="patch_143">
    <path clip-path="url(#p2659badf1b)" d="M 251.378182 307.584 
L 252.646364 307.584 
L 252.646364 306.965111 
L 251.378182 306.965111 
z
" style="fill:#1f77b4;"/>
   </g>
   <g id="patch_144">
    <path clip-path="url(#p2659badf1b)" d="M 252.646364 307.584 
L 253.914545 307.584 
L 253.914545 305.521842 
L 252.646364 305.521842 
z
" style="fill:#1f77b4;"/>
   </g>
   <g id="patch_145">
    <path clip-path="url(#p2659badf1b)" d="M 253.914545 307.584 
L 255.182727 307.584 
L 255.182727 304.45329 
L 253.914545 304.45329 
z
" style="fill:#1f77b4;"/>
   </g>
   <g id="patch_146">
    <path clip-path="url(#p2659badf1b)" d="M 255.182727 307.584 
L 256.450909 307.584 
L 256.450909 307.330159 
L 255.182727 307.330159 
z
" style="fill:#1f77b4;"/>
   </g>
   <g id="patch_147">
    <path clip-path="url(#p2659badf1b)" d="M 256.450909 307.584 
L 257.719091 307.584 
L 257.719091 304.57175 
L 256.450909 304.57175 
z
" style="fill:#1f77b4;"/>
   </g>
   <g id="patch_148">
    <path clip-path="url(#p2659badf1b)" d="M 257.719091 307.584 
L 258.987273 307.584 
L 258.987273 307.400267 
L 257.719091 307.400267 
z
" style="fill:#1f77b4;"/>
   </g>
   <g id="patch_149">
    <path clip-path="url(#p2659badf1b)" d="M 258.987273 307.584 
L 260.255455 307.584 
L 260.255455 305.475908 
L 258.987273 305.475908 
z
" style="fill:#1f77b4;"/>
   </g>
   <g id="patch_150">
    <path clip-path="url(#p2659badf1b)" d="M 260.255455 307.584 
L 261.523636 307.584 
L 261.523636 306.106885 
L 260.255455 306.106885 
z
" style="fill:#1f77b4;"/>
   </g>
   <g id="patch_151">
    <path clip-path="url(#p2659badf1b)" d="M 261.523636 307.584 
L 262.791818 307.584 
L 262.791818 303.196172 
L 261.523636 303.196172 
z
" style="fill:#1f77b4;"/>
   </g>
   <g id="patch_152">
    <path clip-path="url(#p2659badf1b)" d="M 262.791818 307.584 
L 264.06 307.584 
L 264.06 306.662919 
L 262.791818 306.662919 
z
" style="fill:#1f77b4;"/>
   </g>
   <g id="patch_153">
    <path clip-path="url(#p2659badf1b)" d="M 264.06 307.584 
L 265.328182 307.584 
L 265.328182 305.618543 
L 264.06 305.618543 
z
" style="fill:#1f77b4;"/>
   </g>
   <g id="patch_154">
    <path clip-path="url(#p2659badf1b)" d="M 265.328182 307.584 
L 266.596364 307.584 
L 266.596364 306.017436 
L 265.328182 306.017436 
z
" style="fill:#1f77b4;"/>
   </g>
   <g id="patch_155">
    <path clip-path="url(#p2659badf1b)" d="M 266.596364 307.584 
L 267.864545 307.584 
L 267.864545 305.811946 
L 266.596364 305.811946 
z
" style="fill:#1f77b4;"/>
   </g>
   <g id="patch_156">
    <path clip-path="url(#p2659badf1b)" d="M 267.864545 307.584 
L 269.132727 307.584 
L 269.132727 306.155236 
L 267.864545 306.155236 
z
" style="fill:#1f77b4;"/>
   </g>
   <g id="patch_157">
    <path clip-path="url(#p2659badf1b)" d="M 269.132727 307.584 
L 270.400909 307.584 
L 270.400909 307.516309 
L 269.132727 307.516309 
z
" style="fill:#1f77b4;"/>
   </g>
   <g id="patch_158">
    <path clip-path="url(#p2659badf1b)" d="M 270.400909 307.584 
L 271.669091 307.584 
L 271.669091 306.346221 
L 270.400909 306.346221 
z
" style="fill:#1f77b4;"/>
   </g>
   <g id="patch_159">
    <path clip-path="url(#p2659badf1b)" d="M 271.669091 307.584 
L 272.937273 307.584 
L 272.937273 306.92643 
L 271.669091 306.92643 
z
" style="fill:#1f77b4;"/>
   </g>
   <g id="patch_160">
    <path clip-path="url(#p2659badf1b)" d="M 272.937273 307.584 
L 274.205455 307.584 
L 274.205455 304.472631 
L 272.937273 304.472631 
z
" style="fill:#1f77b4;"/>
   </g>
   <g id="patch_161">
    <path clip-path="url(#p2659badf1b)" d="M 274.205455 307.584 
L 275.473636 307.584 
L 275.473636 307.584 
L 274.205455 307.584 
z
" style="fill:#1f77b4;"/>
   </g>
   <g id="patch_162">
    <path clip-path="url(#p2659badf1b)" d="M 275.473636 307.584 
L 276.741818 307.584 
L 276.741818 305.364702 
L 275.473636 305.364702 
z
" style="fill:#1f77b4;"/>
   </g>
   <g id="patch_163">
    <path clip-path="url(#p2659badf1b)" d="M 276.741818 307.584 
L 278.01 307.584 
L 278.01 307.487299 
L 276.741818 307.487299 
z
" style="fill:#1f77b4;"/>
   </g>
   <g id="patch_164">
    <path clip-path="url(#p2659badf1b)" d="M 278.01 307.584 
L 279.278182 307.584 
L 279.278182 307.291478 
L 278.01 307.291478 
z
" style="fill:#1f77b4;"/>
   </g>
   <g id="patch_165">
    <path clip-path="url(#p2659badf1b)" d="M 279.278182 307.584 
L 280.546364 307.584 
L 280.546364 305.664476 
L 279.278182 305.664476 
z
" style="fill:#1f77b4;"/>
   </g>
   <g id="patch_166">
    <path clip-path="url(#p2659badf1b)" d="M 280.546364 307.584 
L 281.814545 307.584 
L 281.814545 307.177854 
L 280.546364 307.177854 
z
" style="fill:#1f77b4;"/>
   </g>
   <g id="patch_167">
    <path clip-path="url(#p2659badf1b)" d="M 281.814545 307.584 
L 283.082727 307.584 
L 283.082727 306.827311 
L 281.814545 306.827311 
z
" style="fill:#1f77b4;"/>
   </g>
   <g id="patch_168">
    <path clip-path="url(#p2659badf1b)" d="M 283.082727 307.584 
L 284.350909 307.584 
L 284.350909 305.108443 
L 283.082727 305.108443 
z
" style="fill:#1f77b4;"/>
   </g>
   <g id="patch_169">
    <path clip-path="url(#p2659badf1b)" d="M 284.350909 307.584 
L 285.619091 307.584 
L 285.619091 307.214117 
L 284.350909 307.214117 
z
" style="fill:#1f77b4;"/>
   </g>
   <g id="patch_170">
    <path clip-path="url(#p2659badf1b)" d="M 285.619091 307.584 
L 286.887273 307.584 
L 286.887273 304.313073 
L 285.619091 304.313073 
z
" style="fill:#1f77b4;"/>
   </g>
   <g id="patch_171">
    <path clip-path="url(#p2659badf1b)" d="M 286.887273 307.584 
L 288.155455 307.584 
L 288.155455 307.504221 
L 286.887273 307.504221 
z
" style="fill:#1f77b4;"/>
   </g>
   <g id="patch_172">
    <path clip-path="url(#p2659badf1b)" d="M 288.155455 307.584 
L 289.423636 307.584 
L 289.423636 306.138313 
L 288.155455 306.138313 
z
" style="fill:#1f77b4;"/>
   </g>
   <g id="patch_173">
    <path clip-path="url(#p2659badf1b)" d="M 289.423636 307.584 
L 290.691818 307.584 
L 290.691818 307.056977 
L 289.423636 307.056977 
z
" style="fill:#1f77b4;"/>
   </g>
   <g id="patch_174">
    <path clip-path="url(#p2659badf1b)" d="M 290.691818 307.584 
L 291.96 307.584 
L 291.96 306.542042 
L 290.691818 306.542042 
z
" style="fill:#1f77b4;"/>
   </g>
   <g id="patch_175">
    <path clip-path="url(#p2659badf1b)" d="M 291.96 307.584 
L 293.228182 307.584 
L 293.228182 304.941633 
L 291.96 304.941633 
z
" style="fill:#1f77b4;"/>
   </g>
   <g id="patch_176">
    <path clip-path="url(#p2659badf1b)" d="M 293.228182 307.584 
L 294.496364 307.584 
L 294.496364 305.698322 
L 293.228182 305.698322 
z
" style="fill:#1f77b4;"/>
   </g>
   <g id="patch_177">
    <path clip-path="url(#p2659badf1b)" d="M 294.496364 307.584 
L 295.764545 307.584 
L 295.764545 306.74028 
L 294.496364 306.74028 
z
" style="fill:#1f77b4;"/>
   </g>
   <g id="patch_178">
    <path clip-path="url(#p2659badf1b)" d="M 295.764545 307.584 
L 297.032727 307.584 
L 297.032727 305.176134 
L 295.764545 305.176134 
z
" style="fill:#1f77b4;"/>
   </g>
   <g id="patch_179">
    <path clip-path="url(#p2659badf1b)" d="M 297.032727 307.584 
L 298.300909 307.584 
L 298.300909 305.064927 
L 297.032727 305.064927 
z
" style="fill:#1f77b4;"/>
   </g>
   <g id="patch_180">
    <path clip-path="url(#p2659badf1b)" d="M 298.300909 307.584 
L 299.569091 307.584 
L 299.569091 304.656364 
L 298.300909 304.656364 
z
" style="fill:#1f77b4;"/>
   </g>
   <g id="patch_181">
    <path clip-path="url(#p2659badf1b)" d="M 299.569091 307.584 
L 300.837273 307.584 
L 300.837273 303.002769 
L 299.569091 303.002769 
z
" style="fill:#1f77b4;"/>
   </g>
   <g id="patch_182">
    <path clip-path="url(#p2659badf1b)" d="M 300.837273 307.584 
L 302.105455 307.584 
L 302.105455 305.330856 
L 300.837273 305.330856 
z
" style="fill:#1f77b4;"/>
   </g>
   <g id="patch_183">
    <path clip-path="url(#p2659badf1b)" d="M 302.105455 307.584 
L 303.373636 307.584 
L 303.373636 306.515449 
L 302.105455 306.515449 
z
" style="fill:#1f77b4;"/>
   </g>
   <g id="patch_184">
    <path clip-path="url(#p2659badf1b)" d="M 303.373636 307.584 
L 304.641818 307.584 
L 304.641818 307.030384 
L 303.373636 307.030384 
z
" style="fill:#1f77b4;"/>
   </g>
   <g id="patch_185">
    <path clip-path="url(#p2659badf1b)" d="M 304.641818 307.584 
L 305.91 307.584 
L 305.91 304.334831 
L 304.641818 304.334831 
z
" style="fill:#1f77b4;"/>
   </g>
   <g id="patch_186">
    <path clip-path="url(#p2659badf1b)" d="M 305.91 307.584 
L 307.178182 307.584 
L 307.178182 306.22051 
L 305.91 306.22051 
z
" style="fill:#1f77b4;"/>
   </g>
   <g id="patch_187">
    <path clip-path="url(#p2659badf1b)" d="M 307.178182 307.584 
L 308.446364 307.584 
L 308.446364 303.873082 
L 307.178182 303.873082 
z
" style="fill:#1f77b4;"/>
   </g>
   <g id="patch_188">
    <path clip-path="url(#p2659badf1b)" d="M 308.446364 307.584 
L 309.714545 307.584 
L 309.714545 306.982033 
L 308.446364 306.982033 
z
" style="fill:#1f77b4;"/>
   </g>
   <g id="patch_189">
    <path clip-path="url(#p2659badf1b)" d="M 309.714545 307.584 
L 310.982727 307.584 
L 310.982727 306.25919 
L 309.714545 306.25919 
z
" style="fill:#1f77b4;"/>
   </g>
   <g id="patch_190">
    <path clip-path="url(#p2659badf1b)" d="M 310.982727 307.584 
L 312.250909 307.584 
L 312.250909 306.72094 
L 310.982727 306.72094 
z
" style="fill:#1f77b4;"/>
   </g>
   <g id="patch_191">
    <path clip-path="url(#p2659badf1b)" d="M 312.250909 307.584 
L 313.519091 307.584 
L 313.519091 304.56208 
L 312.250909 304.56208 
z
" style="fill:#1f77b4;"/>
   </g>
   <g id="patch_192">
    <path clip-path="url(#p2659badf1b)" d="M 313.519091 307.584 
L 314.787273 307.584 
L 314.787273 306.479186 
L 313.519091 306.479186 
z
" style="fill:#1f77b4;"/>
   </g>
   <g id="patch_193">
    <path clip-path="url(#p2659badf1b)" d="M 314.787273 307.584 
L 316.055455 307.584 
L 316.055455 306.162489 
L 314.787273 306.162489 
z
" style="fill:#1f77b4;"/>
   </g>
   <g id="patch_194">
    <path clip-path="url(#p2659badf1b)" d="M 316.055455 307.584 
L 317.323636 307.584 
L 317.323636 305.461403 
L 316.055455 305.461403 
z
" style="fill:#1f77b4;"/>
   </g>
   <g id="patch_195">
    <path clip-path="url(#p2659badf1b)" d="M 317.323636 307.584 
L 318.591818 307.584 
L 318.591818 307.359169 
L 317.323636 307.359169 
z
" style="fill:#1f77b4;"/>
   </g>
   <g id="patch_196">
    <path clip-path="url(#p2659badf1b)" d="M 318.591818 307.584 
L 319.86 307.584 
L 319.86 305.787771 
L 318.591818 305.787771 
z
" style="fill:#1f77b4;"/>
   </g>
   <g id="patch_197">
    <path clip-path="url(#p2659badf1b)" d="M 319.86 307.584 
L 321.128182 307.584 
L 321.128182 305.44448 
L 319.86 305.44448 
z
" style="fill:#1f77b4;"/>
   </g>
   <g id="patch_198">
    <path clip-path="url(#p2659badf1b)" d="M 321.128182 307.584 
L 322.396364 307.584 
L 322.396364 307.047307 
L 321.128182 307.047307 
z
" style="fill:#1f77b4;"/>
   </g>
   <g id="patch_199">
    <path clip-path="url(#p2659badf1b)" d="M 322.396364 307.584 
L 323.664545 307.584 
L 323.664545 305.826451 
L 322.396364 305.826451 
z
" style="fill:#1f77b4;"/>
   </g>
   <g id="patch_200">
    <path clip-path="url(#p2659badf1b)" d="M 323.664545 307.584 
L 324.932727 307.584 
L 324.932727 305.920735 
L 323.664545 305.920735 
z
" style="fill:#1f77b4;"/>
   </g>
   <g id="patch_201">
    <path clip-path="url(#p2659badf1b)" d="M 324.932727 307.584 
L 326.200909 307.584 
L 326.200909 306.948188 
L 324.932727 306.948188 
z
" style="fill:#1f77b4;"/>
   </g>
   <g id="patch_202">
    <path clip-path="url(#p2659badf1b)" d="M 326.200909 307.584 
L 327.469091 307.584 
L 327.469091 305.647553 
L 326.200909 305.647553 
z
" style="fill:#1f77b4;"/>
   </g>
   <g id="patch_203">
    <path clip-path="url(#p2659badf1b)" d="M 327.469091 307.584 
L 328.737273 307.584 
L 328.737273 307.122251 
L 327.469091 307.122251 
z
" style="fill:#1f77b4;"/>
   </g>
   <g id="patch_204">
    <path clip-path="url(#p2659badf1b)" d="M 328.737273 307.584 
L 330.005455 307.584 
L 330.005455 307.134338 
L 328.737273 307.134338 
z
" style="fill:#1f77b4;"/>
   </g>
   <g id="patch_205">
    <path clip-path="url(#p2659badf1b)" d="M 330.005455 307.584 
L 331.273636 307.584 
L 331.273636 305.898977 
L 330.005455 305.898977 
z
" style="fill:#1f77b4;"/>
   </g>
   <g id="patch_206">
    <path clip-path="url(#p2659badf1b)" d="M 331.273636 307.584 
L 332.541818 307.584 
L 332.541818 307.003791 
L 331.273636 307.003791 
z
" style="fill:#1f77b4;"/>
   </g>
   <g id="patch_207">
    <path clip-path="url(#p2659badf1b)" d="M 332.541818 307.584 
L 333.81 307.584 
L 333.81 305.454151 
L 332.541818 305.454151 
z
" style="fill:#1f77b4;"/>
   </g>
   <g id="patch_208">
    <path clip-path="url(#p2659badf1b)" d="M 333.81 307.584 
L 335.078182 307.584 
L 335.078182 306.380067 
L 333.81 306.380067 
z
" style="fill:#1f77b4;"/>
   </g>
   <g id="patch_209">
    <path clip-path="url(#p2659badf1b)" d="M 335.078182 307.584 
L 336.346364 307.584 
L 336.346364 304.436368 
L 335.078182 304.436368 
z
" style="fill:#1f77b4;"/>
   </g>
   <g id="patch_210">
    <path clip-path="url(#p2659badf1b)" d="M 336.346364 307.584 
L 337.614545 307.584 
L 337.614545 306.227762 
L 336.346364 306.227762 
z
" style="fill:#1f77b4;"/>
   </g>
   <g id="patch_211">
    <path clip-path="url(#p2659badf1b)" d="M 337.614545 307.584 
L 338.882727 307.584 
L 338.882727 305.618543 
L 337.614545 305.618543 
z
" style="fill:#1f77b4;"/>
   </g>
   <g id="patch_212">
    <path clip-path="url(#p2659badf1b)" d="M 338.882727 307.584 
L 340.150909 307.584 
L 340.150909 307.315653 
L 338.882727 307.315653 
z
" style="fill:#1f77b4;"/>
   </g>
   <g id="patch_213">
    <path clip-path="url(#p2659badf1b)" d="M 340.150909 307.584 
L 341.419091 307.584 
L 341.419091 305.127783 
L 340.150909 305.127783 
z
" style="fill:#1f77b4;"/>
   </g>
   <g id="patch_214">
    <path clip-path="url(#p2659badf1b)" d="M 341.419091 307.584 
L 342.687273 307.584 
L 342.687273 304.136593 
L 341.419091 304.136593 
z
" style="fill:#1f77b4;"/>
   </g>
   <g id="patch_215">
    <path clip-path="url(#p2659badf1b)" d="M 342.687273 307.584 
L 343.955455 307.584 
L 343.955455 306.404242 
L 342.687273 306.404242 
z
" style="fill:#1f77b4;"/>
   </g>
   <g id="patch_216">
    <path clip-path="url(#p2659badf1b)" d="M 343.955455 307.584 
L 345.223636 307.584 
L 345.223636 306.757203 
L 343.955455 306.757203 
z
" style="fill:#1f77b4;"/>
   </g>
   <g id="patch_217">
    <path clip-path="url(#p2659badf1b)" d="M 345.223636 307.584 
L 346.491818 307.584 
L 346.491818 307.163349 
L 345.223636 307.163349 
z
" style="fill:#1f77b4;"/>
   </g>
   <g id="patch_218">
    <path clip-path="url(#p2659badf1b)" d="M 346.491818 307.584 
L 347.76 307.584 
L 347.76 305.318768 
L 346.491818 305.318768 
z
" style="fill:#1f77b4;"/>
   </g>
   <g id="patch_219">
    <path clip-path="url(#p2659badf1b)" d="M 347.76 307.584 
L 349.028182 307.584 
L 349.028182 305.894142 
L 347.76 305.894142 
z
" style="fill:#1f77b4;"/>
   </g>
   <g id="patch_220">
    <path clip-path="url(#p2659badf1b)" d="M 349.028182 307.584 
L 350.296364 307.584 
L 350.296364 305.500084 
L 349.028182 305.500084 
z
" style="fill:#1f77b4;"/>
   </g>
   <g id="patch_221">
    <path clip-path="url(#p2659badf1b)" d="M 350.296364 307.584 
L 351.564545 307.584 
L 351.564545 307.584 
L 350.296364 307.584 
z
" style="fill:#1f77b4;"/>
   </g>
   <g id="patch_222">
    <path clip-path="url(#p2659badf1b)" d="M 351.564545 307.584 
L 352.832727 307.584 
L 352.832727 307.119833 
L 351.564545 307.119833 
z
" style="fill:#1f77b4;"/>
   </g>
   <g id="patch_223">
    <path clip-path="url(#p2659badf1b)" d="M 352.832727 307.584 
L 354.100909 307.584 
L 354.100909 306.704017 
L 352.832727 306.704017 
z
" style="fill:#1f77b4;"/>
   </g>
   <g id="patch_224">
    <path clip-path="url(#p2659badf1b)" d="M 354.100909 307.584 
L 355.369091 307.584 
L 355.369091 306.358309 
L 354.100909 306.358309 
z
" style="fill:#1f77b4;"/>
   </g>
   <g id="patch_225">
    <path clip-path="url(#p2659badf1b)" d="M 355.369091 307.584 
L 356.637273 307.584 
L 356.637273 306.902255 
L 355.369091 306.902255 
z
" style="fill:#1f77b4;"/>
   </g>
   <g id="patch_226">
    <path clip-path="url(#p2659badf1b)" d="M 356.637273 307.584 
L 357.905455 307.584 
L 357.905455 303.670009 
L 356.637273 303.670009 
z
" style="fill:#1f77b4;"/>
   </g>
   <g id="patch_227">
    <path clip-path="url(#p2659badf1b)" d="M 357.905455 307.584 
L 359.173636 307.584 
L 359.173636 305.043169 
L 357.905455 305.043169 
z
" style="fill:#1f77b4;"/>
   </g>
   <g id="patch_228">
    <path clip-path="url(#p2659badf1b)" d="M 359.173636 307.584 
L 360.441818 307.584 
L 360.441818 305.413052 
L 359.173636 305.413052 
z
" style="fill:#1f77b4;"/>
   </g>
   <g id="patch_229">
    <path clip-path="url(#p2659badf1b)" d="M 360.441818 307.584 
L 361.71 307.584 
L 361.71 306.423583 
L 360.441818 306.423583 
z
" style="fill:#1f77b4;"/>
   </g>
   <g id="patch_230">
    <path clip-path="url(#p2659badf1b)" d="M 361.71 307.584 
L 362.978182 307.584 
L 362.978182 305.804693 
L 361.71 305.804693 
z
" style="fill:#1f77b4;"/>
   </g>
   <g id="patch_231">
    <path clip-path="url(#p2659badf1b)" d="M 362.978182 307.584 
L 364.246364 307.584 
L 364.246364 304.547574 
L 362.978182 304.547574 
z
" style="fill:#1f77b4;"/>
   </g>
   <g id="patch_232">
    <path clip-path="url(#p2659badf1b)" d="M 364.246364 307.584 
L 365.514545 307.584 
L 365.514545 307.187524 
L 364.246364 307.187524 
z
" style="fill:#1f77b4;"/>
   </g>
   <g id="patch_233">
    <path clip-path="url(#p2659badf1b)" d="M 365.514545 307.584 
L 366.782727 307.584 
L 366.782727 307.105328 
L 365.514545 307.105328 
z
" style="fill:#1f77b4;"/>
   </g>
   <g id="patch_234">
    <path clip-path="url(#p2659badf1b)" d="M 366.782727 307.584 
L 368.050909 307.584 
L 368.050909 304.339666 
L 366.782727 304.339666 
z
" style="fill:#1f77b4;"/>
   </g>
   <g id="patch_235">
    <path clip-path="url(#p2659badf1b)" d="M 368.050909 307.584 
L 369.319091 307.584 
L 369.319091 306.384902 
L 368.050909 306.384902 
z
" style="fill:#1f77b4;"/>
   </g>
   <g id="patch_236">
    <path clip-path="url(#p2659badf1b)" d="M 369.319091 307.584 
L 370.587273 307.584 
L 370.587273 306.225345 
L 369.319091 306.225345 
z
" style="fill:#1f77b4;"/>
   </g>
   <g id="patch_237">
    <path clip-path="url(#p2659badf1b)" d="M 370.587273 307.584 
L 371.855455 307.584 
L 371.855455 306.57347 
L 370.587273 306.57347 
z
" style="fill:#1f77b4;"/>
   </g>
   <g id="patch_238">
    <path clip-path="url(#p2659badf1b)" d="M 371.855455 307.584 
L 373.123636 307.584 
L 373.123636 302.712664 
L 371.855455 302.712664 
z
" style="fill:#1f77b4;"/>
   </g>
   <g id="patch_239">
    <path clip-path="url(#p2659badf1b)" d="M 373.123636 307.584 
L 374.391818 307.584 
L 374.391818 306.824894 
L 373.123636 306.824894 
z
" style="fill:#1f77b4;"/>
   </g>
   <g id="patch_240">
    <path clip-path="url(#p2659badf1b)" d="M 374.391818 307.584 
L 375.66 307.584 
L 375.66 306.11172 
L 374.391818 306.11172 
z
" style="fill:#1f77b4;"/>
   </g>
   <g id="patch_241">
    <path clip-path="url(#p2659badf1b)" d="M 375.66 307.584 
L 376.928182 307.584 
L 376.928182 307.202029 
L 375.66 307.202029 
z
" style="fill:#1f77b4;"/>
   </g>
   <g id="patch_242">
    <path clip-path="url(#p2659badf1b)" d="M 376.928182 307.584 
L 378.196364 307.584 
L 378.196364 305.853044 
L 376.928182 305.853044 
z
" style="fill:#1f77b4;"/>
   </g>
   <g id="patch_243">
    <path clip-path="url(#p2659badf1b)" d="M 378.196364 307.584 
L 379.464545 307.584 
L 379.464545 307.10291 
L 378.196364 307.10291 
z
" style="fill:#1f77b4;"/>
   </g>
   <g id="patch_244">
    <path clip-path="url(#p2659badf1b)" d="M 379.464545 307.584 
L 380.732727 307.584 
L 380.732727 305.879637 
L 379.464545 305.879637 
z
" style="fill:#1f77b4;"/>
   </g>
   <g id="patch_245">
    <path clip-path="url(#p2659badf1b)" d="M 380.732727 307.584 
L 382.000909 307.584 
L 382.000909 306.382484 
L 380.732727 306.382484 
z
" style="fill:#1f77b4;"/>
   </g>
   <g id="patch_246">
    <path clip-path="url(#p2659badf1b)" d="M 382.000909 307.584 
L 383.269091 307.584 
L 383.269091 304.690209 
L 382.000909 304.690209 
z
" style="fill:#1f77b4;"/>
   </g>
   <g id="patch_247">
    <path clip-path="url(#p2659badf1b)" d="M 383.269091 307.584 
L 384.537273 307.584 
L 384.537273 306.39699 
L 383.269091 306.39699 
z
" style="fill:#1f77b4;"/>
   </g>
   <g id="patch_248">
    <path clip-path="url(#p2659badf1b)" d="M 384.537273 307.584 
L 385.805455 307.584 
L 385.805455 306.380067 
L 384.537273 306.380067 
z
" style="fill:#1f77b4;"/>
   </g>
   <g id="patch_249">
    <path clip-path="url(#p2659badf1b)" d="M 385.805455 307.584 
L 387.073636 307.584 
L 387.073636 307.105328 
L 385.805455 307.105328 
z
" style="fill:#1f77b4;"/>
   </g>
   <g id="patch_250">
    <path clip-path="url(#p2659badf1b)" d="M 387.073636 307.584 
L 388.341818 307.584 
L 388.341818 303.440343 
L 387.073636 303.440343 
z
" style="fill:#1f77b4;"/>
   </g>
   <g id="patch_251">
    <path clip-path="url(#p2659badf1b)" d="M 388.341818 307.584 
L 389.61 307.584 
L 389.61 306.23018 
L 388.341818 306.23018 
z
" style="fill:#1f77b4;"/>
   </g>
   <g id="patch_252">
    <path clip-path="url(#p2659badf1b)" d="M 389.61 307.584 
L 390.878182 307.584 
L 390.878182 304.579002 
L 389.61 304.579002 
z
" style="fill:#1f77b4;"/>
   </g>
   <g id="patch_253">
    <path clip-path="url(#p2659badf1b)" d="M 390.878182 307.584 
L 392.146364 307.584 
L 392.146364 304.902952 
L 390.878182 304.902952 
z
" style="fill:#1f77b4;"/>
   </g>
   <g id="patch_254">
    <path clip-path="url(#p2659badf1b)" d="M 392.146364 307.584 
L 393.414545 307.584 
L 393.414545 306.058535 
L 392.146364 306.058535 
z
" style="fill:#1f77b4;"/>
   </g>
   <g id="patch_255">
    <path clip-path="url(#p2659badf1b)" d="M 393.414545 307.584 
L 394.682727 307.584 
L 394.682727 304.985148 
L 393.414545 304.985148 
z
" style="fill:#1f77b4;"/>
   </g>
   <g id="patch_256">
    <path clip-path="url(#p2659badf1b)" d="M 394.682727 307.584 
L 395.950909 307.584 
L 395.950909 306.094798 
L 394.682727 306.094798 
z
" style="fill:#1f77b4;"/>
   </g>
   <g id="patch_257">
    <path clip-path="url(#p2659badf1b)" d="M 395.950909 307.584 
L 397.219091 307.584 
L 397.219091 306.06337 
L 395.950909 306.06337 
z
" style="fill:#1f77b4;"/>
   </g>
   <g id="patch_258">
    <path clip-path="url(#p2659badf1b)" d="M 397.219091 307.584 
L 398.487273 307.584 
L 398.487273 54.144 
L 397.219091 54.144 
z
" style="fill:#1f77b4;"/>
   </g>
   <g id="matplotlib.axis_1">
    <g id="xtick_1">
     <g id="line2d_1">
      <defs>
       <path d="M 0 0 
L 0 3.5 
" id="mef4d4c4e81" style="stroke:#000000;stroke-width:0.8;"/>
      </defs>
      <g>
       <use style="stroke:#000000;stroke-width:0.8;" x="73.832727" xlink:href="#mef4d4c4e81" y="307.584"/>
      </g>
     </g>
     <g id="text_1">
      <!-- 0 -->
      <defs>
       <path d="M 31.78125 66.40625 
Q 24.171875 66.40625 20.328125 58.90625 
Q 16.5 51.421875 16.5 36.375 
Q 16.5 21.390625 20.328125 13.890625 
Q 24.171875 6.390625 31.78125 6.390625 
Q 39.453125 6.390625 43.28125 13.890625 
Q 47.125 21.390625 47.125 36.375 
Q 47.125 51.421875 43.28125 58.90625 
Q 39.453125 66.40625 31.78125 66.40625 
z
M 31.78125 74.21875 
Q 44.046875 74.21875 50.515625 64.515625 
Q 56.984375 54.828125 56.984375 36.375 
Q 56.984375 17.96875 50.515625 8.265625 
Q 44.046875 -1.421875 31.78125 -1.421875 
Q 19.53125 -1.421875 13.0625 8.265625 
Q 6.59375 17.96875 6.59375 36.375 
Q 6.59375 54.828125 13.0625 64.515625 
Q 19.53125 74.21875 31.78125 74.21875 
z
" id="DejaVuSans-48"/>
      </defs>
      <g transform="translate(70.651477 322.182437)scale(0.1 -0.1)">
       <use xlink:href="#DejaVuSans-48"/>
      </g>
     </g>
    </g>
    <g id="xtick_2">
     <g id="line2d_2">
      <g>
       <use style="stroke:#000000;stroke-width:0.8;" x="137.490481" xlink:href="#mef4d4c4e81" y="307.584"/>
      </g>
     </g>
     <g id="text_2">
      <!-- 50 -->
      <defs>
       <path d="M 10.796875 72.90625 
L 49.515625 72.90625 
L 49.515625 64.59375 
L 19.828125 64.59375 
L 19.828125 46.734375 
Q 21.96875 47.46875 24.109375 47.828125 
Q 26.265625 48.1875 28.421875 48.1875 
Q 40.625 48.1875 47.75 41.5 
Q 54.890625 34.8125 54.890625 23.390625 
Q 54.890625 11.625 47.5625 5.09375 
Q 40.234375 -1.421875 26.90625 -1.421875 
Q 22.3125 -1.421875 17.546875 -0.640625 
Q 12.796875 0.140625 7.71875 1.703125 
L 7.71875 11.625 
Q 12.109375 9.234375 16.796875 8.0625 
Q 21.484375 6.890625 26.703125 6.890625 
Q 35.15625 6.890625 40.078125 11.328125 
Q 45.015625 15.765625 45.015625 23.390625 
Q 45.015625 31 40.078125 35.4375 
Q 35.15625 39.890625 26.703125 39.890625 
Q 22.75 39.890625 18.8125 39.015625 
Q 14.890625 38.140625 10.796875 36.28125 
z
" id="DejaVuSans-53"/>
      </defs>
      <g transform="translate(131.127981 322.182437)scale(0.1 -0.1)">
       <use xlink:href="#DejaVuSans-53"/>
       <use x="63.623047" xlink:href="#DejaVuSans-48"/>
      </g>
     </g>
    </g>
    <g id="xtick_3">
     <g id="line2d_3">
      <g>
       <use style="stroke:#000000;stroke-width:0.8;" x="201.148235" xlink:href="#mef4d4c4e81" y="307.584"/>
      </g>
     </g>
     <g id="text_3">
      <!-- 100 -->
      <defs>
       <path d="M 12.40625 8.296875 
L 28.515625 8.296875 
L 28.515625 63.921875 
L 10.984375 60.40625 
L 10.984375 69.390625 
L 28.421875 72.90625 
L 38.28125 72.90625 
L 38.28125 8.296875 
L 54.390625 8.296875 
L 54.390625 0 
L 12.40625 0 
z
" id="DejaVuSans-49"/>
      </defs>
      <g transform="translate(191.604485 322.182437)scale(0.1 -0.1)">
       <use xlink:href="#DejaVuSans-49"/>
       <use x="63.623047" xlink:href="#DejaVuSans-48"/>
       <use x="127.246094" xlink:href="#DejaVuSans-48"/>
      </g>
     </g>
    </g>
    <g id="xtick_4">
     <g id="line2d_4">
      <g>
       <use style="stroke:#000000;stroke-width:0.8;" x="264.805989" xlink:href="#mef4d4c4e81" y="307.584"/>
      </g>
     </g>
     <g id="text_4">
      <!-- 150 -->
      <g transform="translate(255.262239 322.182437)scale(0.1 -0.1)">
       <use xlink:href="#DejaVuSans-49"/>
       <use x="63.623047" xlink:href="#DejaVuSans-53"/>
       <use x="127.246094" xlink:href="#DejaVuSans-48"/>
      </g>
     </g>
    </g>
    <g id="xtick_5">
     <g id="line2d_5">
      <g>
       <use style="stroke:#000000;stroke-width:0.8;" x="328.463743" xlink:href="#mef4d4c4e81" y="307.584"/>
      </g>
     </g>
     <g id="text_5">
      <!-- 200 -->
      <defs>
       <path d="M 19.1875 8.296875 
L 53.609375 8.296875 
L 53.609375 0 
L 7.328125 0 
L 7.328125 8.296875 
Q 12.9375 14.109375 22.625 23.890625 
Q 32.328125 33.6875 34.8125 36.53125 
Q 39.546875 41.84375 41.421875 45.53125 
Q 43.3125 49.21875 43.3125 52.78125 
Q 43.3125 58.59375 39.234375 62.25 
Q 35.15625 65.921875 28.609375 65.921875 
Q 23.96875 65.921875 18.8125 64.3125 
Q 13.671875 62.703125 7.8125 59.421875 
L 7.8125 69.390625 
Q 13.765625 71.78125 18.9375 73 
Q 24.125 74.21875 28.421875 74.21875 
Q 39.75 74.21875 46.484375 68.546875 
Q 53.21875 62.890625 53.21875 53.421875 
Q 53.21875 48.921875 51.53125 44.890625 
Q 49.859375 40.875 45.40625 35.40625 
Q 44.1875 33.984375 37.640625 27.21875 
Q 31.109375 20.453125 19.1875 8.296875 
z
" id="DejaVuSans-50"/>
      </defs>
      <g transform="translate(318.919993 322.182437)scale(0.1 -0.1)">
       <use xlink:href="#DejaVuSans-50"/>
       <use x="63.623047" xlink:href="#DejaVuSans-48"/>
       <use x="127.246094" xlink:href="#DejaVuSans-48"/>
      </g>
     </g>
    </g>
    <g id="xtick_6">
     <g id="line2d_6">
      <g>
       <use style="stroke:#000000;stroke-width:0.8;" x="392.121497" xlink:href="#mef4d4c4e81" y="307.584"/>
      </g>
     </g>
     <g id="text_6">
      <!-- 250 -->
      <g transform="translate(382.577747 322.182437)scale(0.1 -0.1)">
       <use xlink:href="#DejaVuSans-50"/>
       <use x="63.623047" xlink:href="#DejaVuSans-53"/>
       <use x="127.246094" xlink:href="#DejaVuSans-48"/>
      </g>
     </g>
    </g>
   </g>
   <g id="matplotlib.axis_2">
    <g id="ytick_1">
     <g id="line2d_7">
      <defs>
       <path d="M 0 0 
L -3.5 0 
" id="md4f01e2e21" style="stroke:#000000;stroke-width:0.8;"/>
      </defs>
      <g>
       <use style="stroke:#000000;stroke-width:0.8;" x="57.6" xlink:href="#md4f01e2e21" y="307.584"/>
      </g>
     </g>
     <g id="text_7">
      <!-- 0 -->
      <g transform="translate(44.2375 311.383219)scale(0.1 -0.1)">
       <use xlink:href="#DejaVuSans-48"/>
      </g>
     </g>
    </g>
    <g id="ytick_2">
     <g id="line2d_8">
      <g>
       <use style="stroke:#000000;stroke-width:0.8;" x="57.6" xlink:href="#md4f01e2e21" y="259.233274"/>
      </g>
     </g>
     <g id="text_8">
      <!-- 20000 -->
      <g transform="translate(18.7875 263.032493)scale(0.1 -0.1)">
       <use xlink:href="#DejaVuSans-50"/>
       <use x="63.623047" xlink:href="#DejaVuSans-48"/>
       <use x="127.246094" xlink:href="#DejaVuSans-48"/>
       <use x="190.869141" xlink:href="#DejaVuSans-48"/>
       <use x="254.492188" xlink:href="#DejaVuSans-48"/>
      </g>
     </g>
    </g>
    <g id="ytick_3">
     <g id="line2d_9">
      <g>
       <use style="stroke:#000000;stroke-width:0.8;" x="57.6" xlink:href="#md4f01e2e21" y="210.882548"/>
      </g>
     </g>
     <g id="text_9">
      <!-- 40000 -->
      <defs>
       <path d="M 37.796875 64.3125 
L 12.890625 25.390625 
L 37.796875 25.390625 
z
M 35.203125 72.90625 
L 47.609375 72.90625 
L 47.609375 25.390625 
L 58.015625 25.390625 
L 58.015625 17.1875 
L 47.609375 17.1875 
L 47.609375 0 
L 37.796875 0 
L 37.796875 17.1875 
L 4.890625 17.1875 
L 4.890625 26.703125 
z
" id="DejaVuSans-52"/>
      </defs>
      <g transform="translate(18.7875 214.681767)scale(0.1 -0.1)">
       <use xlink:href="#DejaVuSans-52"/>
       <use x="63.623047" xlink:href="#DejaVuSans-48"/>
       <use x="127.246094" xlink:href="#DejaVuSans-48"/>
       <use x="190.869141" xlink:href="#DejaVuSans-48"/>
       <use x="254.492188" xlink:href="#DejaVuSans-48"/>
      </g>
     </g>
    </g>
    <g id="ytick_4">
     <g id="line2d_10">
      <g>
       <use style="stroke:#000000;stroke-width:0.8;" x="57.6" xlink:href="#md4f01e2e21" y="162.531822"/>
      </g>
     </g>
     <g id="text_10">
      <!-- 60000 -->
      <defs>
       <path d="M 33.015625 40.375 
Q 26.375 40.375 22.484375 35.828125 
Q 18.609375 31.296875 18.609375 23.390625 
Q 18.609375 15.53125 22.484375 10.953125 
Q 26.375 6.390625 33.015625 6.390625 
Q 39.65625 6.390625 43.53125 10.953125 
Q 47.40625 15.53125 47.40625 23.390625 
Q 47.40625 31.296875 43.53125 35.828125 
Q 39.65625 40.375 33.015625 40.375 
z
M 52.59375 71.296875 
L 52.59375 62.3125 
Q 48.875 64.0625 45.09375 64.984375 
Q 41.3125 65.921875 37.59375 65.921875 
Q 27.828125 65.921875 22.671875 59.328125 
Q 17.53125 52.734375 16.796875 39.40625 
Q 19.671875 43.65625 24.015625 45.921875 
Q 28.375 48.1875 33.59375 48.1875 
Q 44.578125 48.1875 50.953125 41.515625 
Q 57.328125 34.859375 57.328125 23.390625 
Q 57.328125 12.15625 50.6875 5.359375 
Q 44.046875 -1.421875 33.015625 -1.421875 
Q 20.359375 -1.421875 13.671875 8.265625 
Q 6.984375 17.96875 6.984375 36.375 
Q 6.984375 53.65625 15.1875 63.9375 
Q 23.390625 74.21875 37.203125 74.21875 
Q 40.921875 74.21875 44.703125 73.484375 
Q 48.484375 72.75 52.59375 71.296875 
z
" id="DejaVuSans-54"/>
      </defs>
      <g transform="translate(18.7875 166.331041)scale(0.1 -0.1)">
       <use xlink:href="#DejaVuSans-54"/>
       <use x="63.623047" xlink:href="#DejaVuSans-48"/>
       <use x="127.246094" xlink:href="#DejaVuSans-48"/>
       <use x="190.869141" xlink:href="#DejaVuSans-48"/>
       <use x="254.492188" xlink:href="#DejaVuSans-48"/>
      </g>
     </g>
    </g>
    <g id="ytick_5">
     <g id="line2d_11">
      <g>
       <use style="stroke:#000000;stroke-width:0.8;" x="57.6" xlink:href="#md4f01e2e21" y="114.181096"/>
      </g>
     </g>
     <g id="text_11">
      <!-- 80000 -->
      <defs>
       <path d="M 31.78125 34.625 
Q 24.75 34.625 20.71875 30.859375 
Q 16.703125 27.09375 16.703125 20.515625 
Q 16.703125 13.921875 20.71875 10.15625 
Q 24.75 6.390625 31.78125 6.390625 
Q 38.8125 6.390625 42.859375 10.171875 
Q 46.921875 13.96875 46.921875 20.515625 
Q 46.921875 27.09375 42.890625 30.859375 
Q 38.875 34.625 31.78125 34.625 
z
M 21.921875 38.8125 
Q 15.578125 40.375 12.03125 44.71875 
Q 8.5 49.078125 8.5 55.328125 
Q 8.5 64.0625 14.71875 69.140625 
Q 20.953125 74.21875 31.78125 74.21875 
Q 42.671875 74.21875 48.875 69.140625 
Q 55.078125 64.0625 55.078125 55.328125 
Q 55.078125 49.078125 51.53125 44.71875 
Q 48 40.375 41.703125 38.8125 
Q 48.828125 37.15625 52.796875 32.3125 
Q 56.78125 27.484375 56.78125 20.515625 
Q 56.78125 9.90625 50.3125 4.234375 
Q 43.84375 -1.421875 31.78125 -1.421875 
Q 19.734375 -1.421875 13.25 4.234375 
Q 6.78125 9.90625 6.78125 20.515625 
Q 6.78125 27.484375 10.78125 32.3125 
Q 14.796875 37.15625 21.921875 38.8125 
z
M 18.3125 54.390625 
Q 18.3125 48.734375 21.84375 45.5625 
Q 25.390625 42.390625 31.78125 42.390625 
Q 38.140625 42.390625 41.71875 45.5625 
Q 45.3125 48.734375 45.3125 54.390625 
Q 45.3125 60.0625 41.71875 63.234375 
Q 38.140625 66.40625 31.78125 66.40625 
Q 25.390625 66.40625 21.84375 63.234375 
Q 18.3125 60.0625 18.3125 54.390625 
z
" id="DejaVuSans-56"/>
      </defs>
      <g transform="translate(18.7875 117.980315)scale(0.1 -0.1)">
       <use xlink:href="#DejaVuSans-56"/>
       <use x="63.623047" xlink:href="#DejaVuSans-48"/>
       <use x="127.246094" xlink:href="#DejaVuSans-48"/>
       <use x="190.869141" xlink:href="#DejaVuSans-48"/>
       <use x="254.492188" xlink:href="#DejaVuSans-48"/>
      </g>
     </g>
    </g>
    <g id="ytick_6">
     <g id="line2d_12">
      <g>
       <use style="stroke:#000000;stroke-width:0.8;" x="57.6" xlink:href="#md4f01e2e21" y="65.83037"/>
      </g>
     </g>
     <g id="text_12">
      <!-- 100000 -->
      <g transform="translate(12.425 69.629589)scale(0.1 -0.1)">
       <use xlink:href="#DejaVuSans-49"/>
       <use x="63.623047" xlink:href="#DejaVuSans-48"/>
       <use x="127.246094" xlink:href="#DejaVuSans-48"/>
       <use x="190.869141" xlink:href="#DejaVuSans-48"/>
       <use x="254.492188" xlink:href="#DejaVuSans-48"/>
       <use x="318.115234" xlink:href="#DejaVuSans-48"/>
      </g>
     </g>
    </g>
   </g>
   <g id="patch_259">
    <path d="M 57.6 307.584 
L 57.6 41.472 
" style="fill:none;stroke:#000000;stroke-linecap:square;stroke-linejoin:miter;stroke-width:0.8;"/>
   </g>
   <g id="patch_260">
    <path d="M 414.72 307.584 
L 414.72 41.472 
" style="fill:none;stroke:#000000;stroke-linecap:square;stroke-linejoin:miter;stroke-width:0.8;"/>
   </g>
   <g id="patch_261">
    <path d="M 57.6 307.584 
L 414.72 307.584 
" style="fill:none;stroke:#000000;stroke-linecap:square;stroke-linejoin:miter;stroke-width:0.8;"/>
   </g>
   <g id="patch_262">
    <path d="M 57.6 41.472 
L 414.72 41.472 
" style="fill:none;stroke:#000000;stroke-linecap:square;stroke-linejoin:miter;stroke-width:0.8;"/>
   </g>
  </g>
 </g>
 <defs>
  <clipPath id="p2659badf1b">
   <rect height="266.112" width="357.12" x="57.6" y="41.472"/>
  </clipPath>
 </defs>
</svg>
